<?xml version="1.0" standalone="no"?>
<!DOCTYPE svg PUBLIC "-//W3C//DTD SVG 1.1//EN" "http://www.w3.org/Graphics/SVG/1.1/DTD/svg11.dtd" >
<svg>
<metadata>
Created by FontForge 20090914 at Mon Nov 27 20:59:53 2017
 By www-data
Copyright &#194;&#169; 2011 ParaType Inc., ParaType Ltd. All rights reserved.
</metadata>
<defs>
<font id="Circe-Bold" horiz-adv-x="596" >
  <font-face 
    font-family="Circe Bold"
    font-weight="700"
    font-stretch="normal"
    units-per-em="1000"
    panose-1="2 11 6 2 2 2 3 2 2 3"
    ascent="773"
    descent="-227"
    x-height="450"
    cap-height="700"
    bbox="-512 -423.001 1676 1012"
    underline-thickness="50"
    underline-position="-50"
    unicode-range="U+0020-U+FB02"
  />
<missing-glyph horiz-adv-x="212" 
 />
    <glyph glyph-name="uniF350.var.accented" unicode="&#xf350;`" horiz-adv-x="611" 
d="M6 0l245 526h109l245 -526h-131l-49 108h-247l-49 -108h-123zM302 383l-73 -161h145zM432 688l-149 -118l-55 64l133 142z" />
    <glyph glyph-name="uniF355.var.accented" unicode="&#xf355;`" horiz-adv-x="498" 
d="M78 0v525h359v-115h-237v-88h213v-115h-213v-92h246v-115h-368zM378 688l-149 -118l-55 64l133 142z" />
    <glyph glyph-name="uniF358.var.accented" unicode="&#xf358;`" horiz-adv-x="663" 
d="M185 0h-107v525h122v-330l278 330h107v-525h-122v330zM453 688l-149 -118l-55 64l133 142z" />
    <glyph glyph-name="uniF35E.var.accented" unicode="&#xf35e;`" horiz-adv-x="659" 
d="M35 261c0 77.333 27.332 141.833 81.999 193.5s125.334 77.5 212.001 77.5s157.5 -24.667 212.5 -74s82.5 -115 82.5 -197c0 -79.333 -27.833 -144.5 -83.5 -195.5s-126.167 -76.5 -211.5 -76.5c-86 0 -156.5 24.667 -211.5 74s-82.5 115.333 -82.5 198zM164.999 261
c0 -44.667 15.832 -82 47.499 -112s70.5 -45 116.5 -45c52 0 92.5 14.667 121.5 44s43.5 67 43.5 113c0 46.667 -15.667 84.334 -47 113.001s-70.666 43 -117.999 43c-48 0 -87.333 -14.333 -118 -43s-46 -66.334 -46 -113.001zM462.998 688l-149 -118l-55 64l133 142z" />
    <glyph glyph-name="uniF363.var.accented" unicode="&#xf363;`" horiz-adv-x="567" 
d="M560 525l-198.001 -397c-41.333 -85.333 -97.666 -128 -168.999 -128c-30 0 -56 7.66699 -78 23l43 104c14 -8 27.667 -12 41 -12c18.667 0 33.667 10 45 30l9 14l-244 366h154l152 -245l119 245h126zM422.999 688l-149 -118l-55 64l133 142z" />
    <glyph glyph-name="uniF36B.var.accented" unicode="&#xf36b;`" horiz-adv-x="736" 
d="M535 0v525h123v-525h-123zM247 250c-18.667 0 -34.332 -0.666992 -46.999 -2v-133c11.333 -1.33301 26.666 -2 45.999 -2c63.333 0 95 23.667 95 71c0 44 -31.333 66 -94 66zM200.002 525l-0.00195312 -163.001c15.333 2 34.333 3 57 3c70.667 0 124 -15.833 160 -47.5
s54 -75.167 54 -130.5c0 -57.333 -21.167 -103.166 -63.5 -137.499s-101.166 -51.5 -176.499 -51.5c-22 0 -50.667 0.333008 -86 1s-57.666 1 -66.999 1v525h122zM483 687.999l-149 -118l-55 64l133 142z" />
    <glyph glyph-name="uniF36D.var.accented" unicode="&#xf36d;`" horiz-adv-x="562" 
d="M154 210l-0.000976562 115h240c-22 62.667 -77.667 94 -167 94c-65.333 0 -117.333 -12.667 -156 -38l-47 92c54 40.667 123.333 61 208 61c86 0 156.667 -25 212 -75s83 -115.667 83 -197c0 -84 -28 -150.167 -84 -198.5s-131.667 -72.5 -227 -72.5
c-40 0 -78 5.33301 -114 16s-63.667 23.667 -83 39l52 103c42.667 -28.667 96 -43 160 -43c92.667 0 148.334 34.667 167.001 104h-244zM362.999 688l-149 -118l-55 64l133 142z" />
    <glyph glyph-name="uniF36E.var.accented" unicode="&#xf36e;`" horiz-adv-x="877" 
d="M78 0l0.000976562 525h122v-200h83c12.667 62.667 42.834 113.167 90.501 151.5s108.5 57.5 182.5 57.5c88.667 0 158.5 -24.333 209.5 -73s76.5 -114.667 76.5 -198c0 -81.333 -25.833 -147 -77.5 -197s-121.167 -75 -208.5 -75c-72.667 0 -133.834 19.5 -183.501 58.5
s-79.834 92.5 -90.501 160.5h-82v-210h-122zM408.001 263c0 -45.333 14 -82.8311 42 -112.498s64.667 -44.5 110 -44.5c49.333 0 87 14.667 113 44s39 67 39 113c0 47.333 -13.833 85.166 -41.5 113.499s-64.5 42.5 -110.5 42.5c-45.333 0 -82 -14.333 -110 -43
s-42 -66.334 -42 -113.001zM544.001 688.002l-149 -118l-55 64l133 142z" />
    <glyph glyph-name="uniF36F.var.accented" unicode="&#xf36f;`" horiz-adv-x="559" 
d="M358 0v160h-92l-110 -160h-145l136 187c-59.333 34 -89 83 -89 147c0 54.667 20 100.667 60 138s100 56 180 56c25.333 0 60 -0.5 104 -1.5s70.333 -1.5 79 -1.5v-525h-123zM256 275h102v135c-22 2 -46 3 -72 3c-31.333 0 -55.5 -6.33301 -72.5 -19s-25.5 -30 -25.5 -52
c0 -18 6.66699 -32.833 20 -44.5s29.333 -19.167 48 -22.5zM403 688l-149 -118l-55 64l133 142z" />
    <glyph glyph-name="uniF371.var.accented" unicode="&#xf371;`" horiz-adv-x="498" 
d="M89 645c0 18 6.16699 32.499 18.5 43.499s27.833 16.5 46.5 16.5c14.667 0 28 -5.66699 40 -17s18 -25.666 18 -42.999c0 -18.667 -5.83301 -33.667 -17.5 -45s-25.167 -17 -40.5 -17c-18.667 0 -34.167 5.5 -46.5 16.5s-18.5 26.167 -18.5 45.5zM308 644.999
c0 18 6.33301 32.5 19 43.5s27.667 16.5 45 16.5c16 0 30 -5.5 42 -16.5s18 -25.5 18 -43.5c0 -19.333 -6 -34.5 -18 -45.5s-26 -16.5 -42 -16.5c-18 0 -33.167 5.5 -45.5 16.5s-18.5 26.167 -18.5 45.5zM78 -0.000976562v525h359v-115h-237v-88h213v-115h-213v-92h246v-115
h-368zM403 777.999l-149 -118l-55 64l133 142z" />
    <glyph glyph-name="afii10017.var.accented" unicode="&#x410;`" horiz-adv-x="715" 
d="M7 0l296 702h108l296 -702h-131l-73 179h-299l-73 -179h-124zM354 543l-103 -249h205zM529 812l-225 -81l-32 69l214 111z" />
    <glyph glyph-name="afii10022.var.accented" unicode="&#x415;`" horiz-adv-x="575" 
d="M97 0v700h405v-115h-282v-174h252v-115h-252v-181h292v-115h-415zM489 812l-225 -81l-32 69l214 111z" />
    <glyph glyph-name="afii10026.var.accented" unicode="&#x418;`" horiz-adv-x="792" 
d="M205 0h-108v700h123v-498l367 498h108v-700h-123v497zM579 812l-225 -81l-32 69l214 111z" />
    <glyph glyph-name="afii10032.var.accented" unicode="&#x41e;`" horiz-adv-x="819" 
d="M45 350c0 102.667 34.167 188.5 102.5 257.5s155.5 103.5 261.5 103.5c105.333 0 192.5 -33.333 261.5 -100s103.5 -153.667 103.5 -261c0 -104.667 -34.667 -191 -104 -259s-156.333 -102 -261 -102c-105.333 0 -192.333 33.333 -261 100s-103 153.667 -103 261z
M175 350c0 -70 22.499 -128.501 67.499 -175.501s100.5 -70.5 166.5 -70.5c72 0 129.167 23.333 171.5 70s63.5 105.334 63.5 176.001c0 72 -22.5 131 -67.5 177s-100.833 69 -167.5 69c-67.333 0 -123.166 -23 -167.499 -69s-66.5 -105 -66.5 -177zM588.999 811.999
l-225 -81l-32 69l214 111z" />
    <glyph glyph-name="afii10037.var.accented" unicode="&#x423;`" horiz-adv-x="683" 
d="M671 700l-238 -537c-24.667 -55.333 -52 -96.333 -82 -123s-66 -40 -108 -40c-40.667 -0 -72.667 9.33301 -96 28l43 104c16.667 -11.333 34 -17 52 -17c30.667 0 53.667 16.333 69 49l10 24l-309 512h139l229 -391l167 391h124zM537 812l-225 -81l-32 69l214 111z" />
    <glyph glyph-name="afii10045.var.accented" unicode="&#x42b;`" horiz-adv-x="864" 
d="M645 0v700h122v-700h-122zM288 350c-14 0 -36.667 -1.66602 -68 -4.99902v-229c4.66699 0 11.334 -0.333008 20.001 -1s16.667 -1.16699 24 -1.5s14.666 -0.5 21.999 -0.5c92 0 138 41 138 123c0 37.333 -11.833 65.666 -35.5 84.999s-57.167 29 -100.5 29zM220 700.001
l-0.000976562 -240c26 3.33301 52 5 78 5c84.667 0 148.5 -20 191.5 -60s64.5 -95.333 64.5 -166c0 -74.667 -25 -133.5 -75 -176.5s-119.333 -64.5 -208 -64.5c-24 0 -56.167 0.333008 -96.5 1s-66.166 1 -77.499 1v700h123zM593.999 812.001l-225 -81l-32 69l214 111z" />
    <glyph glyph-name="afii10047.var.accented" unicode="&#x42d;`" horiz-adv-x="673" 
d="M187 299l0.000976562 114.999h312c-12 58 -40.333 102.833 -85 134.5s-100.334 47.5 -167.001 47.5c-61.333 0 -116 -18 -164 -54l-48 92c60 51.333 140.333 77 241 77c104 0 188.667 -33 254 -99s98 -153 98 -261c0 -110 -33 -197.833 -99 -263.5s-155 -98.5 -267 -98.5
c-47.333 0 -92 6.83301 -134 20.5s-75.667 31.167 -101 52.5l53 103c52.667 -40.667 112.667 -61 180 -61c62.667 0 116.167 16.833 160.5 50.5s71.5 81.834 81.5 144.501h-315zM459.001 811.999l-225 -81l-32 69l214 111z" />
    <glyph glyph-name="afii10048.var.accented" unicode="&#x42e;`" horiz-adv-x="1081" 
d="M97 0v700.001h123v-286h119c13.333 87.333 50.833 158.666 112.5 213.999s138.167 83 229.5 83c104.667 0 190 -33.167 256 -99.5s99 -153.5 99 -261.5c0 -105.333 -33.167 -191.833 -99.5 -259.5s-151.5 -101.5 -255.5 -101.5c-90 0 -167.167 28.333 -231.5 85
s-101.833 131.667 -112.5 225h-117v-299h-123zM464 350.001c0 -69.333 21.333 -127.668 64 -175.001s95 -71 157 -71c70.667 0 125.167 23 163.5 69s57.5 105 57.5 177c0 72.667 -20.333 131.834 -61 177.501s-94 68.5 -160 68.5c-63.333 0 -116 -23 -158 -69
s-63 -105 -63 -177zM739 811.999l-225 -81l-32 69l214 111z" />
    <glyph glyph-name="afii10049.var.accented" unicode="&#x42f;`" horiz-adv-x="633" 
d="M413 0v242h-101l-157 -242h-138l179 267c-36 18 -65.5 43.5 -88.5 76.5s-34.5 72.167 -34.5 117.5c0 70 24 127.833 72 173.5s120 68.5 216 68.5c15.333 0 44.833 -0.5 88.5 -1.5s72.167 -1.5 85.5 -1.5v-700h-122zM301 357h112v228c-34 2 -59.667 3 -77 3
c-40 0 -72.167 -11 -96.5 -33s-36.5 -50.667 -36.5 -86c0 -30 9.5 -54.833 28.5 -74.5s42.167 -32.167 69.5 -37.5zM537 812l-225 -81l-32 69l214 111z" />
    <glyph glyph-name="afii10023.var.accented" unicode="&#x401;`" horiz-adv-x="575" 
d="M97 824c0 19.333 5.66699 34.668 17 46.001s25.333 17 42 17c14.667 0 27.5 -5.83301 38.5 -17.5s16.5 -26.834 16.5 -45.501c0 -20.667 -5.5 -37 -16.5 -49s-23.833 -18 -38.5 -18c-17.333 0 -31.5 6 -42.5 18s-16.5 28.333 -16.5 49zM399 824.002
c0 18.667 5.83301 33.834 17.5 45.501s25.834 17.5 42.501 17.5c14.667 0 27.334 -5.83301 38.001 -17.5s16 -26.834 16 -45.501c0 -20.667 -5.33301 -37 -16 -49s-23.334 -18 -38.001 -18c-16.667 0 -30.834 6 -42.501 18s-17.5 28.333 -17.5 49zM401 884.002l-133 -144
l-41 19l75 152zM97 0.00195312v700h405v-115h-282v-174h252v-115h-252v-181h292v-115h-415z" />
    <glyph glyph-name="afii10065.var.accented" unicode="&#x430;`" horiz-adv-x="463" 
d="M99 334l-29.001 83.999c48.667 28.667 101.667 43 159 43c64 0 110 -15.667 138 -47s42 -78 42 -140v-274h-100v52c-27.333 -38.667 -71.666 -58 -132.999 -58c-42 0 -76 12.333 -102 37s-39 58.334 -39 101.001c0 47.333 15.333 83.5 46 108.5s70 37.5 118 37.5
c41.333 0 75.333 -9.66699 102 -29c1.33301 39.333 -4.33398 68.5 -17.001 87.5s-35 28.5 -67 28.5c-33.333 0 -72.666 -10.333 -117.999 -31zM213.999 90.999c38.667 0 67.667 13.667 87 41v46c-19.333 14.667 -45.666 22 -78.999 22
c-20.667 0 -37.834 -4.83301 -51.501 -14.5s-20.5 -23.5 -20.5 -41.5c0 -16.667 6 -29.667 18 -39s27.333 -14 46 -14zM369.999 661.999l-126 -145l-69 48l105 165z" />
    <glyph glyph-name="afii10070.var.accented" unicode="&#x435;`" horiz-adv-x="516" 
d="M417 126l33 -81.001c-44 -37.333 -101.333 -56 -172 -56c-72.667 0 -131.167 21.667 -175.5 65s-66.5 100.333 -66.5 171c0 67.333 21.667 123.5 65 168.5s101 67.5 173 67.5c59.333 0 109.666 -19.5 150.999 -58.5s62 -89.167 62 -150.5c0 -25.333 -2.33301 -46 -7 -62
h-325c4.66699 -33.333 19.334 -59.166 44.001 -77.499s55 -27.5 91 -27.5c50.667 0 93 13.667 127 41zM269 364.999c-65.333 0 -104.667 -32.667 -118 -98h221c0.666992 28 -8.33301 51.333 -27 70s-44 28 -76 28zM396.999 661.999l-126 -145l-69 48l105 165z" />
    <glyph glyph-name="afii10074.var.accented" unicode="&#x438;`" horiz-adv-x="568" 
d="M179 0h-115v450h115v-285l210 285h115v-450h-115v285zM406 662l-126 -145l-69 48l105 165z" />
    <glyph glyph-name="afii10080.var.accented" unicode="&#x43e;`" horiz-adv-x="562" 
d="M36 225c0 68.667 22.5 125.167 67.5 169.5s104.167 66.5 177.5 66.5s132.5 -22.167 177.5 -66.5s67.5 -100.833 67.5 -169.5s-22.5 -125.167 -67.5 -169.5s-104.167 -66.5 -177.5 -66.5s-132.5 22.167 -177.5 66.5s-67.5 100.833 -67.5 169.5zM159 225
c0 -37.333 11.499 -68.168 34.499 -92.501s52.167 -36.5 87.5 -36.5c36 0 65.5 11.833 88.5 35.5s34.5 54.834 34.5 93.501c0 37.333 -11.667 68 -35 92s-52.666 36 -87.999 36c-34.667 0 -63.667 -11.833 -87 -35.5s-35 -54.5 -35 -92.5zM410.999 661.998l-126 -145l-69 48
l105 165z" />
    <glyph glyph-name="afii10085.var.accented" unicode="&#x443;`" horiz-adv-x="503" 
d="M498 450l-176.999 -450c-32 -78 -60.5 -130.833 -85.5 -158.5s-54.5 -41.5 -88.5 -41.5c-32.667 0 -65 11.667 -97 35l37 87c18 -10.667 33.667 -16 47 -16c27.333 0 50.333 23.333 69 70l10 24l-208 450h138l105 -246c4 -10 11.333 -31.667 22 -65
c5.33301 29.333 10.666 51.333 15.999 66l81 245h131zM382.001 662l-126 -145l-69 48l105 165z" />
    <glyph glyph-name="afii10093.var.accented" unicode="&#x44b;`" horiz-adv-x="676" 
d="M64 0l-0.00195312 450h115v-123h56c70.667 0 121.334 -14.667 152.001 -44s46 -66.666 46 -111.999c0 -48.667 -16.667 -89.334 -50 -122.001s-85.666 -49 -156.999 -49h-162zM496.998 0v450h115v-450h-115zM224.998 235h-46v-135h45c58 0 87 22.333 87 67
c0 45.333 -28.667 68 -86 68zM441.998 662l-126 -145l-69 48l105 165z" />
    <glyph glyph-name="afii10095.var.accented" unicode="&#x44d;`" horiz-adv-x="496" 
d="M140 189l-0.00292969 77h200c-7.33301 31.333 -22.666 55 -45.999 71s-51 24 -83 24c-43.333 0 -86.333 -15.667 -129 -47l-47 80c20 22 46.333 38.667 79 50s64.334 17 95.001 17c76.667 0 137.667 -21.333 183 -64s68 -100 68 -172c0 -68 -21.5 -124.333 -64.5 -169
s-101.5 -67 -175.5 -67c-81.333 0 -143.666 22.333 -186.999 67l54 76c32.667 -28.667 74.667 -43 126 -43c34.667 0 63.167 8.5 85.5 25.5s36.5 41.833 42.5 74.5h-201zM343.997 662l-126 -145l-69 48l105 165z" />
    <glyph glyph-name="afii10096.var.accented" unicode="&#x44e;`" horiz-adv-x="772" 
d="M64 0l0.00195312 450h122v-163h80c12 52.667 38.167 94.834 78.5 126.501s90.166 47.5 149.499 47.5c72 0 130.333 -22.167 175 -66.5s67 -100.833 67 -169.5c0 -68 -22.5 -124.333 -67.5 -169s-103.167 -67 -174.5 -67c-61.333 0 -112.333 16.667 -153 50
s-66.334 77.666 -77.001 132.999h-78v-172h-122zM389.002 225c0 -37.333 10 -66.833 30 -88.5s46 -32.5 78 -32.5c32.667 0 59 10.833 79 32.5s30 51.167 30 88.5s-9.83301 66.833 -29.5 88.5s-46.167 32.5 -79.5 32.5c-32 0 -58 -11 -78 -33s-30 -51.333 -30 -88z
M519.002 662l-126 -145l-69 48l105 165z" />
    <glyph glyph-name="afii10097.var.accented" unicode="&#x44f;`" horiz-adv-x="495" 
d="M284 450h147.001v-450h-115v135h-64l-93 -135h-132l120 160c-22.667 8 -42.834 23.167 -60.501 45.5s-26.5 50.5 -26.5 84.5c0 47.333 18.167 85.833 54.5 115.5s92.833 44.5 169.5 44.5zM183.001 282c0 -18 7.5 -32.833 22.5 -44.5s31.833 -17.5 50.5 -17.5h60v130h-51
c-26 0 -46.167 -6.66699 -60.5 -20s-21.5 -29.333 -21.5 -48zM403.001 662l-126 -145l-69 48l105 165z" />
    <glyph glyph-name="afii10071.var.accented" unicode="&#x451;`" horiz-adv-x="516" 
d="M72 588c0 16 5.16699 28.833 15.5 38.5s22.833 14.5 37.5 14.5c13.333 0 25 -4.83301 35 -14.5s15 -22.5 15 -38.5c0 -17.333 -5 -31 -15 -41s-21.667 -15 -35 -15c-15.333 0 -28 5 -38 15s-15 23.667 -15 41zM361 588c0 16 5.16699 28.833 15.5 38.5
s22.833 14.5 37.5 14.5c13.333 0 25 -4.83301 35 -14.5s15 -22.5 15 -38.5c0 -17.333 -4.83301 -31 -14.5 -41s-21.5 -15 -35.5 -15c-15.333 0 -28 5 -38 15s-15 23.667 -15 41zM374 662l-126 -145l-53 38l104 164zM417 126l33 -81.001c-44 -37.333 -101.333 -56 -172 -56
c-72.667 0 -131.167 21.667 -175.5 65s-66.5 100.333 -66.5 171c0 67.333 21.667 123.5 65 168.5s101 67.5 173 67.5c59.333 0 109.666 -19.5 150.999 -58.5s62 -89.167 62 -150.5c0 -25.333 -2.33301 -46 -7 -62h-325c4.66699 -33.333 19.334 -59.166 44.001 -77.499
s55 -27.5 91 -27.5c50.667 0 93 13.667 127 41zM269 364.999c-65.333 0 -104.667 -32.667 -118 -98h221c0.666992 28 -8.33301 51.333 -27 70s-44 28 -76 28z" />
    <glyph glyph-name="fi" unicode="fi" horiz-adv-x="530" 
d="M362 0v342h-178v-342h-115v506c0 68.667 17.833 120 53.5 154s84.5 51 146.5 51c88.667 0 153 -31.333 193 -94l-83 -65c-21.333 34 -51 51 -89 51c-36 0 -62.667 -8.16699 -80 -24.5s-26 -43.833 -26 -82.5v-46h293v-450h-115z" />
    <glyph glyph-name="fl" unicode="fl" horiz-adv-x="570" 
d="M334 124l0.00195312 455c-22.667 16 -46.334 24 -71.001 24c-52.667 0 -79 -29.667 -79 -89v-64h81v-108h-81v-342h-115v523c0 61.333 14 108 42 140s67.333 48 118 48c47.333 0 86.666 -10 117.999 -30h102v-510c0 -48.667 13 -73 39 -73c15.333 0 31.333 6 48 18
l24 -88c-31.333 -25.333 -71 -38 -119 -38c-71.333 0 -107 44.667 -107 134z" />
    <glyph glyph-name=".notdef" horiz-adv-x="212" 
 />
    <glyph glyph-name="space" unicode=" " horiz-adv-x="212" 
 />
    <glyph glyph-name="exclam" unicode="!" horiz-adv-x="310" 
d="M94 242v458h122v-458h-122zM78 75c0 18.667 7.33301 35.667 22 51s34 23 58 23c20.667 0 38 -7.66699 52 -23s21 -32.333 21 -51c0 -21.333 -7 -40 -21 -56s-31.333 -24 -52 -24c-24 0 -43.333 8 -58 24s-22 34.667 -22 56z" />
    <glyph glyph-name="quotedbl" unicode="&#x22;" horiz-adv-x="432" 
d="M249 459v241h115v-241h-115zM67 459v241h115v-241h-115z" />
    <glyph glyph-name="numbersign" unicode="#" horiz-adv-x="724" 
d="M313 21l59 159h-153l-71 -191l-89 31l59 160h-78v100h115l52 140h-167v100h205l71 191l89 -32l-59 -159h151l71 191l89 -31l-59 -160h86v-100h-123l-52 -140h175v-100h-212l-70 -191zM308 420l-52 -140h153l51 140h-152z" />
    <glyph glyph-name="dollar" unicode="$" 
d="M398 186c0 18.667 -5.83008 35.166 -17.4971 49.499s-26.834 26.666 -45.501 36.999s-39.167 20.333 -61.5 30s-44.833 20.667 -67.5 33s-43.334 26 -62.001 41s-33.834 34.667 -45.501 59s-17.5 51.833 -17.5 82.5c0 44.667 15 84.334 45 119.001s70 57.334 120 68.001
v85h115v-83c63.333 -10 112 -33.667 146 -71l-66 -92c-36 34.667 -77.333 52 -124 52c-34.667 0 -61 -6.83301 -79 -20.5s-27 -32.5 -27 -56.5c0 -22.667 7.83301 -42.334 23.5 -59.001s35.167 -29.834 58.5 -39.501s48.833 -21.167 76.5 -34.5s53.167 -27.166 76.5 -41.499
s42.833 -35 58.5 -62s23.5 -58.833 23.5 -95.5c0 -49.333 -15.333 -91.166 -46 -125.499s-71 -56.5 -121 -66.5v-95h-115v94c-39.333 6.66699 -74.833 19 -106.5 37s-53.834 40.667 -66.501 68l70 84c19.333 -25.333 43.833 -44.833 73.5 -58.5s58.834 -20.5 87.501 -20.5
c29.333 0 52.333 7.16699 69 21.5s25 34.5 25 60.5z" />
    <glyph glyph-name="percent" unicode="%" horiz-adv-x="911" 
d="M170 35l505 676l65 -49l-504 -673zM37 531c0 53.333 18.5 96.333 55.5 129s84.167 49 141.5 49s104.5 -16.333 141.5 -49s55.5 -75.667 55.5 -129s-18.5 -96.5 -55.5 -129.5s-84.167 -49.5 -141.5 -49.5s-104.5 16.5 -141.5 49.5s-55.5 76.167 -55.5 129.5zM145 531
c0 -26 8.49902 -46.833 25.499 -62.5s38.167 -23.5 63.5 -23.5c26.667 0 48.334 7.83301 65.001 23.5s25 36.5 25 62.5c0 25.333 -8.5 45.833 -25.5 61.5s-38.5 23.5 -64.5 23.5c-25.333 0 -46.5 -7.83301 -63.5 -23.5s-25.5 -36.167 -25.5 -61.5zM478.999 169
c0 53.333 18.5 96.333 55.5 129s84.167 49 141.5 49s104.5 -16.333 141.5 -49s55.5 -75.667 55.5 -129s-18.5 -96.5 -55.5 -129.5s-84.167 -49.5 -141.5 -49.5s-104.5 16.5 -141.5 49.5s-55.5 76.167 -55.5 129.5zM586.999 169c0 -26 8.49902 -46.833 25.499 -62.5
s38.167 -23.5 63.5 -23.5c26.667 0 48.334 7.83301 65.001 23.5s25 36.5 25 62.5c0 25.333 -8.5 45.833 -25.5 61.5s-38.5 23.5 -64.5 23.5c-25.333 0 -46.5 -7.83301 -63.5 -23.5s-25.5 -36.167 -25.5 -61.5z" />
    <glyph glyph-name="ampersand" unicode="&#x26;" horiz-adv-x="753" 
d="M560 0l-58.998 73.001c-50.667 -56 -119.334 -84 -206.001 -84c-70 0 -126.667 18.833 -170 56.5s-65 85.834 -65 144.501c0 52.667 13.167 96.167 39.5 130.5s64.833 69.166 115.5 104.499c-53.333 25.333 -80 70 -80 134c0 46 16.333 82.833 49 110.5
s71.667 41.5 117 41.5s84.333 -13.833 117 -41.5s49 -64.5 49 -110.5c0 -30.667 -8.83301 -58.834 -26.5 -84.501s-38.834 -42.5 -63.501 -50.5l136 -177c31.333 61.333 47 129 47 203h114c0 -114.667 -30.667 -213 -92 -295l121 -155h-143zM299.002 104.001
c58.667 0 103 20.334 133 61.001l-142 194c-35.333 -28.667 -60.833 -53.834 -76.5 -75.501s-23.5 -45.167 -23.5 -70.5c0 -30.667 10.5 -56.5 31.5 -77.5s46.833 -31.5 77.5 -31.5zM242.002 559.002c0 -16 5.66699 -29.667 17 -41s25.333 -17 42 -17s30.667 5.66699 42 17
s17 25 17 41c0 16.667 -5.83301 30.667 -17.5 42s-25.5 17 -41.5 17c-16.667 0 -30.667 -5.66699 -42 -17s-17 -25.333 -17 -42z" />
    <glyph glyph-name="quotesingle" unicode="'" horiz-adv-x="250" 
d="M67 459v241h115v-241h-115z" />
    <glyph glyph-name="parenleft" unicode="(" horiz-adv-x="315" 
d="M315 -143l-72.999 -63.002c-134.667 116 -202 259.667 -202 431c0 165.333 67.667 309 203 431l71 -63c-54.667 -54 -94.834 -110.5 -120.501 -169.5s-38.5 -125.167 -38.5 -198.5c0 -71.333 14.5 -139.166 43.5 -203.499s67.833 -119.166 116.5 -164.499z" />
    <glyph glyph-name="parenright" unicode=")" horiz-adv-x="315" 
d="M73 -206l-72.999 63.002c48.667 45.333 87.5 100.166 116.5 164.499s43.5 132.166 43.5 203.499c0 73.333 -12.833 139.5 -38.5 198.5s-65.834 115.5 -120.501 169.5l71 63c135.333 -122 203 -265.667 203 -431c0 -171.333 -67.333 -315 -202 -431z" />
    <glyph glyph-name="asterisk" unicode="*" horiz-adv-x="540" 
d="M199 638c0 20 7.16797 36.999 21.501 50.999s31.5 21 51.5 21c19.333 0 36.166 -7.16699 50.499 -21.5s21.5 -31.166 21.5 -50.499c0 -20 -7 -37.167 -21 -51.5s-31 -21.5 -51 -21.5c-20.667 0 -38 7 -52 21s-21 31.333 -21 52zM197.001 331.999c0 20 7 37.333 21 52
s31 22 51 22c19.333 0 36.166 -7.33301 50.499 -22s21.5 -32 21.5 -52c0 -19.333 -7.16699 -36 -21.5 -50s-31.166 -21 -50.499 -21c-20 0 -37 7 -51 21s-21 30.667 -21 50zM339.001 567.999c0 19.333 7.33301 36.333 22 51s31.667 22 51 22c20 0 37.167 -7.33301 51.5 -22
s21.5 -31.667 21.5 -51c0 -20 -7.16699 -37 -21.5 -51s-31.5 -21 -51.5 -21s-37.167 7 -51.5 21s-21.5 31 -21.5 51zM339.001 404.999c0 20 7.33301 37.333 22 52s31.667 22 51 22c20 0 37.167 -7.33301 51.5 -22s21.5 -32 21.5 -52c0 -19.333 -7.16699 -36 -21.5 -50
s-31.5 -21 -51.5 -21c-19.333 0 -36.333 7 -51 21s-22 30.667 -22 50zM55.001 404.999c0 20 7.16699 37.333 21.5 52s31.166 22 50.499 22c20.667 0 38.167 -7.33301 52.5 -22s21.5 -32 21.5 -52c0 -19.333 -7.16699 -36 -21.5 -50s-31.833 -21 -52.5 -21
c-19.333 0 -36.166 7 -50.499 21s-21.5 30.667 -21.5 50zM55.001 567.999c0 19.333 7.16699 36.333 21.5 51s31.166 22 50.499 22c20.667 0 38.167 -7.16699 52.5 -21.5s21.5 -31.5 21.5 -51.5s-7.16699 -37 -21.5 -51s-31.833 -21 -52.5 -21
c-19.333 0 -36.166 7 -50.499 21s-21.5 31 -21.5 51z" />
    <glyph glyph-name="plus" unicode="+" 
d="M66 310v100h177v181h108v-181h179v-100h-179v-183h-108v183h-177z" />
    <glyph glyph-name="comma" unicode="," horiz-adv-x="252" 
d="M47 64c0 21.333 6.83301 38.832 20.5 52.499s32.5 20.5 56.5 20.5c26.667 0 48 -10.5 64 -31.5s24 -47.833 24 -80.5c0 -42 -11.167 -78 -33.5 -108s-53.5 -50.667 -93.5 -62l-31 54c29.333 10.667 49.666 28.334 60.999 53.001c10 20.667 13 36 9 46
c-4 -5.33301 -12.667 -8 -26 -8s-25.166 6.16699 -35.499 18.5s-15.5 27.5 -15.5 45.5z" />
    <glyph glyph-name="hyphen" unicode="-" horiz-adv-x="376" 
d="M62 220v107h252v-107h-252z" />
    <glyph glyph-name="period" unicode="." horiz-adv-x="243" 
d="M45 75c0 18.667 7.33301 35.667 22 51s34 23 58 23c20.667 0 38 -7.66699 52 -23s21 -32.333 21 -51c0 -21.333 -7 -40 -21 -56s-31.333 -24 -52 -24c-24 0 -43.333 8 -58 24s-22 34.667 -22 56z" />
    <glyph glyph-name="slash" unicode="/" horiz-adv-x="359" 
d="M-30 -175l330 886l89 -33l-330 -886z" />
    <glyph glyph-name="zero" unicode="0" horiz-adv-x="554" 
d="M42 350c0 110.667 19.668 198 59.001 262s98 96 176 96c77.333 0 135.666 -32 174.999 -96s59 -151.333 59 -262c0 -111.333 -19.333 -198.833 -58 -262.5s-96.667 -95.5 -174 -95.5c-78 0 -137 32 -177 96s-60 151.333 -60 262zM165.001 350
c0 -167.333 38 -251 114 -251c39.333 0 67.5 19.833 84.5 59.5s25.5 103.5 25.5 191.5c0 87.333 -8.66699 150.833 -26 190.5s-46 59.5 -86 59.5c-39.333 0 -67.833 -20.333 -85.5 -61s-26.5 -103.667 -26.5 -189z" />
    <glyph glyph-name="one" unicode="1" horiz-adv-x="389" 
d="M22 568l179 134h83v-702h-115v538l-86 -65z" />
    <glyph glyph-name="two" unicode="2" horiz-adv-x="524" 
d="M37 0l-0.000976562 92c84.667 83.333 140.334 140.333 167.001 171c82.667 94.667 124 174.334 124 239.001c0 28.667 -7.66699 51 -23 67s-37.333 24 -66 24c-24.667 0 -45.834 -8.16699 -63.501 -24.5s-30.167 -39.5 -37.5 -69.5l-96 43
c9.33301 51.333 32.833 91.833 70.5 121.5s84.167 44.5 139.5 44.5c62.667 0 111.334 -18 146.001 -54s52 -79 52 -129c0 -36.667 -7.66699 -74.834 -23 -114.501s-33 -74.167 -53 -103.5s-44.167 -59.333 -72.5 -90s-50.333 -53.167 -66 -67.5s-32.167 -28.5 -49.5 -42.5
h291v-107h-440z" />
    <glyph glyph-name="three" unicode="3" horiz-adv-x="530" 
d="M244 -11c-52 0 -97.333 10.499 -136 31.499s-67.334 49.833 -86.001 86.5l65 84c39.333 -58 89.333 -87 150 -87c36 0 63.833 9.16699 83.5 27.5s29.5 41.5 29.5 69.5c0 32 -11.5 56.5 -34.5 73.5s-54.833 25.5 -95.5 25.5h-50v115h45c30 0 55.5 8.83301 76.5 26.5
s31.5 40.834 31.5 69.501c0 26 -7.5 46.667 -22.5 62s-37.167 23 -66.5 23c-54 0 -98 -25 -132 -75l-64 81c38.667 72.667 107.667 109 207 109c60.667 0 109.334 -16 146.001 -48s55 -75.333 55 -130c0 -79.333 -35.667 -134.666 -107 -165.999v-3
c42.667 -7.33301 75.667 -26.333 99 -57s35 -67.334 35 -110.001c0 -63.333 -21.667 -113.833 -65 -151.5s-98 -56.5 -164 -56.5z" />
    <glyph glyph-name="four" unicode="4" horiz-adv-x="565" 
d="M335 0v162h-320v85l270 453h132l-253 -423h171v173h115v-173h90v-115h-90v-162h-115z" />
    <glyph glyph-name="five" unicode="5" horiz-adv-x="514" 
d="M81 328l45.9971 371.999h331v-115h-230l-20 -139c14.667 2.66699 28 4 40 4c63.333 0 115.833 -20.333 157.5 -61s62.5 -94.667 62.5 -162c0 -73.333 -23 -131.333 -69 -174s-103.333 -64 -172 -64c-39.333 0 -78.166 8.83301 -116.499 26.5s-67.833 42.167 -88.5 73.5
l66 87c14.667 -21.333 35.334 -38.666 62.001 -51.999s53.334 -20 80.001 -20c33.333 0 60.833 11 82.5 33s32.5 50.333 32.5 85c0 36 -13.333 65.667 -40 89s-63 35 -109 35c-48.667 0 -87 -6 -115 -18z" />
    <glyph glyph-name="six" unicode="6" horiz-adv-x="559" 
d="M45 248c0 61.333 10.666 119.501 31.999 174.501s49 101.667 83 140s70.833 70.166 110.5 95.499s79.167 43 118.5 53l47 -87c-60 -18 -113.167 -49 -159.5 -93s-78.166 -98.333 -95.499 -163c31.333 43.333 79.333 65 144 65c54.667 0 101 -20 139 -60
s57 -91.333 57 -154c0 -70 -22.667 -125.833 -68 -167.5s-98 -62.5 -158 -62.5c-76 0 -136.667 25 -182 75s-68 111.333 -68 184zM166.999 247.001c0 -41.333 11.332 -75.5 33.999 -102.5s54.334 -40.5 95.001 -40.5c30.667 0 55.5 10.5 74.5 31.5s28.5 46.167 28.5 75.5
c0 33.333 -9.83301 60.833 -29.5 82.5s-47.5 32.5 -83.5 32.5c-28.667 0 -53 -7.66699 -73 -23s-35.333 -34 -46 -56z" />
    <glyph glyph-name="seven" unicode="7" horiz-adv-x="497" 
d="M25 585v115h440v-77l-248 -623h-126l236 585h-302z" />
    <glyph glyph-name="eight" unicode="8" horiz-adv-x="600" 
d="M291 417h19.001c26 0 47.5 9 64.5 27s25.5 39 25.5 63c0 28 -9.33301 49.833 -28 65.5s-43.334 23.5 -74.001 23.5c-30 0 -54 -8.33301 -72 -25s-27 -38 -27 -64c0 -24 8.66699 -45 26 -63s39.333 -27 66 -27zM310.001 302l-17 0.00292969
c-30.667 0 -57.167 -9 -79.5 -27s-33.5 -42 -33.5 -72c0 -28.667 10.667 -52.334 32 -71.001s50.333 -28 87 -28c40 0 70.333 9.16699 91 27.5s30.667 42.166 30 71.499c-0.666992 31.333 -11.167 55.666 -31.5 72.999s-46.5 26 -78.5 26zM300.001 -10.9971
c-70 0 -128.001 17.501 -174.001 52.501s-69 81.5 -69 139.5c0 43.333 11.167 80.666 33.5 111.999s51.166 53 86.499 65v3c-28.667 12 -52.5 32.833 -71.5 62.5s-28.5 64.167 -28.5 103.5c0 54 21.333 98.167 64 132.5s95.334 51.5 158.001 51.5
c63.333 0 116.5 -17.167 159.5 -51.5s64.5 -78.5 64.5 -132.5c0 -34.667 -9.66699 -67.334 -29 -98.001s-45.666 -53 -78.999 -67v-3c36 -7.33301 66.167 -26.166 90.5 -56.499s36.5 -67.5 36.5 -111.5c0 -62.667 -22.833 -112 -68.5 -148s-103.5 -54 -173.5 -54z" />
    <glyph glyph-name="nine" unicode="9" horiz-adv-x="555" 
d="M510 444c0 -130 -33.833 -235.167 -101.5 -315.5s-153.5 -126.833 -257.5 -139.5l-38 91c145.333 29.333 232.333 110.666 261 243.999c-30.667 -42 -75 -63 -133 -63c-59.333 0 -109.333 20.667 -150 62s-61 93 -61 155c0 70 23.667 126.333 71 169s101 64 161 64
c76.667 0 137.167 -24.667 181.5 -74s66.5 -113.666 66.5 -192.999zM388 445c0 42.667 -10.999 78.5 -32.999 107.5s-53 43.5 -93 43.5c-31.333 0 -57.5 -11 -78.5 -33s-31.5 -47.667 -31.5 -77c0 -32 10.667 -59.5 32 -82.5s49.666 -34.5 84.999 -34.5
c55.333 0 95 25.333 119 76z" />
    <glyph glyph-name="colon" unicode=":" horiz-adv-x="318" 
d="M82 387c0 18.667 7.33301 35.667 22 51s34 23 58 23c20.667 0 38 -7.66699 52 -23s21 -32.333 21 -51c0 -21.333 -7 -40 -21 -56s-31.333 -24 -52 -24c-24 0 -43.333 8 -58 24s-22 34.667 -22 56zM82 75c0 18.667 7.33301 35.667 22 51s34 23 58 23
c20.667 0 38 -7.66699 52 -23s21 -32.333 21 -51c0 -21.333 -7 -40 -21 -56s-31.333 -24 -52 -24c-24 0 -43.333 8 -58 24s-22 34.667 -22 56z" />
    <glyph glyph-name="semicolon" unicode=";" horiz-adv-x="324" 
d="M82 387c0 18.667 7.33301 35.667 22 51s34 23 58 23c20.667 0 38 -7.66699 52 -23s21 -32.333 21 -51c0 -21.333 -7 -40 -21 -56s-31.333 -24 -52 -24c-24 0 -43.333 8 -58 24s-22 34.667 -22 56zM83 64c0 21.333 6.83301 38.832 20.5 52.499s32.5 20.5 56.5 20.5
c26.667 0 48 -10.5 64 -31.5s24 -47.833 24 -80.5c0 -42 -11.167 -78 -33.5 -108s-53.5 -50.667 -93.5 -62l-31 54c29.333 10.667 49.666 28.334 60.999 53.001c10 20.667 13 36 9 46c-4 -5.33301 -12.667 -8 -26 -8s-25.166 6.16699 -35.499 18.5s-15.5 27.5 -15.5 45.5z
" />
    <glyph glyph-name="less" unicode="&#x3c;" 
d="M513 66l-464 271v49l464 269v-124l-306 -169l306 -171v-125z" />
    <glyph glyph-name="equal" unicode="=" 
d="M66 405v100h464v-100h-464zM66 215v100h464v-100h-464z" />
    <glyph glyph-name="greater" unicode="&#x3e;" 
d="M547 337l-465 -271v125l307 171l-307 169v124l465 -269v-49z" />
    <glyph glyph-name="question" unicode="?" horiz-adv-x="473" 
d="M325 510c0 24 -9.00098 44.3291 -27.001 60.9961s-40.333 25 -67 25c-49.333 0 -90.333 -21.333 -123 -64l-68 77c18.667 30 45.5 54.5 80.5 73.5s74.167 28.5 117.5 28.5c64.667 0 115.834 -16.833 153.501 -50.5s56.5 -75.5 56.5 -125.5
c0 -30.667 -5 -58.334 -15 -83.001s-22.333 -44.167 -37 -58.5s-30.167 -28.666 -46.5 -42.999l-45 -38c-13.667 -11 -24.167 -24.667 -31.5 -41s-9.33301 -34.166 -6 -53.499l-105 -1c-5.33301 32.667 -3.5 60.834 5.5 84.501s22.167 42.834 39.5 57.501
s34.833 28.334 52.5 41.001s33 28.167 46 46.5s19.5 39.5 19.5 63.5zM139.999 74.9961c0 18.667 7.33301 35.667 22 51s33.667 23 57 23c21.333 0 39 -7.66699 53 -23s21 -32.333 21 -51c0 -21.333 -7 -40 -21 -56s-31.667 -24 -53 -24c-23.333 0 -42.333 8 -57 24
s-22 34.667 -22 56z" />
    <glyph glyph-name="at" unicode="@" horiz-adv-x="996" 
d="M599 0l-0.000976562 36.001c-33.333 -31.333 -74.666 -47 -123.999 -47c-67.333 0 -121 21.667 -161 65s-60 100.333 -60 171c0 66.667 24.333 122.667 73 168s110.334 68 185.001 68c77.333 0 144.666 -18 201.999 -54v-300h20c28 0 51.167 15.167 69.5 45.5
s27.5 70.5 27.5 120.5c0 80 -29.5 147.5 -88.5 202.5s-137.167 82.5 -234.5 82.5s-178.833 -30.333 -244.5 -91s-98.5 -141.334 -98.5 -242.001c0 -96 33.167 -175.5 99.5 -238.5s147.5 -94.5 243.5 -94.5c38 0 74 4 108 12l5 -107c-39.333 -8.66699 -77 -13 -113 -13
c-130 0 -237.667 41.5 -323 124.5s-128 188.5 -128 316.5c0 124 43 228.333 129 313s193.333 127 322 127c124 0 226.667 -36.167 308 -108.5s122 -166.833 122 -283.5c0 -72.667 -19.833 -135.667 -59.5 -189s-94.5 -81.333 -164.5 -84h-115zM495.999 96.001
c40 0 74.333 15.667 103 47v188c-30.667 14.667 -60 22 -88 22c-42 0 -74.833 -12.833 -98.5 -38.5s-35.5 -57.167 -35.5 -94.5c0 -38.667 10.833 -69 32.5 -91s50.5 -33 86.5 -33z" />
    <glyph glyph-name="A" unicode="A" horiz-adv-x="715" 
d="M7 0l296 702h108l296 -702h-131l-73 179h-299l-73 -179h-124zM354 543l-103 -249h205z" />
    <glyph glyph-name="B" unicode="B" horiz-adv-x="617" 
d="M97 1v696.998c65.333 3.33301 132.666 5 201.999 5c79.333 0 137.5 -15.833 174.5 -47.5s55.5 -73.5 55.5 -125.5c0 -74.667 -33.333 -127.667 -100 -159v-2c36.667 -9.33301 66.334 -27.666 89.001 -54.999s34 -63.333 34 -108
c0 -69.333 -23.833 -121.666 -71.5 -156.999s-110.5 -53 -188.5 -53c-84.667 0 -149.667 1.66699 -195 5zM307 300.998h-87v-185c28 -3.33301 55 -5 81 -5c85.333 0 128 33.667 128 101c0 29.333 -10.667 51.5 -32 66.5s-51.333 22.5 -90 22.5zM297 587.998
c-29.333 0 -55 -1.00098 -77 -3.00098v-177h83c30.667 0 55.667 7.83301 75 23.5s29 38.834 29 69.501c0 28 -9.83301 49.5 -29.5 64.5s-46.5 22.5 -80.5 22.5z" />
    <glyph glyph-name="C" unicode="C" horiz-adv-x="655" 
d="M583 160l47 -91.998c-22 -23.333 -53.5 -42.333 -94.5 -57s-84.167 -22 -129.5 -22c-107.333 0 -194.333 33 -261 99s-100 153.333 -100 262c0 104.667 31.667 191 95 259s151 102 263 102c90 0 161 -23.667 213 -71l-55 -91c-47.333 31.333 -100 47 -158 47
c-66 0 -120.5 -22.333 -163.5 -67s-64.5 -104.334 -64.5 -179.001c0 -72.667 22.5 -131.834 67.5 -177.501s103.167 -68.5 174.5 -68.5c62 0 117.333 18.667 166 56z" />
    <glyph glyph-name="D" unicode="D" horiz-adv-x="741" 
d="M97 0v700h13c13.333 0 44.333 0.5 93 1.5s82 1.5 100 1.5c68 0 127.667 -9.16699 179 -27.5s92.333 -43.833 123 -76.5s53.5 -69.167 68.5 -109.5s22.5 -84.5 22.5 -132.5c0 -104 -34.833 -189.833 -104.5 -257.5s-168.5 -101.5 -296.5 -101.5
c-12 0 -39.833 0.333008 -83.5 1s-77.167 1 -100.5 1h-14zM301 588c-26 0 -52.999 -0.999023 -80.999 -2.99902v-470c22.667 -1.33301 49 -2 79 -2c83.333 0 148.666 22 195.999 66s71 103.333 71 178c0 71.333 -23.5 127.666 -70.5 168.999s-111.833 62 -194.5 62z" />
    <glyph glyph-name="E" unicode="E" horiz-adv-x="575" 
d="M97 0v700h405v-115h-282v-174h252v-115h-252v-181h292v-115h-415z" />
    <glyph glyph-name="F" unicode="F" horiz-adv-x="537" 
d="M97 0v700h400v-115h-277v-198h247v-115h-247v-272h-123z" />
    <glyph glyph-name="G" unicode="G" horiz-adv-x="727" 
d="M388 262l0.00195312 114.999h284v-290c-30 -30 -69.833 -53.833 -119.5 -71.5s-97.167 -26.5 -142.5 -26.5c-113.333 0 -202.5 32.667 -267.5 98s-97.5 153 -97.5 263c0 102.667 32 188.5 96 257.5s148.333 103.5 253 103.5c90 0 165 -23.667 225 -71l-52 -98
c-17.333 16.667 -40.333 29.834 -69 39.501s-58.334 14.5 -89.001 14.5c-69.333 0 -125.666 -21.833 -168.999 -65.5s-65 -103.834 -65 -180.501c0 -74 21.667 -133.5 65 -178.5s100.666 -67.5 171.999 -67.5c26.667 0 54.167 4.83301 82.5 14.5
s49.166 20.834 62.499 33.501v110h-169z" />
    <glyph glyph-name="H" unicode="H" horiz-adv-x="759" 
d="M540 0v299h-320v-299h-123v700h123v-286h320v286h122v-700h-122z" />
    <glyph glyph-name="I" unicode="I" horiz-adv-x="347" 
d="M112 0v700h123v-700h-123z" />
    <glyph glyph-name="J" unicode="J" horiz-adv-x="390" 
d="M293 700v-535c0 -56.667 -14.167 -100.167 -42.5 -130.5s-70.5 -45.5 -126.5 -45.5c-25.333 0 -49 4.33301 -71 13s-38 18.667 -48 30l40 94c19.333 -14.667 40 -22 62 -22c42 0 63 27.333 63 82v514h123z" />
    <glyph glyph-name="K" unicode="K" horiz-adv-x="672" 
d="M97 0v700h123v-332l276 332h148l-288 -326l306 -374h-156l-286 361v-361h-123z" />
    <glyph glyph-name="L" unicode="L" horiz-adv-x="547" 
d="M97 0v700h123v-585h315v-115h-438z" />
    <glyph glyph-name="M" unicode="M" horiz-adv-x="901" 
d="M97 0v700h124l239 -327l228 327h116v-700h-122v506l-221 -311h-18l-223 308v-503h-123z" />
    <glyph glyph-name="N" unicode="N" horiz-adv-x="792" 
d="M695 0h-98l-385 485v-485h-115v700h98l385 -487v487h115v-700z" />
    <glyph glyph-name="O" unicode="O" horiz-adv-x="819" 
d="M45 350c0 102.667 34.167 188.5 102.5 257.5s155.5 103.5 261.5 103.5c105.333 0 192.5 -33.333 261.5 -100s103.5 -153.667 103.5 -261c0 -104.667 -34.667 -191 -104 -259s-156.333 -102 -261 -102c-105.333 0 -192.333 33.333 -261 100s-103 153.667 -103 261z
M175 350c0 -70 22.499 -128.501 67.499 -175.501s100.5 -70.5 166.5 -70.5c72 0 129.167 23.333 171.5 70s63.5 105.334 63.5 176.001c0 72 -22.5 131 -67.5 177s-100.833 69 -167.5 69c-67.333 0 -123.166 -23 -167.499 -69s-66.5 -105 -66.5 -177z" />
    <glyph glyph-name="P" unicode="P" horiz-adv-x="612" 
d="M220 0l-122.999 0.00195312v700c12 0 43.833 0.333008 95.5 1s86.167 1 103.5 1c49.333 0 92.166 -6.16699 128.499 -18.5s64.5 -29.333 84.5 -51s34.667 -45.334 44 -71.001s14 -53.834 14 -84.501c0 -63.333 -22.667 -117 -68 -161s-108 -66 -188 -66
c-40.667 0 -71 1 -91 3v-253zM308.001 587.002c-14.667 0 -44 -0.666992 -88 -2v-215c32 -3.33301 61 -5 87 -5c38.667 0 70 9.5 94 28.5s36 47.167 36 84.5c0 72.667 -43 109 -129 109z" />
    <glyph glyph-name="Q" unicode="Q" horiz-adv-x="819" 
d="M45 350c0 102.667 34.167 188.499 102.5 257.499s155.5 103.5 261.5 103.5c105.333 0 192.5 -33.333 261.5 -100s103.5 -153.667 103.5 -261c0 -99.333 -32 -182.666 -96 -249.999l86 -100h-143l-29 33c-53.333 -29.333 -114.333 -44 -183 -44
c-105.333 0 -192.333 33.333 -261 100s-103 153.667 -103 261zM175 349.999c0 -70 22.499 -128.5 67.499 -175.5s100.5 -70.5 166.5 -70.5c37.333 0 72.333 7.33301 105 22l-59 69l80 72l62 -73c31.333 44 47 96 47 156c0 72 -22.5 131 -67.5 177s-100.833 69 -167.5 69
c-67.333 0 -123.166 -23 -167.499 -69s-66.5 -105 -66.5 -177z" />
    <glyph glyph-name="R" unicode="R" horiz-adv-x="658" 
d="M220 0h-123.001v700c14.667 0 52.5 0.333008 113.5 1s94.167 1 99.5 1c169.333 0 254 -72 254 -216c0 -54 -13.667 -97.833 -41 -131.5s-58.666 -56.5 -93.999 -68.5l219 -286h-149l-193 262h-86v-262zM303.999 587c-12 0 -40 -0.666992 -84 -2v-208h80
c38 0 69.833 9.5 95.5 28.5s38.5 45.5 38.5 79.5c0 68 -43.333 102 -130 102z" />
    <glyph glyph-name="S" unicode="S" horiz-adv-x="553" 
d="M378 186c0 18.667 -5.83008 35.1689 -17.4971 49.502s-26.834 26.666 -45.501 36.999s-39.167 20.333 -61.5 30s-44.833 20.667 -67.5 33s-43.334 26 -62.001 41s-33.834 34.667 -45.501 59s-17.5 51.833 -17.5 82.5c0 54.667 19.833 100.5 59.5 137.5
s92.5 55.5 158.5 55.5c88 0 154.667 -25 200 -75l-66 -92c-36 34.667 -77.333 52 -124 52c-30 0 -53.833 -7 -71.5 -21s-26.5 -32.667 -26.5 -56c0 -22.667 7.83301 -42.334 23.5 -59.001s35.167 -29.834 58.5 -39.501s48.833 -21.167 76.5 -34.5
s53.167 -27.166 76.5 -41.499s42.833 -35 58.5 -62s23.5 -58.833 23.5 -95.5c0 -58 -22.333 -105.5 -67 -142.5s-100.334 -55.5 -167.001 -55.5c-48 0 -94.167 9.83301 -138.5 29.5s-74.5 46.5 -90.5 80.5l70 84c19.333 -25.333 43.833 -44.833 73.5 -58.5
s58.834 -20.5 87.501 -20.5c30 0 54.5 7.16699 73.5 21.5s28.5 34.5 28.5 60.5z" />
    <glyph glyph-name="T" unicode="T" horiz-adv-x="597" 
d="M10 585v115h577v-115h-227v-585h-123v585h-227z" />
    <glyph glyph-name="U" unicode="U" horiz-adv-x="751" 
d="M663 700v-410c0 -100.667 -26.333 -176 -79 -226s-119 -75 -199 -75c-90 0 -162.167 26.5 -216.5 79.5s-81.5 129.167 -81.5 228.5v403h123v-377c0 -68 14.5 -121.5 43.5 -160.5s72.833 -58.5 131.5 -58.5c104 0 156 70.333 156 211v385h122z" />
    <glyph glyph-name="V" unicode="V" horiz-adv-x="656" 
d="M658 700l-280 -702h-93l-288 702h131l208 -519l199 519h123z" />
    <glyph glyph-name="W" unicode="W" horiz-adv-x="985" 
d="M980 700l-200 -700h-115l-169 506l-166 -506h-116l-209 700h138l141 -499l156 499h122l160 -500l140 500h118z" />
    <glyph glyph-name="X" unicode="X" horiz-adv-x="669" 
d="M650 700l-236 -343l245 -357h-144l-181 263l-180 -263h-144l245 357l-234 343h144l172 -253l169 253h144z" />
    <glyph glyph-name="Y" unicode="Y" horiz-adv-x="629" 
d="M624 700l-249 -408v-292h-123v292l-247 408h140l174 -293l172 293h133z" />
    <glyph glyph-name="Z" unicode="Z" horiz-adv-x="642" 
d="M60 585v115h532v-85l-388 -500h398v-115h-562v84l387 501h-367z" />
    <glyph glyph-name="bracketleft" unicode="[" horiz-adv-x="350" 
d="M60 -200v850h275v-108h-160v-635h160v-107h-275z" />
    <glyph glyph-name="backslash" unicode="\" horiz-adv-x="359" 
d="M58 711l331 -886l-90 -33l-329 886z" />
    <glyph glyph-name="bracketright" unicode="]" horiz-adv-x="350" 
d="M290 650v-850h-275v107h160v635h-160v108h275z" />
    <glyph glyph-name="asciicircum" unicode="^" horiz-adv-x="507" 
d="M30 450l185 258h79l183 -258h-125l-98 143l-100 -143h-124z" />
    <glyph glyph-name="underscore" unicode="_" horiz-adv-x="344" 
d="M0 -200v115h344v-115h-344z" />
    <glyph glyph-name="grave" unicode="`" horiz-adv-x="315" 
d="M187 517l-127 143l91 68l104 -163z" />
    <glyph glyph-name="a" unicode="a" horiz-adv-x="463" 
d="M99 334l-29.001 83.999c48.667 28.667 101.667 43 159 43c64 0 110 -15.667 138 -47s42 -78 42 -140v-274h-100v52c-27.333 -38.667 -71.666 -58 -132.999 -58c-42 0 -76 12.333 -102 37s-39 58.334 -39 101.001c0 47.333 15.333 83.5 46 108.5s70 37.5 118 37.5
c41.333 0 75.333 -9.66699 102 -29c1.33301 39.333 -4.33398 68.5 -17.001 87.5s-35 28.5 -67 28.5c-33.333 0 -72.666 -10.333 -117.999 -31zM213.999 90.999c38.667 0 67.667 13.667 87 41v46c-19.333 14.667 -45.666 22 -78.999 22
c-20.667 0 -37.834 -4.83301 -51.501 -14.5s-20.5 -23.5 -20.5 -41.5c0 -16.667 6 -29.667 18 -39s27.333 -14 46 -14z" />
    <glyph glyph-name="b" unicode="b" horiz-adv-x="548" 
d="M64 39v661h115v-278c33.333 26 73 39 119 39c66 0 118.167 -21.167 156.5 -63.5s57.5 -97.5 57.5 -165.5c0 -74 -23.167 -133 -69.5 -177s-108.833 -66 -187.5 -66c-35.333 0 -70.5 4.83301 -105.5 14.5s-63.5 21.5 -85.5 35.5zM271 353
c-36.667 0 -67.333 -14.332 -92 -42.999v-191c24 -15.333 51.333 -23 82 -23c37.333 0 68 11.5 92 34.5s36 54.167 36 93.5c0 41.333 -11.167 73.166 -33.5 95.499s-50.5 33.5 -84.5 33.5z" />
    <glyph glyph-name="c" unicode="c" horiz-adv-x="487" 
d="M405 151l54.001 -84c-18.667 -25.333 -43.834 -44.666 -75.501 -57.999s-66.167 -20 -103.5 -20c-73.333 0 -132.333 21.667 -177 65s-67 100.333 -67 171c0 66.667 22 122.667 66 168s99.667 68 167 68c80 0 140.333 -20.333 181 -61l-54 -91
c-30 29.333 -67.333 44 -112 44c-33.333 0 -62.5 -11.833 -87.5 -35.5s-37.5 -54.5 -37.5 -92.5c0 -38.667 12.833 -69.834 38.5 -93.501s56.167 -35.5 91.5 -35.5c44 0 82.667 18.333 116 55z" />
    <glyph glyph-name="d" unicode="d" horiz-adv-x="556" 
d="M377 0v46.999c-34.667 -36.667 -77.667 -55 -129 -55c-64 0 -115.333 20.833 -154 62.5s-58 96.834 -58 165.501c0 70.667 23 128.5 69 173.5s105.333 67.5 178 67.5c38 0 69.333 -7.33301 94 -22v261h115v-700h-115zM272 98.999c39.333 0 74.334 15.333 105.001 46v181
c-28.667 18 -58.334 27 -89.001 27c-36 0 -66.5 -11.5 -91.5 -34.5s-37.5 -54.5 -37.5 -94.5c0 -38.667 10.833 -69.167 32.5 -91.5s48.5 -33.5 80.5 -33.5z" />
    <glyph glyph-name="e" unicode="e" horiz-adv-x="516" 
d="M417 126l33 -81.001c-44 -37.333 -101.333 -56 -172 -56c-72.667 0 -131.167 21.667 -175.5 65s-66.5 100.333 -66.5 171c0 67.333 21.667 123.5 65 168.5s101 67.5 173 67.5c59.333 0 109.666 -19.5 150.999 -58.5s62 -89.167 62 -150.5c0 -25.333 -2.33301 -46 -7 -62
h-325c4.66699 -33.333 19.334 -59.166 44.001 -77.499s55 -27.5 91 -27.5c50.667 0 93 13.667 127 41zM269 364.999c-65.333 0 -104.667 -32.667 -118 -98h221c0.666992 28 -8.33301 51.333 -27 70s-44 28 -76 28z" />
    <glyph glyph-name="f" unicode="f" horiz-adv-x="325" 
d="M69 0v523c0 61.333 14 108 42 140s67.333 48 118 48c57.333 0 99.333 -14 126 -42l-39 -88c-14.667 14.667 -36.667 22 -66 22c-44 0 -66 -29.667 -66 -89v-64h122v-108h-122v-342h-115z" />
    <glyph glyph-name="g" unicode="g" horiz-adv-x="499" 
d="M5 -61c0 36 13.1689 65.8369 39.502 89.5039s61.833 40.167 106.5 49.5c-5.33301 9.33301 -8 19.666 -8 30.999c0 12.667 3.33301 23.334 10 32.001c-33.333 13.333 -59.5 33.5 -78.5 60.5s-28.5 57.167 -28.5 90.5c0 46.667 17.667 86.5 53 119.5
s81.666 49.5 138.999 49.5c43.333 0 81.666 -10.667 114.999 -32l136 30l4 -92l-75 -17c7.33301 -18.667 11 -38 11 -58c0 -46 -17.667 -85.167 -53 -117.5s-81.333 -48.5 -138 -48.5h-8c-1.33301 -4 -2 -9.66699 -2 -17c0 -8.66699 2 -16.334 6 -23.001h5
c69.333 0 125.666 -12.333 168.999 -37s65 -61.334 65 -110.001s-21.667 -85.334 -65 -110.001s-99.666 -37 -168.999 -37c-70 0 -126.5 12.167 -169.5 36.5s-64.5 61.166 -64.5 110.499zM112.002 -60.9961c0 -17.333 11.334 -30.833 34.001 -40.5s53.667 -14.5 93 -14.5
c84 0 126 18.333 126 55c0 16.667 -10.833 30 -32.5 40s-52.834 15 -93.501 15c-40 0 -71.167 -5 -93.5 -15s-33.5 -23.333 -33.5 -40zM154.003 292.004c0 -21.333 7.66602 -38.833 22.999 -52.5s35.666 -20.5 60.999 -20.5c24.667 0 44.834 6.66699 60.501 20
s23.5 31 23.5 53s-7.5 40.167 -22.5 54.5s-35.5 21.5 -61.5 21.5c-25.333 0 -45.666 -7.33301 -60.999 -22s-23 -32.667 -23 -54z" />
    <glyph glyph-name="h" unicode="h" horiz-adv-x="546" 
d="M64 0v700h115v-291c34 32.667 77 49 129 49c58 0 103.333 -15.833 136 -47.5s49 -81.5 49 -149.5v-261h-115v246c0 33.333 -8.66699 59 -26 77s-42 27 -74 27c-38.667 0 -71.667 -13.667 -99 -41v-309h-115z" />
    <glyph glyph-name="i" unicode="i" horiz-adv-x="277" 
d="M81 0v450h115v-450h-115zM69 612c0 20 7.00098 36.167 21.001 48.5s31 18.5 51 18.5c17.333 0 32.666 -6.16699 45.999 -18.5s20 -28.5 20 -48.5c0 -22 -6.66699 -39.5 -20 -52.5s-28.666 -19.5 -45.999 -19.5c-20.667 0 -37.834 6.5 -51.501 19.5s-20.5 30.5 -20.5 52.5
z" />
    <glyph glyph-name="j" unicode="j" horiz-adv-x="284" 
d="M202 450v-483c0 -116.667 -47 -175 -141 -175c-49.333 0 -86 10.667 -110 32l31 91c17.333 -10.667 34.333 -16 51 -16c36 0 54 26 54 78v473h115zM76 612c0 20 7.00098 36.167 21.001 48.5s31 18.5 51 18.5c17.333 0 32.666 -6.16699 45.999 -18.5s20 -28.5 20 -48.5
c0 -22 -6.66699 -39.5 -20 -52.5s-28.666 -19.5 -45.999 -19.5c-20.667 0 -37.834 6.5 -51.501 19.5s-20.5 30.5 -20.5 52.5z" />
    <glyph glyph-name="k" unicode="k" horiz-adv-x="514" 
d="M487 450l-169 -206l189 -244h-148l-178 235l161 215h145zM64 0v700h115v-700h-115z" />
    <glyph glyph-name="l" unicode="l" horiz-adv-x="299" 
d="M64 124l-0.000976562 576h115v-529c0 -48.667 13 -73 39 -73c14.667 0 30.334 6 47.001 18l24 -88c-31.333 -25.333 -71 -38 -119 -38c-70.667 0 -106 44.667 -106 134z" />
    <glyph glyph-name="m" unicode="m" horiz-adv-x="800" 
d="M747 294l-0.00292969 -294.002h-115v264c0 57.333 -25.667 86 -77 86c-44 0 -75 -17.333 -93 -52c0 -2 0.166992 -7.16699 0.5 -15.5s0.5 -14.166 0.5 -17.499v-265h-115v272c0 24 -6.5 43 -19.5 57s-31.5 21 -55.5 21c-41.333 0 -72.666 -16 -93.999 -48v-302h-115v450
h115v-50c34.667 38.667 81.667 58 141 58c33.333 0 61.333 -6.66699 84 -20s38.334 -30.666 47.001 -51.999c36.667 48 87.334 72 152.001 72c96 0 144 -54.667 144 -164z" />
    <glyph glyph-name="n" unicode="n" horiz-adv-x="546" 
d="M64 0l0.000976562 450h115v-45c32.667 35.333 75.667 53 129 53c123.333 0 185 -64.667 185 -194v-264h-115v244c0 70.667 -33.667 106 -101 106c-36.667 0 -69.334 -14.333 -98.001 -43v-307h-115z" />
    <glyph glyph-name="o" unicode="o" horiz-adv-x="562" 
d="M36 225c0 68.667 22.5 125.167 67.5 169.5s104.167 66.5 177.5 66.5s132.5 -22.167 177.5 -66.5s67.5 -100.833 67.5 -169.5s-22.5 -125.167 -67.5 -169.5s-104.167 -66.5 -177.5 -66.5s-132.5 22.167 -177.5 66.5s-67.5 100.833 -67.5 169.5zM159 225
c0 -37.333 11.499 -68.168 34.499 -92.501s52.167 -36.5 87.5 -36.5c36 0 65.5 11.833 88.5 35.5s34.5 54.834 34.5 93.501c0 37.333 -11.667 68 -35 92s-52.666 36 -87.999 36c-34.667 0 -63.667 -11.833 -87 -35.5s-35 -54.5 -35 -92.5z" />
    <glyph glyph-name="p" unicode="p" horiz-adv-x="558" 
d="M64 -200l0.000976562 650.001h115v-43c14.667 15.333 34.5 28.166 59.5 38.499s51.5 15.5 79.5 15.5c61.333 0 110.666 -21.333 147.999 -64s56 -97.667 56 -165c0 -70 -22 -128 -66 -174s-101.333 -69 -172 -69c-44.667 0 -79.667 7.33301 -105 22v-211h-115z
M282.001 353.001c-39.333 0 -73.6689 -16.333 -103.002 -49v-182c26.667 -17.333 58.334 -26 95.001 -26c38.667 0 69.334 12.5 92.001 37.5s34 56.833 34 95.5c0 36.667 -10.333 66.5 -31 89.5s-49.667 34.5 -87 34.5z" />
    <glyph glyph-name="q" unicode="q" horiz-adv-x="559" 
d="M381 -200l-0.000976562 223c-35.333 -22.667 -72.333 -34 -111 -34c-71.333 0 -128.166 21.5 -170.499 64.5s-63.5 100.167 -63.5 171.5c0 66.667 24.333 122.667 73 168s110.334 68 185.001 68c77.333 0 144.666 -18 201.999 -54v-607h-115zM284.999 96
c38.667 0 70.667 13.667 96 41v194c-30.667 14.667 -60 22 -88 22c-42 0 -74.833 -12.833 -98.5 -38.5s-35.5 -57.167 -35.5 -94.5c0 -36 11.5 -65.667 34.5 -89s53.5 -35 91.5 -35z" />
    <glyph glyph-name="r" unicode="r" horiz-adv-x="354" 
d="M64 0l0.000976562 450h115v-44c25.333 34.667 59.666 52 102.999 52c31.333 0 54.666 -5.66699 69.999 -17l-41 -108c-19.333 11.333 -38.666 17 -57.999 17c-33.333 0 -58 -16 -74 -48v-302h-115z" />
    <glyph glyph-name="s" unicode="s" horiz-adv-x="444" 
d="M292 127c0 13.333 -8.33203 24.1709 -24.999 32.5039s-36.834 15.666 -60.501 21.999s-47.5 14 -71.5 23s-44.333 23.5 -61 43.5s-25 45.333 -25 76c0 42.667 15.5 76.167 46.5 100.5s70.5 36.5 118.5 36.5c73.333 0 130.333 -19 171 -57l-43 -82
c-36.667 28.667 -77.334 43 -122.001 43c-16.667 0 -30.167 -3.83301 -40.5 -11.5s-15.5 -16.834 -15.5 -27.501c0 -13.333 8.33301 -24.333 25 -33s36.834 -16 60.501 -22s47.5 -13.333 71.5 -22s44.333 -22.834 61 -42.501s25 -44.167 25 -73.5
c0 -44 -16.5 -79 -49.5 -105s-77.167 -39 -132.5 -39c-38.667 0 -76.834 8.33301 -114.501 25s-62.167 34 -73.5 52l56 75c13.333 -14.667 34.333 -27.667 63 -39s54.334 -17 77.001 -17c17.333 0 31.5 3.66699 42.5 11s16.5 17.666 16.5 30.999z" />
    <glyph glyph-name="t" unicode="t" horiz-adv-x="360" 
d="M54 171v404h115v-125h145v-108h-145v-164c0 -54 18 -81 54 -81c22.667 0 45.667 8.66699 69 26l35 -89c-36 -29.333 -80.333 -44 -133 -44c-49.333 0 -85 15.167 -107 45.5s-33 75.5 -33 135.5z" />
    <glyph glyph-name="u" unicode="u" horiz-adv-x="535" 
d="M471 450v-449.999h-115v55c-36 -44 -84 -66 -144 -66c-46.667 0 -84.667 15.667 -114 47s-44 77.666 -44 138.999v275h115v-251c0 -68.667 28.667 -103 86 -103c39.333 0 73 18.333 101 55v299h115z" />
    <glyph glyph-name="v" unicode="v" horiz-adv-x="481" 
d="M483 450l-194 -452h-85l-207 452h137l83 -193c14.667 -32.667 26 -66.667 34 -102c8.66699 37.333 19.667 72 33 104l78 191h121z" />
    <glyph glyph-name="w" unicode="w" horiz-adv-x="721" 
d="M716 450l-142.002 -452.001h-103l-96 250c-2.66699 6.66699 -5.66699 16.667 -9 30s-5.33301 21 -6 23c-4 -19.333 -9.33301 -37.666 -16 -54.999l-95 -248h-98l-146 452h123l72 -245c2.66699 -8 7 -28 13 -60c8 31.333 13.667 51.333 17 60l84 245h102l87 -244
c4.66699 -13.333 10.334 -34 17.001 -62c2.66699 14 7.33398 35.667 14.001 65l66 241h116z" />
    <glyph glyph-name="x" unicode="x" horiz-adv-x="522" 
d="M494 450l-150 -215l160 -235h-140l-105 162l-109 -162h-133l160 229l-150 221h141l95 -149l98 149h133z" />
    <glyph glyph-name="y" unicode="y" horiz-adv-x="503" 
d="M498 450l-176.999 -450c-32 -78 -60.5 -130.833 -85.5 -158.5s-54.5 -41.5 -88.5 -41.5c-32.667 0 -65 11.667 -97 35l37 87c18 -10.667 33.667 -16 47 -16c27.333 0 50.333 23.333 69 70l10 24l-208 450h138l105 -246c4 -10 11.333 -31.667 22 -65
c5.33301 29.333 10.666 51.333 15.999 66l81 245h131z" />
    <glyph glyph-name="z" unicode="z" horiz-adv-x="490" 
d="M57 342v108h390v-83l-244 -260h239v-107h-400v83l244 259h-229z" />
    <glyph glyph-name="braceleft" unicode="{" horiz-adv-x="362" 
d="M110 -54l0.00195312 130.998c0 36 -9 61.5 -27 76.5s-39 22.167 -63 21.5v100c23.333 0 44.166 8.33301 62.499 25s27.5 45 27.5 85v112c0 52.667 12 91.334 36 116.001s64.333 37 121 37h75v-108h-46c-26.667 0 -45.167 -6 -55.5 -18s-15.5 -34.333 -15.5 -67v-117
c0 -32 -6.83301 -58.167 -20.5 -78.5s-31.834 -32.166 -54.501 -35.499c50 -6 75 -44 75 -114v-119c0 -30.667 5.83301 -52.667 17.5 -66s31.5 -20 59.5 -20h40v-107h-82c-50 0 -87.5 11.333 -112.5 34s-37.5 60 -37.5 112z" />
    <glyph glyph-name="bar" unicode="|" horiz-adv-x="340" 
d="M112 0v700h115v-700h-115z" />
    <glyph glyph-name="braceright" unicode="}" horiz-adv-x="362" 
d="M252 77l0.00195312 -130.998c0 -52 -12.5 -89.333 -37.5 -112s-62.167 -34 -111.5 -34h-83v107h40c28 0 47.833 6.66699 59.5 20s17.5 35.333 17.5 66v119c0 70 25 108 75 114c-22.667 3.33301 -40.834 15.166 -54.501 35.499s-20.5 46.5 -20.5 78.5v117
c0 32.667 -5.16699 55 -15.5 67s-28.833 18 -55.5 18h-46v108h75c57.333 0 97.833 -12.333 121.5 -37s35.5 -63.334 35.5 -116.001v-112c0 -40 9.16699 -68.333 27.5 -85s39.166 -25 62.499 -25v-100c-24 0.666992 -45 -6.5 -63 -21.5s-27 -40.5 -27 -76.5z" />
    <glyph glyph-name="asciitilde" unicode="~" 
d="M92 288l-50 74c46.667 53.333 95.334 80 146.001 80c28 0 67.333 -11.333 118 -34s89 -34 115 -34c32 0 61.333 15 88 45l45 -79c-46.667 -44 -91.334 -66 -134.001 -66c-27.333 0 -66 11.333 -116 34s-86.333 34 -109 34c-32.667 0 -67 -18 -103 -54z" />
    <glyph glyph-name="uni00A0" unicode="&#xa0;" horiz-adv-x="212" 
 />
    <glyph glyph-name="exclamdown" unicode="&#xa1;" horiz-adv-x="310" 
d="M216 214v-458h-122v458h122zM232 381c0 -18.667 -7.33301 -35.667 -22 -51s-34 -23 -58 -23c-20.667 0 -38 7.66699 -52 23s-21 32.333 -21 51c0 21.333 7 40 21 56s31.333 24 52 24c24 0 43.333 -8 58 -24s22 -34.667 22 -56z" />
    <glyph glyph-name="cent" unicode="&#xa2;" 
d="M456 151l54 -83.998c-30 -39.333 -74 -64 -132 -74v-113h-115v117c-54.667 12 -97.667 38.167 -129 78.5s-47 90.166 -47 149.499c0 56 16.167 105.167 48.5 147.5s74.833 69.5 127.5 81.5v110h115v-107c51.333 -8.66699 92.333 -27.667 123 -57l-54 -91
c-30 29.333 -67.333 44 -112 44c-33.333 0 -62.5 -11.833 -87.5 -35.5s-37.5 -54.5 -37.5 -92.5c0 -38.667 12.833 -69.834 38.5 -93.501s56.167 -35.5 91.5 -35.5c44 0 82.667 18.333 116 55z" />
    <glyph glyph-name="sterling" unicode="&#xa3;" 
d="M68 265v92.001h80l-17 33.5c-8.66699 17 -14.834 30 -18.501 39s-7.5 21.5 -11.5 37.5s-6 32 -6 48c0 55.333 21.167 101.333 63.5 138s96.5 55 162.5 55c82.667 0 148 -26.333 196 -79l-63 -90c-38.667 36 -81.334 54 -128.001 54c-29.333 0 -53.5 -8.33301 -72.5 -25
s-28.5 -37.334 -28.5 -62.001c0 -24 8.83301 -52.833 26.5 -86.5s27.834 -54.5 30.501 -62.5h150v-92h-140c-4.66699 -35.333 -23 -71.333 -55 -108c8.66699 -2 34.334 -10.167 77.001 -24.5s75.667 -21.5 99 -21.5c40.667 0 76.667 15 108 45l51 -90
c-45.333 -46.667 -99 -70 -161 -70c-26 0 -64 8.66699 -114 26s-88 26 -114 26c-34 0 -69.333 -18.333 -106 -55l-46 92c27.333 32 58.666 54.333 93.999 67c30.667 40 46.334 77.667 47.001 113h-104z" />
    <glyph glyph-name="currency" unicode="&#xa4;" 
d="M68 342c0 46.667 11.667 88.333 35 125l-77 79l70 70l78 -79c36 21.333 77.333 32 124 32c46 0 87 -10.667 123 -32l81 80l70 -70l-79 -79c24 -38.667 36 -80.667 36 -126c0 -46 -11.667 -87.333 -35 -124l77 -76l-71 -71l-77 77c-35.333 -22 -77 -33 -125 -33
s-89.667 11 -125 33l-79 -80l-71 71l79 79c-22.667 36.667 -34 78 -34 124zM175 341.999c0 -36 11.166 -66.167 33.499 -90.5s52.166 -36.5 89.499 -36.5c38.667 0 68.834 12.167 90.501 36.5s32.5 54.5 32.5 90.5c0 38 -11 68.667 -33 92s-52 35 -90 35
c-37.333 0 -67.166 -11.667 -89.499 -35s-33.5 -54 -33.5 -92z" />
    <glyph glyph-name="yen" unicode="&#xa5;" 
d="M66 292v93h118l-173 315h140l151 -293l150 293h133l-176 -315h121v-93h-172v-82h172v-93h-172v-117h-122v117h-170v93h170v82h-170z" />
    <glyph glyph-name="brokenbar" unicode="&#xa6;" horiz-adv-x="340" 
d="M227 440h-115v260h115v-260zM112 260h115v-260h-115v260z" />
    <glyph glyph-name="section" unicode="&#xa7;" horiz-adv-x="524" 
d="M57 249c0 40 10.667 75.5 32 106.5s51.333 53.167 90 66.5c-48 30.667 -72 75.667 -72 135c0 40 15.167 73.833 45.5 101.5s72.166 41.5 125.499 41.5c60 0 108 -23.333 144 -70l-69 -77c-23.333 26 -47 39 -71 39c-16 0 -30 -5.66699 -42 -17s-18 -25 -18 -41
c0 -39.333 24 -73 72 -101c54.667 -6 97 -26 127 -60s45 -75.333 45 -124c0 -40.667 -10.5 -76.334 -31.5 -107.001s-50.833 -52.667 -89.5 -66c46 -31.333 69 -75.666 69 -132.999c0 -40.667 -15 -74.667 -45 -102s-72 -41 -126 -41c-59.333 0 -107 23.333 -143 70l69 77
c24 -26.667 47.333 -40 70 -40c16.667 0 30.834 5.83301 42.501 17.5s17.5 25.5 17.5 41.5c0 39.333 -23.667 72.333 -71 99c-54 6 -96 26 -126 60s-45 75.333 -45 124zM172 249c0 -22.667 7.99902 -42.667 23.999 -60s38 -26 66 -26c28.667 0 50.667 8.5 66 25.5
s23 37.167 23 60.5c0 22.667 -7.83301 42.667 -23.5 60s-37.5 26 -65.5 26c-27.333 0 -49.166 -8.66699 -65.499 -26s-24.5 -37.333 -24.5 -60z" />
    <glyph glyph-name="dieresis" unicode="&#xa8;" horiz-adv-x="443" 
d="M60 599c0 19.333 6.33301 34.833 19 46.5s28 17.5 46 17.5c16 0 30 -5.83301 42 -17.5s18 -27.167 18 -46.5c0 -20.667 -6 -37 -18 -49s-26 -18 -42 -18c-18 0 -33.333 6 -46 18s-19 28.333 -19 49zM259 599c0 19.333 6.16797 34.833 18.501 46.5s27.5 17.5 45.5 17.5
c16 0 30 -5.83301 42 -17.5s18 -27.167 18 -46.5c0 -20.667 -5.83301 -37 -17.5 -49s-25.834 -18 -42.501 -18c-18 0 -33.167 6 -45.5 18s-18.5 28.333 -18.5 49z" />
    <glyph glyph-name="copyright" unicode="&#xa9;" horiz-adv-x="1018" 
d="M72 221c0 122 42 225.167 126 309.5s187.667 126.5 311 126.5s226.833 -42 310.5 -126s125.5 -187.333 125.5 -310s-41.833 -226.167 -125.5 -310.5s-187.167 -126.5 -310.5 -126.5s-227 42.167 -311 126.5s-126 187.833 -126 310.5zM172 220
c0 -93.333 32.167 -172.666 96.5 -237.999s144.833 -98 241.5 -98c95.333 0 175 32.667 239 98s96 144.666 96 237.999c0 94 -32 173.667 -96 239s-143.667 98 -239 98c-96.667 0 -177.167 -32.667 -241.5 -98s-96.5 -145 -96.5 -239zM641 151l54.001 -84
c-18.667 -25.333 -43.834 -44.666 -75.501 -57.999s-66.167 -20 -103.5 -20c-73.333 0 -132.333 21.667 -177 65s-67 100.333 -67 171c0 66.667 22 122.667 66 168s99.667 68 167 68c80 0 140.333 -20.333 181 -61l-54 -91c-30 29.333 -67.333 44 -112 44
c-33.333 0 -62.5 -11.833 -87.5 -35.5s-37.5 -54.5 -37.5 -92.5c0 -38.667 12.833 -69.834 38.5 -93.501s56.167 -35.5 91.5 -35.5c44 0 82.667 18.333 116 55z" />
    <glyph glyph-name="ordfeminine" unicode="&#xaa;" horiz-adv-x="445" 
d="M121 553l-40.0029 67c41.333 25.333 90 38 146 38c42.667 0 78.834 -11.667 108.501 -35s44.5 -57 44.5 -101v-215h-100v43c-27.333 -32 -68.666 -48 -123.999 -48c-33.333 0 -60.166 10.5 -80.499 31.5s-30.5 46.833 -30.5 77.5c0 37.333 11.333 66 34 86
s54.334 30 95.001 30c41.333 0 76.666 -7 105.999 -21c-2.66699 44.667 -27 67 -73 67c-34 0 -62.667 -6.66699 -86 -20zM206.997 387c23.333 0 47.668 8.33301 73.001 25v31c-24.667 9.33301 -48.334 14 -71.001 14c-38 0 -57 -11.667 -57 -35s18.333 -35 55 -35z" />
    <glyph glyph-name="guillemotleft" unicode="&#xab;" horiz-adv-x="561" 
d="M440 22l-193 226v4l197 226l75 -67l-139 -161l138 -163zM230 22l-193 226v4l197 226l75 -67l-139 -161l138 -163z" />
    <glyph glyph-name="logicalnot" unicode="&#xac;" 
d="M51 310v100h494v-231h-100v131h-394z" />
    <glyph glyph-name="uni00AD" unicode="&#xad;" horiz-adv-x="376" 
d="M62 220v107h252v-107h-252z" />
    <glyph glyph-name="registered" unicode="&#xae;" horiz-adv-x="663" 
d="M45 497c0 79.333 27.833 146.667 83.5 202s123.834 83 204.501 83c78.667 0 145.834 -27.833 201.501 -83.5s83.5 -122.834 83.5 -201.501c0 -80 -27.833 -148 -83.5 -204s-122.834 -84 -201.501 -84c-80.667 0 -148.834 27.833 -204.501 83.5
s-83.5 123.834 -83.5 204.501zM137 496.001c0 -53.333 19 -99 57 -137s83.667 -57 137 -57s99 19 137 57s57 83.667 57 137s-19 99 -57 137s-83.667 57 -137 57s-99 -19 -137 -57s-57 -83.667 -57 -137zM298 360.001l-77.001 0.000976562v280h117
c38.667 0 67.334 -8.33301 86.001 -25s28 -39.334 28 -68.001c0 -19.333 -5.16699 -36.333 -15.5 -51s-22.833 -24.667 -37.5 -30l58 -106h-89l-43 88h-27v-88zM326.999 585.002h-29v-82h29c14.667 0 26.167 4.16699 34.5 12.5s12.5 18.5 12.5 30.5c0 26 -15.667 39 -47 39z
" />
    <glyph glyph-name="macron" unicode="&#xaf;" horiz-adv-x="399" 
d="M60 550v92h279v-92h-279z" />
    <glyph glyph-name="degree" unicode="&#xb0;" horiz-adv-x="425" 
d="M45 568c0 48 16.167 88.167 48.5 120.5s71.5 48.5 117.5 48.5c47.333 0 87.333 -15.333 120 -46s49 -69.667 49 -117s-16.5 -87.833 -49.5 -121.5s-72.833 -50.5 -119.5 -50.5c-46 0 -85.167 16 -117.5 48s-48.5 71.333 -48.5 118zM145 570
c0 -18.667 6.66699 -34.667 20 -48s29 -20 47 -20c18.667 0 34.667 6.66699 48 20s20 29.333 20 48s-6.66699 34.5 -20 47.5s-29.333 19.5 -48 19.5c-18 0 -33.667 -6.5 -47 -19.5s-20 -28.833 -20 -47.5z" />
    <glyph glyph-name="plusminus" unicode="&#xb1;" 
d="M66 402v100h177v181h108v-181h179v-100h-179v-103h-108v103h-177zM66 155v100h464v-100h-464z" />
    <glyph glyph-name="twosuperior" unicode="&#xb2;" horiz-adv-x="363" 
d="M30 350l-0.00195312 72.998c78.667 46.667 129.334 81.334 152.001 104.001c20 19.333 30 37 30 53c0 12 -3.83301 21.5 -11.5 28.5s-18.167 10.5 -31.5 10.5s-25.166 -5.16699 -35.499 -15.5s-16.5 -21.833 -18.5 -34.5l-83 29c5.33301 32.667 21 58.5 47 77.5
s59.333 28.5 100 28.5c44.667 0 79.167 -10.167 103.5 -30.5s36.5 -47.166 36.5 -80.499c0 -61.333 -53 -114 -159 -158h175v-85h-305z" />
    <glyph glyph-name="threesuperior" unicode="&#xb3;" horiz-adv-x="361" 
d="M175 344c-34.667 0 -66.334 6.33301 -95.001 19s-49.667 31 -63 55l58 53c6.66699 -12.667 18 -23.5 34 -32.5s32.333 -13.5 49 -13.5c40.667 0 61 11.667 61 35c0 21.333 -19.667 32 -59 32h-30v70h28c14.667 0 26.334 3.16699 35.001 9.5s13 14.5 13 24.5
c0 19.333 -15 29 -45 29c-34.667 0 -63 -13.667 -85 -41l-48 55c29.333 44.667 80.333 67 153 67c39.333 0 71.333 -8 96 -24s37 -37.667 37 -65c0 -21.333 -6.83301 -39 -20.5 -53s-32.5 -23.667 -56.5 -29v-1c28.667 -2 50.667 -10.667 66 -26s23 -34.333 23 -57
c0 -32 -14.667 -57.833 -44 -77.5s-65 -29.5 -107 -29.5z" />
    <glyph glyph-name="acute" unicode="&#xb4;" horiz-adv-x="315" 
d="M255 662l-126 -145l-69 48l105 165z" />
    <glyph glyph-name="mu" unicode="&#xb5;" horiz-adv-x="542" 
d="M478 450v-450h-115v55c-36 -44 -84 -66 -144 -66c-14 0 -28.333 1.66699 -43 5v-194h-115v650h115v-260c2 -62.667 30.667 -94 86 -94c39.333 0 73 18.333 101 55v299h115z" />
    <glyph glyph-name="mu" unicode="&#x3bc;" horiz-adv-x="542" 
d="M478 450v-450h-115v55c-36 -44 -84 -66 -144 -66c-14 0 -28.333 1.66699 -43 5v-194h-115v650h115v-260c2 -62.667 30.667 -94 86 -94c39.333 0 73 18.333 101 55v299h115z" />
    <glyph glyph-name="paragraph" unicode="&#xb6;" horiz-adv-x="491" 
d="M37 481c0 66.667 20.832 119.833 62.499 159.5s94.834 59.5 159.501 59.5h207v-108h-94v-584c0 -144 -62.333 -216 -187 -216c-25.333 0 -50 4.83301 -74 14.5s-42.667 21.167 -56 34.5l45 83c22 -16.667 47.667 -25 77 -25c53.333 0 80 37.667 80 113v251
c-60 0.666992 -111.667 20.667 -155 60s-65 92 -65 158z" />
    <glyph glyph-name="periodcentered" unicode="&#xb7;" horiz-adv-x="212" 
d="M29 302c0 18.667 7.33301 35.667 22 51s34 23 58 23c20.667 0 38 -7.66699 52 -23s21 -32.333 21 -51c0 -21.333 -7 -40 -21 -56s-31.333 -24 -52 -24c-24 0 -43.333 8 -58 24s-22 34.667 -22 56z" />
    <glyph glyph-name="cedilla" unicode="&#xb8;" horiz-adv-x="378" 
d="M60 -166l34 54c22 -17.333 45.333 -26 70 -26c26 0 39 8.33301 39 25c0 18.667 -13.667 28 -41 28h-6v85h58v-35c69.333 -4 104 -32.333 104 -85c0 -26.667 -12 -48 -36 -64s-58 -24 -102 -24c-42 0 -82 14 -120 42z" />
    <glyph glyph-name="onesuperior" unicode="&#xb9;" horiz-adv-x="269" 
d="M16 624l113 75h72v-349h-100v234l-48 -28z" />
    <glyph glyph-name="ordmasculine" unicode="&#xba;" horiz-adv-x="499" 
d="M52 480c0 53.333 18.5 96.333 55.5 129s84.167 49 141.5 49s104.5 -16.333 141.5 -49s55.5 -75.667 55.5 -129s-18.5 -96.5 -55.5 -129.5s-84.167 -49.5 -141.5 -49.5s-104.5 16.5 -141.5 49.5s-55.5 76.167 -55.5 129.5zM160 480c0 -26 8.49902 -46.833 25.499 -62.5
s38.167 -23.5 63.5 -23.5c26.667 0 48.334 7.83301 65.001 23.5s25 36.5 25 62.5c0 25.333 -8.5 45.833 -25.5 61.5s-38.5 23.5 -64.5 23.5c-25.333 0 -46.5 -7.83301 -63.5 -23.5s-25.5 -36.167 -25.5 -61.5z" />
    <glyph glyph-name="guillemotright" unicode="&#xbb;" horiz-adv-x="561" 
d="M524 248l-193 -226l-78 65l138 163l-139 161l75 67l197 -226v-4zM314 248l-193 -226l-78 65l138 163l-139 161l75 67l197 -226v-4z" />
    <glyph glyph-name="onequarter" unicode="&#xbc;" horiz-adv-x="693" 
d="M21 624l113 75h72v-349h-100v234l-48 -28zM45 35l505 676l65 -49l-504 -673zM525 0v70h-193v67l155 213h95l-148 -202h91v77h92v-77h56v-78h-56v-70h-92z" />
    <glyph glyph-name="onehalf" unicode="&#xbd;" horiz-adv-x="710" 
d="M21 624l113 75h72v-349h-100v234l-48 -28zM35 35l505 676l65 -49l-504 -673zM365 0l-0.00195312 72.998c78.667 46.667 129.334 81.334 152.001 104.001c20 19.333 30 37 30 53c0 12 -3.83301 21.5 -11.5 28.5s-18.167 10.5 -31.5 10.5s-25.166 -5.16699 -35.499 -15.5
s-16.5 -21.833 -18.5 -34.5l-83 29c5.33301 32.667 21 58.5 47 77.5s59.333 28.5 100 28.5c44.667 0 79.167 -10.167 103.5 -30.5s36.5 -47.166 36.5 -80.499c0 -61.333 -53 -114 -159 -158h175v-85h-305z" />
    <glyph glyph-name="threequarters" unicode="&#xbe;" horiz-adv-x="753" 
d="M115 35l505 676l65 -49l-504 -673zM585 0v70h-193v67l155 213h95l-148 -202h91v77h92v-77h56v-78h-56v-70h-92zM182 344c-34.667 0 -66.334 6.33301 -95.001 19s-49.667 31 -63 55l58 53c6.66699 -12.667 18 -23.5 34 -32.5s32.333 -13.5 49 -13.5
c40.667 0 61 11.667 61 35c0 21.333 -19.667 32 -59 32h-30v70h28c14.667 0 26.334 3.16699 35.001 9.5s13 14.5 13 24.5c0 19.333 -15 29 -45 29c-34.667 0 -63 -13.667 -85 -41l-48 55c29.333 44.667 80.333 67 153 67c39.333 0 71.333 -8 96 -24s37 -37.667 37 -65
c0 -21.333 -6.83301 -39 -20.5 -53s-32.5 -23.667 -56.5 -29v-1c28.667 -2 50.667 -10.667 66 -26s23 -34.333 23 -57c0 -32 -14.667 -57.833 -44 -77.5s-65 -29.5 -107 -29.5z" />
    <glyph glyph-name="questiondown" unicode="&#xbf;" horiz-adv-x="473" 
d="M148 -54c0 -24 9.00098 -44.3291 27.001 -60.9961s40.333 -25 67 -25c49.333 0 90.333 21.333 123 64l68 -77c-18.667 -30 -45.5 -54.5 -80.5 -73.5s-74.167 -28.5 -117.5 -28.5c-64.667 0 -115.834 16.833 -153.501 50.5s-56.5 75.5 -56.5 125.5
c0 30.667 5 58.334 15 83.001s22.333 44.167 37 58.5s30.167 28.666 46.5 42.999l45 38c13.667 11 24.167 24.667 31.5 41s9.33301 34.166 6 53.499l105 1c5.33301 -32.667 3.5 -60.834 -5.5 -84.501s-22.167 -42.834 -39.5 -57.501s-34.833 -28.334 -52.5 -41.001
s-33 -28.167 -46 -46.5s-19.5 -39.5 -19.5 -63.5zM333.001 381.004c0 -18.667 -7.33301 -35.667 -22 -51s-33.667 -23 -57 -23c-21.333 0 -39 7.66699 -53 23s-21 32.333 -21 51c0 21.333 7 40 21 56s31.667 24 53 24c23.333 0 42.333 -8 57 -24s22 -34.667 22 -56z" />
    <glyph glyph-name="Agrave" unicode="&#xc0;" horiz-adv-x="715" 
d="M7 0l296 702h108l296 -702h-131l-73 179h-299l-73 -179h-124zM354 543l-103 -249h205zM410 731l-225 81l43 99l214 -111z" />
    <glyph glyph-name="Aacute" unicode="&#xc1;" horiz-adv-x="715" 
d="M7 0l296 702h108l296 -702h-131l-73 179h-299l-73 -179h-124zM354 543l-103 -249h205zM529 812l-225 -81l-32 69l214 111z" />
    <glyph glyph-name="Acircumflex" unicode="&#xc2;" horiz-adv-x="715" 
d="M7 0l296 702h108l296 -702h-131l-73 179h-299l-73 -179h-124zM354 543l-103 -249h205zM178 792l175 112h4l179 -111l-45 -65l-136 71l-136 -71z" />
    <glyph glyph-name="Atilde" unicode="&#xc3;" horiz-adv-x="715" 
d="M7 0l296 702h108l296 -702h-131l-73 179h-299l-73 -179h-124zM354 543l-103 -249h205zM212 753l-36.002 73c31.333 36 68.666 54 111.999 54c20.667 0 45.334 -5.83301 74.001 -17.5s51.667 -17.5 69 -17.5c30.667 0 56 10.667 76 32l31 -73
c-27.333 -39.333 -65.666 -59 -114.999 -59c-16.667 0 -40.167 5.83301 -70.5 17.5s-55.166 17.5 -74.499 17.5c-22 0 -44 -9 -66 -27z" />
    <glyph glyph-name="Adieresis" unicode="&#xc4;" horiz-adv-x="715" 
d="M7 0l296 702h108l296 -702h-131l-73 179h-299l-73 -179h-124zM354 543l-103 -249h205zM167 825c0 18.667 7.33301 33.667 22 45s33 17 55 17c19.333 0 36 -5.66699 50 -17s21 -26.333 21 -45c0 -20.667 -7 -36.834 -21 -48.501s-30.667 -17.5 -50 -17.5
c-22 0 -40.333 5.83301 -55 17.5s-22 27.834 -22 48.501zM399 825c0 18.667 7.33301 33.667 22 45s33 17 55 17c19.333 0 36 -5.66699 50 -17s21 -26.333 21 -45c0 -20.667 -7 -36.834 -21 -48.501s-30.667 -17.5 -50 -17.5c-22 0 -40.333 5.83301 -55 17.5
s-22 27.834 -22 48.501z" />
    <glyph glyph-name="Aring" unicode="&#xc5;" horiz-adv-x="715" 
d="M216 800c0 36 13 63 39 81s59.333 27 100 27c42 0 76.333 -9 103 -27s40 -45 40 -81c0 -52.667 -28.333 -87 -85 -103l294 -697h-131l-73 179h-299l-73 -179h-124l294 697c-56.667 16 -85 50.333 -85 103zM354 543l-103 -249h205zM301 800
c0 -15.333 5.16602 -27 15.499 -35s23.5 -12 39.5 -12c16.667 0 30.334 4 41.001 12s16 19.667 16 35c0 30 -19 45 -57 45c-36.667 0 -55 -15 -55 -45z" />
    <glyph glyph-name="AE" unicode="&#xc6;" horiz-adv-x="951" 
d="M473 0v181h-233l-126 -181h-142l503 700h403v-115h-282v-174h252v-115h-252v-181h292v-115h-415zM473 514l-152 -218h152v218z" />
    <glyph glyph-name="Ccedilla" unicode="&#xc7;" horiz-adv-x="655" 
d="M254 -163l36.999 58.001c26.667 -22 51.334 -33 74.001 -33c26 0 39 8.33301 39 25c0 18.667 -13.667 28 -41 28h-6v77c-94 10 -169.5 47.167 -226.5 111.5s-85.5 146.5 -85.5 246.5c0 104.667 31.667 191 95 259s151 102 263 102c90 0 161 -23.667 213 -71l-55 -91
c-47.333 31.333 -100 47 -158 47c-66 0 -120.5 -22.333 -163.5 -67s-64.5 -104.334 -64.5 -179.001c0 -72.667 22.5 -131.834 67.5 -177.501s103.167 -68.5 174.5 -68.5c62 0 117.333 18.667 166 56l47 -92c-21.333 -23.333 -51.5 -42.166 -90.5 -56.499
s-80.5 -21.833 -124.5 -22.5v-24c74 -4 111 -32.333 111 -85c0 -26 -11.833 -47.167 -35.5 -63.5s-56.167 -24.5 -97.5 -24.5c-54 0 -100.333 15 -139 45z" />
    <glyph glyph-name="Egrave" unicode="&#xc8;" horiz-adv-x="575" 
d="M97 0v700h405v-115h-282v-174h252v-115h-252v-181h292v-115h-415zM362 731l-225 81l43 99l214 -111z" />
    <glyph glyph-name="Eacute" unicode="&#xc9;" horiz-adv-x="575" 
d="M97 0v700h405v-115h-282v-174h252v-115h-252v-181h292v-115h-415zM474 812l-225 -81l-32 69l214 111z" />
    <glyph glyph-name="Ecircumflex" unicode="&#xca;" horiz-adv-x="575" 
d="M97 0v700h405v-115h-282v-174h252v-115h-252v-181h292v-115h-415zM121 792l175 112h4l179 -111l-45 -65l-136 71l-136 -71z" />
    <glyph glyph-name="Edieresis" unicode="&#xcb;" horiz-adv-x="575" 
d="M97 0v700h405v-115h-282v-174h252v-115h-252v-181h292v-115h-415zM113 825c0 18.667 7.33301 33.667 22 45s33 17 55 17c19.333 0 36 -5.66699 50 -17s21 -26.333 21 -45c0 -20.667 -7 -36.834 -21 -48.501s-30.667 -17.5 -50 -17.5c-22 0 -40.333 5.83301 -55 17.5
s-22 27.834 -22 48.501zM345 825c0 18.667 7.33301 33.667 22 45s33 17 55 17c19.333 0 36 -5.66699 50 -17s21 -26.333 21 -45c0 -20.667 -7 -36.834 -21 -48.501s-30.667 -17.5 -50 -17.5c-22 0 -40.333 5.83301 -55 17.5s-22 27.834 -22 48.501z" />
    <glyph glyph-name="Igrave" unicode="&#xcc;" horiz-adv-x="347" 
d="M112 0v700h123v-700h-123zM217 731l-225 81l43 99l214 -111z" />
    <glyph glyph-name="Iacute" unicode="&#xcd;" horiz-adv-x="347" 
d="M112 0v700h123v-700h-123zM357 812l-225 -81l-32 69l214 111z" />
    <glyph glyph-name="Icircumflex" unicode="&#xce;" horiz-adv-x="347" 
d="M112 0v700h123v-700h-123zM-6 792l175 112h4l179 -111l-45 -65l-136 71l-136 -71z" />
    <glyph glyph-name="Idieresis" unicode="&#xcf;" horiz-adv-x="347" 
d="M112 0v700h123v-700h-123zM-17 825c0 18.667 7.33301 33.667 22 45s33 17 55 17c19.333 0 36 -5.66699 50 -17s21 -26.333 21 -45c0 -20.667 -7 -36.834 -21 -48.501s-30.667 -17.5 -50 -17.5c-22 0 -40.333 5.83301 -55 17.5s-22 27.834 -22 48.501zM215 825
c0 18.667 7.33301 33.667 22 45s33 17 55 17c19.333 0 36 -5.66699 50 -17s21 -26.333 21 -45c0 -20.667 -7 -36.834 -21 -48.501s-30.667 -17.5 -50 -17.5c-22 0 -40.333 5.83301 -55 17.5s-22 27.834 -22 48.501z" />
    <glyph glyph-name="Eth" unicode="&#xd0;" horiz-adv-x="749" 
d="M10 297v108h95v295h13c13.333 0 44.333 0.5 93 1.5s82 1.5 100 1.5c68 0 127.667 -9.16699 179 -27.5s92.333 -43.833 123 -76.5s53.5 -69.167 68.5 -109.5s22.5 -84.5 22.5 -132.5c0 -104 -34.833 -189.833 -104.5 -257.5s-168.5 -101.5 -296.5 -101.5
c-12 0 -40 0.333008 -84 1s-77.333 1 -100 1h-14v297h-95zM309 588c-26.667 0 -54 -0.999023 -82 -2.99902v-180h177v-108h-177v-182c22.667 -1.33301 49.334 -2 80.001 -2c83.333 0 148.666 22 195.999 66s71 103.333 71 178c0 71.333 -23.5 127.666 -70.5 168.999
s-111.833 62 -194.5 62z" />
    <glyph glyph-name="Ntilde" unicode="&#xd1;" horiz-adv-x="792" 
d="M695 0h-98l-385 485v-485h-115v700h98l385 -487v487h115v-700zM258 753l-36.002 73c31.333 36 68.666 54 111.999 54c20.667 0 45.334 -5.83301 74.001 -17.5s51.667 -17.5 69 -17.5c30.667 0 56 10.667 76 32l31 -73c-27.333 -39.333 -65.666 -59 -114.999 -59
c-16.667 0 -40.167 5.83301 -70.5 17.5s-55.166 17.5 -74.499 17.5c-22 0 -44 -9 -66 -27z" />
    <glyph glyph-name="Ograve" unicode="&#xd2;" horiz-adv-x="819" 
d="M45 350c0 102.667 34.167 188.5 102.5 257.5s155.5 103.5 261.5 103.5c105.333 0 192.5 -33.333 261.5 -100s103.5 -153.667 103.5 -261c0 -104.667 -34.667 -191 -104 -259s-156.333 -102 -261 -102c-105.333 0 -192.333 33.333 -261 100s-103 153.667 -103 261z
M175 350c0 -70 22.499 -128.501 67.499 -175.501s100.5 -70.5 166.5 -70.5c72 0 129.167 23.333 171.5 70s63.5 105.334 63.5 176.001c0 72 -22.5 131 -67.5 177s-100.833 69 -167.5 69c-67.333 0 -123.166 -23 -167.499 -69s-66.5 -105 -66.5 -177zM481.999 730.999
l-225 81l43 99l214 -111z" />
    <glyph glyph-name="Oacute" unicode="&#xd3;" horiz-adv-x="819" 
d="M45 350c0 102.667 34.167 188.5 102.5 257.5s155.5 103.5 261.5 103.5c105.333 0 192.5 -33.333 261.5 -100s103.5 -153.667 103.5 -261c0 -104.667 -34.667 -191 -104 -259s-156.333 -102 -261 -102c-105.333 0 -192.333 33.333 -261 100s-103 153.667 -103 261z
M175 350c0 -70 22.499 -128.501 67.499 -175.501s100.5 -70.5 166.5 -70.5c72 0 129.167 23.333 171.5 70s63.5 105.334 63.5 176.001c0 72 -22.5 131 -67.5 177s-100.833 69 -167.5 69c-67.333 0 -123.166 -23 -167.499 -69s-66.5 -105 -66.5 -177zM588.999 811.999
l-225 -81l-32 69l214 111z" />
    <glyph glyph-name="Ocircumflex" unicode="&#xd4;" horiz-adv-x="819" 
d="M45 350c0 102.667 34.167 188.5 102.5 257.5s155.5 103.5 261.5 103.5c105.333 0 192.5 -33.333 261.5 -100s103.5 -153.667 103.5 -261c0 -104.667 -34.667 -191 -104 -259s-156.333 -102 -261 -102c-105.333 0 -192.333 33.333 -261 100s-103 153.667 -103 261z
M175 350c0 -70 22.499 -128.501 67.499 -175.501s100.5 -70.5 166.5 -70.5c72 0 129.167 23.333 171.5 70s63.5 105.334 63.5 176.001c0 72 -22.5 131 -67.5 177s-100.833 69 -167.5 69c-67.333 0 -123.166 -23 -167.499 -69s-66.5 -105 -66.5 -177zM232.999 791.999
l175 112h4l179 -111l-45 -65l-136 71l-136 -71z" />
    <glyph glyph-name="Otilde" unicode="&#xd5;" horiz-adv-x="819" 
d="M45 350c0 102.667 34.167 188.5 102.5 257.5s155.5 103.5 261.5 103.5c105.333 0 192.5 -33.333 261.5 -100s103.5 -153.667 103.5 -261c0 -104.667 -34.667 -191 -104 -259s-156.333 -102 -261 -102c-105.333 0 -192.333 33.333 -261 100s-103 153.667 -103 261z
M175 350c0 -70 22.499 -128.501 67.499 -175.501s100.5 -70.5 166.5 -70.5c72 0 129.167 23.333 171.5 70s63.5 105.334 63.5 176.001c0 72 -22.5 131 -67.5 177s-100.833 69 -167.5 69c-67.333 0 -123.166 -23 -167.499 -69s-66.5 -105 -66.5 -177zM259.999 752.999
l-36.002 73c31.333 36 68.666 54 111.999 54c20.667 0 45.334 -5.83301 74.001 -17.5s51.667 -17.5 69 -17.5c30.667 0 56 10.667 76 32l31 -73c-27.333 -39.333 -65.666 -59 -114.999 -59c-16.667 0 -40.167 5.83301 -70.5 17.5s-55.166 17.5 -74.499 17.5
c-22 0 -44 -9 -66 -27z" />
    <glyph glyph-name="Odieresis" unicode="&#xd6;" horiz-adv-x="819" 
d="M45 350c0 102.667 34.167 188.5 102.5 257.5s155.5 103.5 261.5 103.5c105.333 0 192.5 -33.333 261.5 -100s103.5 -153.667 103.5 -261c0 -104.667 -34.667 -191 -104 -259s-156.333 -102 -261 -102c-105.333 0 -192.333 33.333 -261 100s-103 153.667 -103 261z
M175 350c0 -70 22.499 -128.501 67.499 -175.501s100.5 -70.5 166.5 -70.5c72 0 129.167 23.333 171.5 70s63.5 105.334 63.5 176.001c0 72 -22.5 131 -67.5 177s-100.833 69 -167.5 69c-67.333 0 -123.166 -23 -167.499 -69s-66.5 -105 -66.5 -177zM215.999 824.999
c0 18.667 7.33301 33.667 22 45s33 17 55 17c19.333 0 36 -5.66699 50 -17s21 -26.333 21 -45c0 -20.667 -7 -36.834 -21 -48.501s-30.667 -17.5 -50 -17.5c-22 0 -40.333 5.83301 -55 17.5s-22 27.834 -22 48.501zM447.999 824.999c0 18.667 7.33301 33.667 22 45
s33 17 55 17c19.333 0 36 -5.66699 50 -17s21 -26.333 21 -45c0 -20.667 -7 -36.834 -21 -48.501s-30.667 -17.5 -50 -17.5c-22 0 -40.333 5.83301 -55 17.5s-22 27.834 -22 48.501z" />
    <glyph glyph-name="multiply" unicode="&#xd7;" 
d="M99 488l71 71l128 -128l128 128l71 -71l-128 -128l129 -129l-71 -71l-129 129l-129 -129l-71 71l129 129z" />
    <glyph glyph-name="Oslash" unicode="&#xd8;" horiz-adv-x="819" 
d="M45 350c0 102.667 34.167 188.5 102.5 257.5s155.5 103.5 261.5 103.5c84 0 158 -22.667 222 -68l40 39l66 -67l-38 -37c50 -64 75 -140 75 -228c0 -104.667 -34.667 -191 -104 -259s-156.333 -102 -261 -102c-92 0 -170 25.333 -234 76l-42 -41l-67 68l43 42
c-42.667 60.667 -64 132.667 -64 216zM644 350c0 50.667 -12.334 96.332 -37.001 136.999l-341 -333c40.667 -33.333 88.334 -50 143.001 -50c72 0 129.167 23.333 171.5 70s63.5 105.334 63.5 176.001zM174.999 349.998c0 -45.333 9.66602 -86.333 28.999 -123l338 329
c-40.667 26.667 -85 40 -133 40c-67.333 0 -123.166 -23 -167.499 -69s-66.5 -105 -66.5 -177z" />
    <glyph glyph-name="Ugrave" unicode="&#xd9;" horiz-adv-x="751" 
d="M663 700v-410c0 -100.667 -26.333 -176 -79 -226s-119 -75 -199 -75c-90 0 -162.167 26.5 -216.5 79.5s-81.5 129.167 -81.5 228.5v403h123v-377c0 -68 14.5 -121.5 43.5 -160.5s72.833 -58.5 131.5 -58.5c104 0 156 70.333 156 211v385h122zM435 731l-225 81l43 99
l214 -111z" />
    <glyph glyph-name="Uacute" unicode="&#xda;" horiz-adv-x="751" 
d="M663 700v-410c0 -100.667 -26.333 -176 -79 -226s-119 -75 -199 -75c-90 0 -162.167 26.5 -216.5 79.5s-81.5 129.167 -81.5 228.5v403h123v-377c0 -68 14.5 -121.5 43.5 -160.5s72.833 -58.5 131.5 -58.5c104 0 156 70.333 156 211v385h122zM552 812l-225 -81l-32 69
l214 111z" />
    <glyph glyph-name="Ucircumflex" unicode="&#xdb;" horiz-adv-x="751" 
d="M663 700v-410c0 -100.667 -26.333 -176 -79 -226s-119 -75 -199 -75c-90 0 -162.167 26.5 -216.5 79.5s-81.5 129.167 -81.5 228.5v403h123v-377c0 -68 14.5 -121.5 43.5 -160.5s72.833 -58.5 131.5 -58.5c104 0 156 70.333 156 211v385h122zM195 792l175 112h4l179 -111
l-45 -65l-136 71l-136 -71z" />
    <glyph glyph-name="Udieresis" unicode="&#xdc;" horiz-adv-x="751" 
d="M663 700v-410c0 -100.667 -26.333 -176 -79 -226s-119 -75 -199 -75c-90 0 -162.167 26.5 -216.5 79.5s-81.5 129.167 -81.5 228.5v403h123v-377c0 -68 14.5 -121.5 43.5 -160.5s72.833 -58.5 131.5 -58.5c104 0 156 70.333 156 211v385h122zM178 825
c0 18.667 7.33301 33.667 22 45s33 17 55 17c19.333 0 36 -5.66699 50 -17s21 -26.333 21 -45c0 -20.667 -7 -36.834 -21 -48.501s-30.667 -17.5 -50 -17.5c-22 0 -40.333 5.83301 -55 17.5s-22 27.834 -22 48.501zM410 825c0 18.667 7.33301 33.667 22 45s33 17 55 17
c19.333 0 36 -5.66699 50 -17s21 -26.333 21 -45c0 -20.667 -7 -36.834 -21 -48.501s-30.667 -17.5 -50 -17.5c-22 0 -40.333 5.83301 -55 17.5s-22 27.834 -22 48.501z" />
    <glyph glyph-name="Yacute" unicode="&#xdd;" horiz-adv-x="629" 
d="M624 700l-249 -408v-292h-123v292l-247 408h140l174 -293l172 293h133zM492 812l-225 -81l-32 69l214 111z" />
    <glyph glyph-name="Thorn" unicode="&#xde;" horiz-adv-x="612" 
d="M220 0l-123 -0.000976562v700h123v-103c5.33301 0 18 0.333008 38 1s32.667 1 38 1c95.333 0 164.333 -21.167 207 -63.5s64 -95.833 64 -160.5c0 -63.333 -22.667 -117.166 -68 -161.499s-108 -66.5 -188 -66.5c-34 0 -64.333 1.33301 -91 4v-151zM298 483.999
c-33.333 0 -59.333 -0.999023 -78 -2.99902v-214c32 -3.33301 61 -5 87 -5c38.667 0 70 9.66699 94 29s36 47.666 36 84.999c0 72 -46.333 108 -139 108z" />
    <glyph glyph-name="germandbls" unicode="&#xdf;" horiz-adv-x="551" 
d="M398 160c0 20 -8.49805 38.6699 -25.498 56.0029s-35.667 31.833 -56 43.5s-39 27.667 -56 48s-25.5 43.166 -25.5 68.499c0 23.333 4.33301 44.166 13 62.499s18 32.333 28 42s19.333 20.667 28 33s13 24.833 13 37.5c0 14.667 -6.16699 27 -18.5 37
s-27.833 15 -46.5 15c-26 0 -45 -9 -57 -27s-18 -46.667 -18 -86v-491h-115v501c0 140.667 69 211 207 211c48.667 0 89.167 -13.333 121.5 -40s48.5 -59.334 48.5 -98.001c0 -18.667 -2.83301 -35.167 -8.5 -49.5s-12.5 -26 -20.5 -35l-23.5 -26
c-7.66699 -8.33301 -14.334 -17.833 -20.001 -28.5s-8.5 -22.334 -8.5 -35.001c0 -17.333 5.66699 -32.833 17 -46.5s25 -25.667 41 -36s31.833 -21.666 47.5 -33.999s29.167 -29.166 40.5 -50.499s17 -46.333 17 -75c0 -46.667 -15 -86.334 -45 -119.001s-68 -49 -114 -49
c-62.667 0 -111.334 19.667 -146.001 59l37 88c26.667 -26.667 53.667 -40 81 -40c18.667 0 34 5.66699 46 17s18 27 18 47z" />
    <glyph glyph-name="agrave" unicode="&#xe0;" horiz-adv-x="463" 
d="M99 334l-29.001 83.999c48.667 28.667 101.667 43 159 43c64 0 110 -15.667 138 -47s42 -78 42 -140v-274h-100v52c-27.333 -38.667 -71.666 -58 -132.999 -58c-42 0 -76 12.333 -102 37s-39 58.334 -39 101.001c0 47.333 15.333 83.5 46 108.5s70 37.5 118 37.5
c41.333 0 75.333 -9.66699 102 -29c1.33301 39.333 -4.33398 68.5 -17.001 87.5s-35 28.5 -67 28.5c-33.333 0 -72.666 -10.333 -117.999 -31zM213.999 90.999c38.667 0 67.667 13.667 87 41v46c-19.333 14.667 -45.666 22 -78.999 22
c-20.667 0 -37.834 -4.83301 -51.501 -14.5s-20.5 -23.5 -20.5 -41.5c0 -16.667 6 -29.667 18 -39s27.333 -14 46 -14zM247.999 516.999l-127 143l91 68l104 -163z" />
    <glyph glyph-name="aacute" unicode="&#xe1;" horiz-adv-x="463" 
d="M99 334l-29.001 83.999c48.667 28.667 101.667 43 159 43c64 0 110 -15.667 138 -47s42 -78 42 -140v-274h-100v52c-27.333 -38.667 -71.666 -58 -132.999 -58c-42 0 -76 12.333 -102 37s-39 58.334 -39 101.001c0 47.333 15.333 83.5 46 108.5s70 37.5 118 37.5
c41.333 0 75.333 -9.66699 102 -29c1.33301 39.333 -4.33398 68.5 -17.001 87.5s-35 28.5 -67 28.5c-33.333 0 -72.666 -10.333 -117.999 -31zM213.999 90.999c38.667 0 67.667 13.667 87 41v46c-19.333 14.667 -45.666 22 -78.999 22
c-20.667 0 -37.834 -4.83301 -51.501 -14.5s-20.5 -23.5 -20.5 -41.5c0 -16.667 6 -29.667 18 -39s27.333 -14 46 -14zM349.999 661.999l-126 -145l-69 48l105 165z" />
    <glyph glyph-name="acircumflex" unicode="&#xe2;" horiz-adv-x="463" 
d="M99 334l-29.001 83.999c48.667 28.667 101.667 43 159 43c64 0 110 -15.667 138 -47s42 -78 42 -140v-274h-100v52c-27.333 -38.667 -71.666 -58 -132.999 -58c-42 0 -76 12.333 -102 37s-39 58.334 -39 101.001c0 47.333 15.333 83.5 46 108.5s70 37.5 118 37.5
c41.333 0 75.333 -9.66699 102 -29c1.33301 39.333 -4.33398 68.5 -17.001 87.5s-35 28.5 -67 28.5c-33.333 0 -72.666 -10.333 -117.999 -31zM213.999 90.999c38.667 0 67.667 13.667 87 41v46c-19.333 14.667 -45.666 22 -78.999 22
c-20.667 0 -37.834 -4.83301 -51.501 -14.5s-20.5 -23.5 -20.5 -41.5c0 -16.667 6 -29.667 18 -39s27.333 -14 46 -14zM232.999 705.999l152 -134l-54 -68l-101 81l-102 -79l-52 67l153 133h4z" />
    <glyph glyph-name="atilde" unicode="&#xe3;" horiz-adv-x="463" 
d="M99 334l-29.001 83.999c48.667 28.667 101.667 43 159 43c64 0 110 -15.667 138 -47s42 -78 42 -140v-274h-100v52c-27.333 -38.667 -71.666 -58 -132.999 -58c-42 0 -76 12.333 -102 37s-39 58.334 -39 101.001c0 47.333 15.333 83.5 46 108.5s70 37.5 118 37.5
c41.333 0 75.333 -9.66699 102 -29c1.33301 39.333 -4.33398 68.5 -17.001 87.5s-35 28.5 -67 28.5c-33.333 0 -72.666 -10.333 -117.999 -31zM213.999 90.999c38.667 0 67.667 13.667 87 41v46c-19.333 14.667 -45.666 22 -78.999 22
c-20.667 0 -37.834 -4.83301 -51.501 -14.5s-20.5 -23.5 -20.5 -41.5c0 -16.667 6 -29.667 18 -39s27.333 -14 46 -14zM101.999 537.999l-47 52c36.667 46 77 69 121 69c16 0 35.833 -7 59.5 -21s42.167 -21 55.5 -21c9.33301 0 18 1.5 26 4.5s14.333 6 19 9
s12.667 8.83301 24 17.5l39 -58c-39.333 -43.333 -78.333 -65 -117 -65c-14.667 0 -34 6.83301 -58 20.5s-43.667 20.5 -59 20.5s-36.333 -9.33301 -63 -28z" />
    <glyph glyph-name="adieresis" unicode="&#xe4;" horiz-adv-x="463" 
d="M99 334l-29.001 83.999c48.667 28.667 101.667 43 159 43c64 0 110 -15.667 138 -47s42 -78 42 -140v-274h-100v52c-27.333 -38.667 -71.666 -58 -132.999 -58c-42 0 -76 12.333 -102 37s-39 58.334 -39 101.001c0 47.333 15.333 83.5 46 108.5s70 37.5 118 37.5
c41.333 0 75.333 -9.66699 102 -29c1.33301 39.333 -4.33398 68.5 -17.001 87.5s-35 28.5 -67 28.5c-33.333 0 -72.666 -10.333 -117.999 -31zM213.999 90.999c38.667 0 67.667 13.667 87 41v46c-19.333 14.667 -45.666 22 -78.999 22
c-20.667 0 -37.834 -4.83301 -51.501 -14.5s-20.5 -23.5 -20.5 -41.5c0 -16.667 6 -29.667 18 -39s27.333 -14 46 -14zM73.999 598.999c0 19.333 6.33301 34.833 19 46.5s28 17.5 46 17.5c16 0 30 -5.83301 42 -17.5s18 -27.167 18 -46.5c0 -20.667 -6 -37 -18 -49
s-26 -18 -42 -18c-18 0 -33.333 6 -46 18s-19 28.333 -19 49zM272.999 598.999c0 19.333 6.16797 34.833 18.501 46.5s27.5 17.5 45.5 17.5c16 0 30 -5.83301 42 -17.5s18 -27.167 18 -46.5c0 -20.667 -5.83301 -37 -17.5 -49s-25.834 -18 -42.501 -18
c-18 0 -33.167 6 -45.5 18s-18.5 28.333 -18.5 49z" />
    <glyph glyph-name="aring" unicode="&#xe5;" horiz-adv-x="463" 
d="M99 334l-29.001 83.999c48.667 28.667 101.667 43 159 43c64 0 110 -15.667 138 -47s42 -78 42 -140v-274h-100v52c-27.333 -38.667 -71.666 -58 -132.999 -58c-42 0 -76 12.333 -102 37s-39 58.334 -39 101.001c0 47.333 15.333 83.5 46 108.5s70 37.5 118 37.5
c41.333 0 75.333 -9.66699 102 -29c1.33301 39.333 -4.33398 68.5 -17.001 87.5s-35 28.5 -67 28.5c-33.333 0 -72.666 -10.333 -117.999 -31zM213.999 90.999c38.667 0 67.667 13.667 87 41v46c-19.333 14.667 -45.666 22 -78.999 22
c-20.667 0 -37.834 -4.83301 -51.501 -14.5s-20.5 -23.5 -20.5 -41.5c0 -16.667 6 -29.667 18 -39s27.333 -14 46 -14zM110.999 611.999c0 33.333 12 61.666 36 84.999s54 35 90 35c36.667 0 67.167 -11.667 91.5 -35s36.5 -51.666 36.5 -84.999
c0 -32.667 -12.167 -60.5 -36.5 -83.5s-54.833 -34.5 -91.5 -34.5c-36 0 -66 11.5 -90 34.5s-36 50.833 -36 83.5zM184.999 612.999c0 -16 5 -29.5 15 -40.5s23 -16.5 39 -16.5c15.333 0 27.833 5.5 37.5 16.5s14.5 24.5 14.5 40.5s-4.83301 29.333 -14.5 40
s-22.167 16 -37.5 16c-16 0 -29 -5.33301 -39 -16s-15 -24 -15 -40z" />
    <glyph glyph-name="ae" unicode="&#xe6;" horiz-adv-x="759" 
d="M229 461c62 0 108 -15.668 138 -47.001c42 31.333 92 47 150 47c59.333 0 109.666 -19.5 150.999 -58.5s62 -89.167 62 -150.5c0 -21.333 -2.33301 -42 -7 -62h-314v-43c9.33301 -18.667 24.833 -33.667 46.5 -45s47.167 -17 76.5 -17c50 0 92.667 13.667 128 41l32 -81
c-46.667 -37.333 -103 -56 -169 -56c-72 0 -129.667 19.667 -173 59c-48 -38 -99.333 -57 -154 -57c-52 0 -91.833 12.833 -119.5 38.5s-41.5 61.834 -41.5 108.501c0 42.667 15.167 76.667 45.5 102s69.833 38 118.5 38c16.667 0 35.5 -2.33301 56.5 -7
s36.167 -9.66699 45.5 -15c3.33301 34.667 -2.16699 61.5 -16.5 80.5s-35.166 28.5 -62.499 28.5c-36.667 0 -77.667 -10.333 -123 -31l-29 84c50.667 28.667 103.667 43 159 43zM409 273.999l-0.00195312 -7h206c-1.33301 29.333 -11.166 53 -29.499 71
s-44.166 27 -77.499 27c-45.333 0 -79 -19 -101 -57c1.33301 -14.667 2 -26 2 -34zM213.998 90.999c30.667 0 59.334 12.667 86.001 38l1 57c-24 9.33301 -50.333 14 -79 14c-20.667 0 -37.834 -5.16699 -51.501 -15.5s-20.5 -23.833 -20.5 -40.5
c0 -15.333 5.66699 -28 17 -38s27 -15 47 -15z" />
    <glyph glyph-name="ccedilla" unicode="&#xe7;" horiz-adv-x="487" 
d="M139 -166l34 54.002c22 -17.333 45.333 -26 70 -26c26 0 39 8.33301 39 25c0 18.667 -13.667 28 -41 28h-6v78c-60.667 8.66699 -109 33.667 -145 75s-54 93.666 -54 156.999c0 66.667 22 122.667 66 168s99.667 68 167 68c80 0 140.333 -20.333 181 -61l-54 -91
c-30 29.333 -67.333 44 -112 44c-33.333 0 -62.5 -11.833 -87.5 -35.5s-37.5 -54.5 -37.5 -92.5c0 -38.667 12.833 -69.834 38.5 -93.501s56.167 -35.5 91.5 -35.5c44 0 82.667 18.333 116 55l54 -84c-36.667 -48.667 -92 -74.667 -166 -78v-24
c69.333 -4 104 -32.333 104 -85c0 -26.667 -12 -48 -36 -64s-58 -24 -102 -24c-42 0 -82 14 -120 42z" />
    <glyph glyph-name="egrave" unicode="&#xe8;" horiz-adv-x="516" 
d="M417 126l33 -81.001c-44 -37.333 -101.333 -56 -172 -56c-72.667 0 -131.167 21.667 -175.5 65s-66.5 100.333 -66.5 171c0 67.333 21.667 123.5 65 168.5s101 67.5 173 67.5c59.333 0 109.666 -19.5 150.999 -58.5s62 -89.167 62 -150.5c0 -25.333 -2.33301 -46 -7 -62
h-325c4.66699 -33.333 19.334 -59.166 44.001 -77.499s55 -27.5 91 -27.5c50.667 0 93 13.667 127 41zM269 364.999c-65.333 0 -104.667 -32.667 -118 -98h221c0.666992 28 -8.33301 51.333 -27 70s-44 28 -76 28zM287.999 516.999l-127 143l91 68l104 -163z" />
    <glyph glyph-name="eacute" unicode="&#xe9;" horiz-adv-x="516" 
d="M417 126l33 -81.001c-44 -37.333 -101.333 -56 -172 -56c-72.667 0 -131.167 21.667 -175.5 65s-66.5 100.333 -66.5 171c0 67.333 21.667 123.5 65 168.5s101 67.5 173 67.5c59.333 0 109.666 -19.5 150.999 -58.5s62 -89.167 62 -150.5c0 -25.333 -2.33301 -46 -7 -62
h-325c4.66699 -33.333 19.334 -59.166 44.001 -77.499s55 -27.5 91 -27.5c50.667 0 93 13.667 127 41zM269 364.999c-65.333 0 -104.667 -32.667 -118 -98h221c0.666992 28 -8.33301 51.333 -27 70s-44 28 -76 28zM399.999 661.999l-126 -145l-69 48l105 165z" />
    <glyph glyph-name="ecircumflex" unicode="&#xea;" horiz-adv-x="516" 
d="M417 126l33 -81.001c-44 -37.333 -101.333 -56 -172 -56c-72.667 0 -131.167 21.667 -175.5 65s-66.5 100.333 -66.5 171c0 67.333 21.667 123.5 65 168.5s101 67.5 173 67.5c59.333 0 109.666 -19.5 150.999 -58.5s62 -89.167 62 -150.5c0 -25.333 -2.33301 -46 -7 -62
h-325c4.66699 -33.333 19.334 -59.166 44.001 -77.499s55 -27.5 91 -27.5c50.667 0 93 13.667 127 41zM269 364.999c-65.333 0 -104.667 -32.667 -118 -98h221c0.666992 28 -8.33301 51.333 -27 70s-44 28 -76 28zM270.999 705.999l152 -134l-54 -68l-101 81l-102 -79
l-52 67l153 133h4z" />
    <glyph glyph-name="edieresis" unicode="&#xeb;" horiz-adv-x="516" 
d="M417 126l33 -81.001c-44 -37.333 -101.333 -56 -172 -56c-72.667 0 -131.167 21.667 -175.5 65s-66.5 100.333 -66.5 171c0 67.333 21.667 123.5 65 168.5s101 67.5 173 67.5c59.333 0 109.666 -19.5 150.999 -58.5s62 -89.167 62 -150.5c0 -25.333 -2.33301 -46 -7 -62
h-325c4.66699 -33.333 19.334 -59.166 44.001 -77.499s55 -27.5 91 -27.5c50.667 0 93 13.667 127 41zM269 364.999c-65.333 0 -104.667 -32.667 -118 -98h221c0.666992 28 -8.33301 51.333 -27 70s-44 28 -76 28zM106.999 598.999c0 19.333 6.33301 34.833 19 46.5
s28 17.5 46 17.5c16 0 30 -5.83301 42 -17.5s18 -27.167 18 -46.5c0 -20.667 -6 -37 -18 -49s-26 -18 -42 -18c-18 0 -33.333 6 -46 18s-19 28.333 -19 49zM305.999 598.999c0 19.333 6.16797 34.833 18.501 46.5s27.5 17.5 45.5 17.5c16 0 30 -5.83301 42 -17.5
s18 -27.167 18 -46.5c0 -20.667 -5.83301 -37 -17.5 -49s-25.834 -18 -42.501 -18c-18 0 -33.167 6 -45.5 18s-18.5 28.333 -18.5 49z" />
    <glyph glyph-name="igrave" unicode="&#xec;" horiz-adv-x="277" 
d="M81 0v450h115v-450h-115zM123 517l-127 143l91 68l104 -163z" />
    <glyph glyph-name="iacute" unicode="&#xed;" horiz-adv-x="277" 
d="M81 0v450h115v-450h-115zM258 662l-126 -145l-69 48l105 165z" />
    <glyph glyph-name="icircumflex" unicode="&#xee;" horiz-adv-x="277" 
d="M81 0v450h115v-450h-115zM141 706l152 -134l-54 -68l-101 81l-102 -79l-52 67l153 133h4z" />
    <glyph glyph-name="idieresis" unicode="&#xef;" horiz-adv-x="277" 
d="M81 0v450h115v-450h-115zM-23 599c0 19.333 6.33301 34.833 19 46.5s28 17.5 46 17.5c16 0 30 -5.83301 42 -17.5s18 -27.167 18 -46.5c0 -20.667 -6 -37 -18 -49s-26 -18 -42 -18c-18 0 -33.333 6 -46 18s-19 28.333 -19 49zM176 599
c0 19.333 6.16797 34.833 18.501 46.5s27.5 17.5 45.5 17.5c16 0 30 -5.83301 42 -17.5s18 -27.167 18 -46.5c0 -20.667 -5.83301 -37 -17.5 -49s-25.834 -18 -42.501 -18c-18 0 -33.167 6 -45.5 18s-18.5 28.333 -18.5 49z" />
    <glyph glyph-name="eth" unicode="&#xf0;" horiz-adv-x="562" 
d="M189 493l-33.001 101.998l82 29c-28 26 -57.333 48.667 -88 68l129 19c22.667 -13.333 45 -29.333 67 -48l104 37l32 -102l-59 -21c32.667 -47.333 58 -98.666 76 -153.999s27 -108.333 27 -159c0 -86 -22 -153.333 -66 -202s-103.667 -73 -179 -73
c-73.333 0 -132.5 22.167 -177.5 66.5s-67.5 100.833 -67.5 169.5s22.5 125.167 67.5 169.5s104.167 66.5 177.5 66.5c41.333 0 73 -15 95 -45c-13.333 42.667 -33.666 83.334 -60.999 122.001zM158.999 224.998c0 -37.333 11.5 -68.168 34.5 -92.501
s52.167 -36.5 87.5 -36.5c39.333 0 70.333 15.5 93 46.5s32.667 73.167 30 126.5c-7.33301 24.667 -22 44.834 -44 60.501s-48.333 23.5 -79 23.5c-34.667 0 -63.667 -11.833 -87 -35.5s-35 -54.5 -35 -92.5z" />
    <glyph glyph-name="ntilde" unicode="&#xf1;" horiz-adv-x="546" 
d="M64 0l0.000976562 450h115v-45c32.667 35.333 75.667 53 129 53c123.333 0 185 -64.667 185 -194v-264h-115v244c0 70.667 -33.667 106 -101 106c-36.667 0 -69.334 -14.333 -98.001 -43v-307h-115zM146.001 538l-47 52c36.667 46 77 69 121 69c16 0 35.833 -7 59.5 -21
s42.167 -21 55.5 -21c9.33301 0 18 1.5 26 4.5s14.333 6 19 9s12.667 8.83301 24 17.5l39 -58c-39.333 -43.333 -78.333 -65 -117 -65c-14.667 0 -34 6.83301 -58 20.5s-43.667 20.5 -59 20.5s-36.333 -9.33301 -63 -28z" />
    <glyph glyph-name="ograve" unicode="&#xf2;" horiz-adv-x="562" 
d="M36 225c0 68.667 22.5 125.167 67.5 169.5s104.167 66.5 177.5 66.5s132.5 -22.167 177.5 -66.5s67.5 -100.833 67.5 -169.5s-22.5 -125.167 -67.5 -169.5s-104.167 -66.5 -177.5 -66.5s-132.5 22.167 -177.5 66.5s-67.5 100.833 -67.5 169.5zM159 225
c0 -37.333 11.499 -68.168 34.499 -92.501s52.167 -36.5 87.5 -36.5c36 0 65.5 11.833 88.5 35.5s34.5 54.834 34.5 93.501c0 37.333 -11.667 68 -35 92s-52.666 36 -87.999 36c-34.667 0 -63.667 -11.833 -87 -35.5s-35 -54.5 -35 -92.5zM283.999 516.998l-127 143l91 68
l104 -163z" />
    <glyph glyph-name="oacute" unicode="&#xf3;" horiz-adv-x="562" 
d="M36 225c0 68.667 22.5 125.167 67.5 169.5s104.167 66.5 177.5 66.5s132.5 -22.167 177.5 -66.5s67.5 -100.833 67.5 -169.5s-22.5 -125.167 -67.5 -169.5s-104.167 -66.5 -177.5 -66.5s-132.5 22.167 -177.5 66.5s-67.5 100.833 -67.5 169.5zM159 225
c0 -37.333 11.499 -68.168 34.499 -92.501s52.167 -36.5 87.5 -36.5c36 0 65.5 11.833 88.5 35.5s34.5 54.834 34.5 93.501c0 37.333 -11.667 68 -35 92s-52.666 36 -87.999 36c-34.667 0 -63.667 -11.833 -87 -35.5s-35 -54.5 -35 -92.5zM405.999 661.998l-126 -145l-69 48
l105 165z" />
    <glyph glyph-name="ocircumflex" unicode="&#xf4;" horiz-adv-x="562" 
d="M36 225c0 68.667 22.5 125.167 67.5 169.5s104.167 66.5 177.5 66.5s132.5 -22.167 177.5 -66.5s67.5 -100.833 67.5 -169.5s-22.5 -125.167 -67.5 -169.5s-104.167 -66.5 -177.5 -66.5s-132.5 22.167 -177.5 66.5s-67.5 100.833 -67.5 169.5zM159 225
c0 -37.333 11.499 -68.168 34.499 -92.501s52.167 -36.5 87.5 -36.5c36 0 65.5 11.833 88.5 35.5s34.5 54.834 34.5 93.501c0 37.333 -11.667 68 -35 92s-52.666 36 -87.999 36c-34.667 0 -63.667 -11.833 -87 -35.5s-35 -54.5 -35 -92.5zM284.999 705.998l152 -134l-54 -68
l-101 81l-102 -79l-52 67l153 133h4z" />
    <glyph glyph-name="otilde" unicode="&#xf5;" horiz-adv-x="562" 
d="M36 225c0 68.667 22.5 125.167 67.5 169.5s104.167 66.5 177.5 66.5s132.5 -22.167 177.5 -66.5s67.5 -100.833 67.5 -169.5s-22.5 -125.167 -67.5 -169.5s-104.167 -66.5 -177.5 -66.5s-132.5 22.167 -177.5 66.5s-67.5 100.833 -67.5 169.5zM159 225
c0 -37.333 11.499 -68.168 34.499 -92.501s52.167 -36.5 87.5 -36.5c36 0 65.5 11.833 88.5 35.5s34.5 54.834 34.5 93.501c0 37.333 -11.667 68 -35 92s-52.666 36 -87.999 36c-34.667 0 -63.667 -11.833 -87 -35.5s-35 -54.5 -35 -92.5zM153.999 537.998l-47 52
c36.667 46 77 69 121 69c16 0 35.833 -7 59.5 -21s42.167 -21 55.5 -21c9.33301 0 18 1.5 26 4.5s14.333 6 19 9s12.667 8.83301 24 17.5l39 -58c-39.333 -43.333 -78.333 -65 -117 -65c-14.667 0 -34 6.83301 -58 20.5s-43.667 20.5 -59 20.5s-36.333 -9.33301 -63 -28z
" />
    <glyph glyph-name="odieresis" unicode="&#xf6;" horiz-adv-x="562" 
d="M36 225c0 68.667 22.5 125.167 67.5 169.5s104.167 66.5 177.5 66.5s132.5 -22.167 177.5 -66.5s67.5 -100.833 67.5 -169.5s-22.5 -125.167 -67.5 -169.5s-104.167 -66.5 -177.5 -66.5s-132.5 22.167 -177.5 66.5s-67.5 100.833 -67.5 169.5zM159 225
c0 -37.333 11.499 -68.168 34.499 -92.501s52.167 -36.5 87.5 -36.5c36 0 65.5 11.833 88.5 35.5s34.5 54.834 34.5 93.501c0 37.333 -11.667 68 -35 92s-52.666 36 -87.999 36c-34.667 0 -63.667 -11.833 -87 -35.5s-35 -54.5 -35 -92.5zM125.999 598.998
c0 19.333 6.33301 34.833 19 46.5s28 17.5 46 17.5c16 0 30 -5.83301 42 -17.5s18 -27.167 18 -46.5c0 -20.667 -6 -37 -18 -49s-26 -18 -42 -18c-18 0 -33.333 6 -46 18s-19 28.333 -19 49zM324.999 598.998c0 19.333 6.16797 34.833 18.501 46.5s27.5 17.5 45.5 17.5
c16 0 30 -5.83301 42 -17.5s18 -27.167 18 -46.5c0 -20.667 -5.83301 -37 -17.5 -49s-25.834 -18 -42.501 -18c-18 0 -33.167 6 -45.5 18s-18.5 28.333 -18.5 49z" />
    <glyph glyph-name="divide" unicode="&#xf7;" 
d="M230 557c0 17.333 6.16699 32.5 18.5 45.5s28.833 19.5 49.5 19.5c20 0 36.167 -6.5 48.5 -19.5s18.5 -28.167 18.5 -45.5c0 -18.667 -6.16699 -35 -18.5 -49s-28.5 -21 -48.5 -21c-20.667 0 -37.167 7 -49.5 21s-18.5 30.333 -18.5 49zM230 164
c0 16.667 6.16699 31.834 18.5 45.501s28.833 20.5 49.5 20.5c19.333 0 35.333 -6.83301 48 -20.5s19 -28.834 19 -45.501c0 -18.667 -6.16699 -35 -18.5 -49s-28.5 -21 -48.5 -21c-20.667 0 -37.167 6.83301 -49.5 20.5s-18.5 30.167 -18.5 49.5zM66 310v100h464v-100h-464
z" />
    <glyph glyph-name="oslash" unicode="&#xf8;" horiz-adv-x="577" 
d="M49 49l34.999 32c-32 40 -48 88 -48 144c0 68 23.667 124.333 71 169s108 67 182 67c60.667 0 113.334 -16 158.001 -48l39 36l41 -48l-35 -32c32.667 -41.333 49 -89.333 49 -144c0 -68 -23.5 -124.333 -70.5 -169s-107.5 -67 -181.5 -67c-62 0 -115 15.667 -159 47
l-39 -36zM418.999 225c0 24 -4.99902 44.999 -14.999 62.999l-188 -173c21.333 -12.667 45.666 -19 72.999 -19c39.333 0 70.833 11.833 94.5 35.5s35.5 54.834 35.5 93.501zM159 224.999c0 -23.333 4.66699 -44.333 14 -63l188 172c-21.333 12.667 -45.333 19 -72 19
c-38.667 0 -70 -11.667 -94 -35s-36 -54.333 -36 -93z" />
    <glyph glyph-name="ugrave" unicode="&#xf9;" horiz-adv-x="535" 
d="M471 450v-449.999h-115v55c-36 -44 -84 -66 -144 -66c-46.667 0 -84.667 15.667 -114 47s-44 77.666 -44 138.999v275h115v-251c0 -68.667 28.667 -103 86 -103c39.333 0 73 18.333 101 55v299h115zM266 517.001l-127 143l91 68l104 -163z" />
    <glyph glyph-name="uacute" unicode="&#xfa;" horiz-adv-x="535" 
d="M471 450v-449.999h-115v55c-36 -44 -84 -66 -144 -66c-46.667 0 -84.667 15.667 -114 47s-44 77.666 -44 138.999v275h115v-251c0 -68.667 28.667 -103 86 -103c39.333 0 73 18.333 101 55v299h115zM396 662.001l-126 -145l-69 48l105 165z" />
    <glyph glyph-name="ucircumflex" unicode="&#xfb;" horiz-adv-x="535" 
d="M471 450v-449.999h-115v55c-36 -44 -84 -66 -144 -66c-46.667 0 -84.667 15.667 -114 47s-44 77.666 -44 138.999v275h115v-251c0 -68.667 28.667 -103 86 -103c39.333 0 73 18.333 101 55v299h115zM269 706.001l152 -134l-54 -68l-101 81l-102 -79l-52 67l153 133h4z
" />
    <glyph glyph-name="udieresis" unicode="&#xfc;" horiz-adv-x="535" 
d="M471 450v-449.999h-115v55c-36 -44 -84 -66 -144 -66c-46.667 0 -84.667 15.667 -114 47s-44 77.666 -44 138.999v275h115v-251c0 -68.667 28.667 -103 86 -103c39.333 0 73 18.333 101 55v299h115zM103 599.001c0 19.333 6.33301 34.833 19 46.5s28 17.5 46 17.5
c16 0 30 -5.83301 42 -17.5s18 -27.167 18 -46.5c0 -20.667 -6 -37 -18 -49s-26 -18 -42 -18c-18 0 -33.333 6 -46 18s-19 28.333 -19 49zM302 599.001c0 19.333 6.16797 34.833 18.501 46.5s27.5 17.5 45.5 17.5c16 0 30 -5.83301 42 -17.5s18 -27.167 18 -46.5
c0 -20.667 -5.83301 -37 -17.5 -49s-25.834 -18 -42.501 -18c-18 0 -33.167 6 -45.5 18s-18.5 28.333 -18.5 49z" />
    <glyph glyph-name="yacute" unicode="&#xfd;" horiz-adv-x="503" 
d="M498 450l-176.999 -450c-32 -78 -60.5 -130.833 -85.5 -158.5s-54.5 -41.5 -88.5 -41.5c-32.667 0 -65 11.667 -97 35l37 87c18 -10.667 33.667 -16 47 -16c27.333 0 50.333 23.333 69 70l10 24l-208 450h138l105 -246c4 -10 11.333 -31.667 22 -65
c5.33301 29.333 10.666 51.333 15.999 66l81 245h131zM372.001 662l-126 -145l-69 48l105 165z" />
    <glyph glyph-name="thorn" unicode="&#xfe;" horiz-adv-x="558" 
d="M64 -200l0.000976562 900h115v-286c36 31.333 82.333 47 139 47c61.333 0 110.666 -21.333 147.999 -64s56 -97.667 56 -165c0 -70 -22 -128 -66 -174s-101.333 -69 -172 -69c-44.667 0 -79.667 7.33301 -105 22v-211h-115zM282.001 353
c-39.333 0 -73.6689 -16.333 -103.002 -49v-182c26.667 -17.333 58.334 -26 95.001 -26c38.667 0 69.334 12.5 92.001 37.5s34 56.833 34 95.5c0 36.667 -10.333 66.5 -31 89.5s-49.667 34.5 -87 34.5z" />
    <glyph glyph-name="ydieresis" unicode="&#xff;" horiz-adv-x="503" 
d="M498 450l-176.999 -450c-32 -78 -60.5 -130.833 -85.5 -158.5s-54.5 -41.5 -88.5 -41.5c-32.667 0 -65 11.667 -97 35l37 87c18 -10.667 33.667 -16 47 -16c27.333 0 50.333 23.333 69 70l10 24l-208 450h138l105 -246c4 -10 11.333 -31.667 22 -65
c5.33301 29.333 10.666 51.333 15.999 66l81 245h131zM97.001 599c0 19.333 6.33301 34.833 19 46.5s28 17.5 46 17.5c16 0 30 -5.83301 42 -17.5s18 -27.167 18 -46.5c0 -20.667 -6 -37 -18 -49s-26 -18 -42 -18c-18 0 -33.333 6 -46 18s-19 28.333 -19 49zM296.001 599
c0 19.333 6.16797 34.833 18.501 46.5s27.5 17.5 45.5 17.5c16 0 30 -5.83301 42 -17.5s18 -27.167 18 -46.5c0 -20.667 -5.83301 -37 -17.5 -49s-25.834 -18 -42.501 -18c-18 0 -33.167 6 -45.5 18s-18.5 28.333 -18.5 49z" />
    <glyph glyph-name="Amacron" unicode="&#x100;" horiz-adv-x="715" 
d="M7 0l296 702h108l296 -702h-131l-73 179h-299l-73 -179h-124zM354 543l-103 -249h205zM202 760v92h309v-92h-309z" />
    <glyph glyph-name="amacron" unicode="&#x101;" horiz-adv-x="463" 
d="M99 334l-29.001 83.999c48.667 28.667 101.667 43 159 43c64 0 110 -15.667 138 -47s42 -78 42 -140v-274h-100v52c-27.333 -38.667 -71.666 -58 -132.999 -58c-42 0 -76 12.333 -102 37s-39 58.334 -39 101.001c0 47.333 15.333 83.5 46 108.5s70 37.5 118 37.5
c41.333 0 75.333 -9.66699 102 -29c1.33301 39.333 -4.33398 68.5 -17.001 87.5s-35 28.5 -67 28.5c-33.333 0 -72.666 -10.333 -117.999 -31zM213.999 90.999c38.667 0 67.667 13.667 87 41v46c-19.333 14.667 -45.666 22 -78.999 22
c-20.667 0 -37.834 -4.83301 -51.501 -14.5s-20.5 -23.5 -20.5 -41.5c0 -16.667 6 -29.667 18 -39s27.333 -14 46 -14zM95.999 549.999v92h279v-92h-279z" />
    <glyph glyph-name="Abreve" unicode="&#x102;" horiz-adv-x="715" 
d="M7 0l296 702h108l296 -702h-131l-73 179h-299l-73 -179h-124zM354 543l-103 -249h205zM169 841l50.001 59c37.333 -42 85 -63 143 -63c56.667 0 103.334 21 140.001 63l43 -60c-18 -28.667 -43.5 -53 -76.5 -73s-68.5 -30 -106.5 -30
c-42.667 0 -81.334 10.5 -116.001 31.5s-60.334 45.167 -77.001 72.5z" />
    <glyph glyph-name="abreve" unicode="&#x103;" horiz-adv-x="463" 
d="M99 334l-29.001 83.999c48.667 28.667 101.667 43 159 43c64 0 110 -15.667 138 -47s42 -78 42 -140v-274h-100v52c-27.333 -38.667 -71.666 -58 -132.999 -58c-42 0 -76 12.333 -102 37s-39 58.334 -39 101.001c0 47.333 15.333 83.5 46 108.5s70 37.5 118 37.5
c41.333 0 75.333 -9.66699 102 -29c1.33301 39.333 -4.33398 68.5 -17.001 87.5s-35 28.5 -67 28.5c-33.333 0 -72.666 -10.333 -117.999 -31zM213.999 90.999c38.667 0 67.667 13.667 87 41v46c-19.333 14.667 -45.666 22 -78.999 22
c-20.667 0 -37.834 -4.83301 -51.501 -14.5s-20.5 -23.5 -20.5 -41.5c0 -16.667 6 -29.667 18 -39s27.333 -14 46 -14zM68.999 623.999l51 57c34 -37.333 70.667 -56 110 -56c46 0 83.333 18.333 112 55l40 -56c-41.333 -61.333 -93.666 -92 -156.999 -92
c-38 0 -70.333 9.83301 -97 29.5s-46.334 40.5 -59.001 62.5z" />
    <glyph glyph-name="Aogonek" unicode="&#x104;" horiz-adv-x="715" 
d="M669 -98l35.002 -70c-8.66699 -8.66699 -22.834 -16.167 -42.501 -22.5s-39.834 -9.5 -60.501 -9.5c-38 0 -69.833 7.66699 -95.5 23s-38.5 39 -38.5 71c0 50 36 86.333 108 109l-72 176h-299l-73 -179h-124l296 702h108l296 -702h-21c-28 -0.666992 -52.333 -8 -73 -22
s-31 -29.333 -31 -46c0 -14 4.5 -24.167 13.5 -30.5s19.5 -9.5 31.5 -9.5c14 0 28 3.33301 42 10zM354.002 543l-103 -249h205z" />
    <glyph glyph-name="aogonek" unicode="&#x105;" horiz-adv-x="463" 
d="M387 -98l35.001 -70.001c-8.66699 -8.66699 -22.834 -16.167 -42.501 -22.5s-39.834 -9.5 -60.501 -9.5c-38 0 -69.833 7.66699 -95.5 23s-38.5 39 -38.5 71c0 28 11.5 51.5 34.5 70.5s52.833 33.167 89.5 42.5v45c-27.333 -38.667 -71.666 -58 -132.999 -58
c-42 0 -76 12.333 -102 37s-39 58.334 -39 101.001c0 47.333 15.333 83.5 46 108.5s70 37.5 118 37.5c41.333 0 75.333 -9.66699 102 -29c1.33301 39.333 -4.33398 68.5 -17.001 87.5s-35 28.5 -67 28.5c-33.333 0 -72.666 -10.333 -117.999 -31l-29 84
c48.667 28.667 101.667 43 159 43c64 0 110 -15.667 138 -47s42 -78 42 -140v-274c-29.333 0 -54.833 -7 -76.5 -21s-32.5 -29.667 -32.5 -47c0 -14 4.5 -24.167 13.5 -30.5s19.5 -9.5 31.5 -9.5c14 0 28 3.33301 42 10zM214.001 90.999c38.667 0 67.667 13.667 87 41v46
c-19.333 14.667 -45.666 22 -78.999 22c-20.667 0 -37.834 -4.83301 -51.501 -14.5s-20.5 -23.5 -20.5 -41.5c0 -16.667 6 -29.667 18 -39s27.333 -14 46 -14z" />
    <glyph glyph-name="Cacute" unicode="&#x106;" horiz-adv-x="655" 
d="M583 160l47 -91.998c-22 -23.333 -53.5 -42.333 -94.5 -57s-84.167 -22 -129.5 -22c-107.333 0 -194.333 33 -261 99s-100 153.333 -100 262c0 104.667 31.667 191 95 259s151 102 263 102c90 0 161 -23.667 213 -71l-55 -91c-47.333 31.333 -100 47 -158 47
c-66 0 -120.5 -22.333 -163.5 -67s-64.5 -104.334 -64.5 -179.001c0 -72.667 22.5 -131.834 67.5 -177.501s103.167 -68.5 174.5 -68.5c62 0 117.333 18.667 166 56zM557 812.002l-225 -81l-32 69l214 111z" />
    <glyph glyph-name="cacute" unicode="&#x107;" horiz-adv-x="487" 
d="M405 151l54.001 -84c-18.667 -25.333 -43.834 -44.666 -75.501 -57.999s-66.167 -20 -103.5 -20c-73.333 0 -132.333 21.667 -177 65s-67 100.333 -67 171c0 66.667 22 122.667 66 168s99.667 68 167 68c80 0 140.333 -20.333 181 -61l-54 -91
c-30 29.333 -67.333 44 -112 44c-33.333 0 -62.5 -11.833 -87.5 -35.5s-37.5 -54.5 -37.5 -92.5c0 -38.667 12.833 -69.834 38.5 -93.501s56.167 -35.5 91.5 -35.5c44 0 82.667 18.333 116 55zM391.001 662l-126 -145l-69 48l105 165z" />
    <glyph glyph-name="Ccircumflex" unicode="&#x108;" horiz-adv-x="655" 
d="M583 160l47 -91.998c-22 -23.333 -53.5 -42.333 -94.5 -57s-84.167 -22 -129.5 -22c-107.333 0 -194.333 33 -261 99s-100 153.333 -100 262c0 104.667 31.667 191 95 259s151 102 263 102c90 0 161 -23.667 213 -71l-55 -91c-47.333 31.333 -100 47 -158 47
c-66 0 -120.5 -22.333 -163.5 -67s-64.5 -104.334 -64.5 -179.001c0 -72.667 22.5 -131.834 67.5 -177.501s103.167 -68.5 174.5 -68.5c62 0 117.333 18.667 166 56zM208 792.002l175 112h4l179 -111l-45 -65l-136 71l-136 -71z" />
    <glyph glyph-name="ccircumflex" unicode="&#x109;" horiz-adv-x="487" 
d="M405 151l54.001 -84c-18.667 -25.333 -43.834 -44.666 -75.501 -57.999s-66.167 -20 -103.5 -20c-73.333 0 -132.333 21.667 -177 65s-67 100.333 -67 171c0 66.667 22 122.667 66 168s99.667 68 167 68c80 0 140.333 -20.333 181 -61l-54 -91
c-30 29.333 -67.333 44 -112 44c-33.333 0 -62.5 -11.833 -87.5 -35.5s-37.5 -54.5 -37.5 -92.5c0 -38.667 12.833 -69.834 38.5 -93.501s56.167 -35.5 91.5 -35.5c44 0 82.667 18.333 116 55zM279.001 706l152 -134l-54 -68l-101 81l-102 -79l-52 67l153 133h4z" />
    <glyph glyph-name="Cdotaccent" unicode="&#x10a;" horiz-adv-x="655" 
d="M583 160l47 -91.998c-22 -23.333 -53.5 -42.333 -94.5 -57s-84.167 -22 -129.5 -22c-107.333 0 -194.333 33 -261 99s-100 153.333 -100 262c0 104.667 31.667 191 95 259s151 102 263 102c90 0 161 -23.667 213 -71l-55 -91c-47.333 31.333 -100 47 -158 47
c-66 0 -120.5 -22.333 -163.5 -67s-64.5 -104.334 -64.5 -179.001c0 -72.667 22.5 -131.834 67.5 -177.501s103.167 -68.5 174.5 -68.5c62 0 117.333 18.667 166 56zM304 831.002c0 21.333 7.66699 38.502 23 51.502s34 19.5 56 19.5c20 0 37.5 -6.5 52.5 -19.5
s22.5 -30.167 22.5 -51.5c0 -22.667 -7.5 -40.834 -22.5 -54.501s-32.5 -20.5 -52.5 -20.5c-22 0 -40.667 6.66699 -56 20s-23 31.666 -23 54.999z" />
    <glyph glyph-name="cdotaccent" unicode="&#x10b;" horiz-adv-x="487" 
d="M405 151l54.001 -84c-18.667 -25.333 -43.834 -44.666 -75.501 -57.999s-66.167 -20 -103.5 -20c-73.333 0 -132.333 21.667 -177 65s-67 100.333 -67 171c0 66.667 22 122.667 66 168s99.667 68 167 68c80 0 140.333 -20.333 181 -61l-54 -91
c-30 29.333 -67.333 44 -112 44c-33.333 0 -62.5 -11.833 -87.5 -35.5s-37.5 -54.5 -37.5 -92.5c0 -38.667 12.833 -69.834 38.5 -93.501s56.167 -35.5 91.5 -35.5c44 0 82.667 18.333 116 55zM203.001 612c0 20 7.00098 36.167 21.001 48.5s31 18.5 51 18.5
c17.333 0 32.666 -6.16699 45.999 -18.5s20 -28.5 20 -48.5c0 -22 -6.66699 -39.5 -20 -52.5s-28.666 -19.5 -45.999 -19.5c-20.667 0 -37.834 6.5 -51.501 19.5s-20.5 30.5 -20.5 52.5z" />
    <glyph glyph-name="Ccaron" unicode="&#x10c;" horiz-adv-x="655" 
d="M583 160l47 -91.998c-22 -23.333 -53.5 -42.333 -94.5 -57s-84.167 -22 -129.5 -22c-107.333 0 -194.333 33 -261 99s-100 153.333 -100 262c0 104.667 31.667 191 95 259s151 102 263 102c90 0 161 -23.667 213 -71l-55 -91c-47.333 31.333 -100 47 -158 47
c-66 0 -120.5 -22.333 -163.5 -67s-64.5 -104.334 -64.5 -179.001c0 -72.667 22.5 -131.834 67.5 -177.501s103.167 -68.5 174.5 -68.5c62 0 117.333 18.667 166 56zM387 735.002l-179 111l45 65l136 -79l135 79l41 -64l-174 -112h-4z" />
    <glyph glyph-name="ccaron" unicode="&#x10d;" horiz-adv-x="487" 
d="M405 151l54.001 -84c-18.667 -25.333 -43.834 -44.666 -75.501 -57.999s-66.167 -20 -103.5 -20c-73.333 0 -132.333 21.667 -177 65s-67 100.333 -67 171c0 66.667 22 122.667 66 168s99.667 68 167 68c80 0 140.333 -20.333 181 -61l-54 -91
c-30 29.333 -67.333 44 -112 44c-33.333 0 -62.5 -11.833 -87.5 -35.5s-37.5 -54.5 -37.5 -92.5c0 -38.667 12.833 -69.834 38.5 -93.501s56.167 -35.5 91.5 -35.5c44 0 82.667 18.333 116 55zM267.001 509l-152 134l54 68l101 -92l102 90l52 -67l-153 -133h-4z" />
    <glyph glyph-name="Dcaron" unicode="&#x10e;" horiz-adv-x="741" 
d="M97 0v700h13c13.333 0 44.333 0.5 93 1.5s82 1.5 100 1.5c68 0 127.667 -9.16699 179 -27.5s92.333 -43.833 123 -76.5s53.5 -69.167 68.5 -109.5s22.5 -84.5 22.5 -132.5c0 -104 -34.833 -189.833 -104.5 -257.5s-168.5 -101.5 -296.5 -101.5
c-12 0 -39.833 0.333008 -83.5 1s-77.167 1 -100.5 1h-14zM301 588c-26 0 -52.999 -0.999023 -80.999 -2.99902v-470c22.667 -1.33301 49 -2 79 -2c83.333 0 148.666 22 195.999 66s71 103.333 71 178c0 71.333 -23.5 127.666 -70.5 168.999s-111.833 62 -194.5 62z
M335.001 735.001l-179 111l45 65l136 -79l135 79l41 -64l-174 -112h-4z" />
    <glyph glyph-name="dcaron" unicode="&#x10f;" horiz-adv-x="556" 
d="M377 0v46.999c-34.667 -36.667 -77.667 -55 -129 -55c-64 0 -115.333 20.833 -154 62.5s-58 96.834 -58 165.501c0 70.667 23 128.5 69 173.5s105.333 67.5 178 67.5c38 0 69.333 -7.33301 94 -22v261h115v-700h-115zM272 98.999c39.333 0 74.334 15.333 105.001 46v181
c-28.667 18 -58.334 27 -89.001 27c-36 0 -66.5 -11.5 -91.5 -34.5s-37.5 -54.5 -37.5 -94.5c0 -38.667 10.833 -69.167 32.5 -91.5s48.5 -33.5 80.5 -33.5zM563.001 699.999l112 -0.000976562c4 -8 6 -19.667 6 -35c0 -79.333 -33 -137.333 -99 -174l-53 50
c30 28.667 45 65.334 45 110.001c0 16.667 -3.66699 33 -11 49z" />
    <glyph glyph-name="Dcroat" unicode="&#x110;" horiz-adv-x="749" 
d="M10 297v108h95v295h13c13.333 0 44.333 0.5 93 1.5s82 1.5 100 1.5c68 0 127.667 -9.16699 179 -27.5s92.333 -43.833 123 -76.5s53.5 -69.167 68.5 -109.5s22.5 -84.5 22.5 -132.5c0 -104 -34.833 -189.833 -104.5 -257.5s-168.5 -101.5 -296.5 -101.5
c-12 0 -40 0.333008 -84 1s-77.333 1 -100 1h-14v297h-95zM309 588c-26.667 0 -54 -0.999023 -82 -2.99902v-180h177v-108h-177v-182c22.667 -1.33301 49.334 -2 80.001 -2c83.333 0 148.666 22 195.999 66s71 103.333 71 178c0 71.333 -23.5 127.666 -70.5 168.999
s-111.833 62 -194.5 62z" />
    <glyph glyph-name="dcroat" unicode="&#x111;" horiz-adv-x="556" 
d="M247 520v92.999h130v87h115v-87h79v-93h-79v-520h-115v47c-34.667 -36.667 -77.667 -55 -129 -55c-64 0 -115.333 20.833 -154 62.5s-58 96.834 -58 165.501c0 70.667 23 128.5 69 173.5s105.333 67.5 178 67.5c38 0 69.333 -7.33301 94 -22v81h-130zM272 98.999
c39.333 0 74.334 15.333 105.001 46v181c-28.667 18 -58.334 27 -89.001 27c-36 0 -66.5 -11.5 -91.5 -34.5s-37.5 -54.5 -37.5 -94.5c0 -38.667 10.833 -69.167 32.5 -91.5s48.5 -33.5 80.5 -33.5z" />
    <glyph glyph-name="Emacron" unicode="&#x112;" horiz-adv-x="575" 
d="M97 0v700h405v-115h-282v-174h252v-115h-252v-181h292v-115h-415zM145 760v92h309v-92h-309z" />
    <glyph glyph-name="emacron" unicode="&#x113;" horiz-adv-x="516" 
d="M417 126l33 -81.001c-44 -37.333 -101.333 -56 -172 -56c-72.667 0 -131.167 21.667 -175.5 65s-66.5 100.333 -66.5 171c0 67.333 21.667 123.5 65 168.5s101 67.5 173 67.5c59.333 0 109.666 -19.5 150.999 -58.5s62 -89.167 62 -150.5c0 -25.333 -2.33301 -46 -7 -62
h-325c4.66699 -33.333 19.334 -59.166 44.001 -77.499s55 -27.5 91 -27.5c50.667 0 93 13.667 127 41zM269 364.999c-65.333 0 -104.667 -32.667 -118 -98h221c0.666992 28 -8.33301 51.333 -27 70s-44 28 -76 28zM124.999 549.999v92h279v-92h-279z" />
    <glyph glyph-name="Edotaccent" unicode="&#x116;" horiz-adv-x="575" 
d="M97 0v700h405v-115h-282v-174h252v-115h-252v-181h292v-115h-415zM227 831c0 21.333 7.66699 38.502 23 51.502s34 19.5 56 19.5c20 0 37.5 -6.5 52.5 -19.5s22.5 -30.167 22.5 -51.5c0 -22.667 -7.5 -40.834 -22.5 -54.501s-32.5 -20.5 -52.5 -20.5
c-22 0 -40.667 6.66699 -56 20s-23 31.666 -23 54.999z" />
    <glyph glyph-name="edotaccent" unicode="&#x117;" horiz-adv-x="516" 
d="M417 126l33 -81.001c-44 -37.333 -101.333 -56 -172 -56c-72.667 0 -131.167 21.667 -175.5 65s-66.5 100.333 -66.5 171c0 67.333 21.667 123.5 65 168.5s101 67.5 173 67.5c59.333 0 109.666 -19.5 150.999 -58.5s62 -89.167 62 -150.5c0 -25.333 -2.33301 -46 -7 -62
h-325c4.66699 -33.333 19.334 -59.166 44.001 -77.499s55 -27.5 91 -27.5c50.667 0 93 13.667 127 41zM269 364.999c-65.333 0 -104.667 -32.667 -118 -98h221c0.666992 28 -8.33301 51.333 -27 70s-44 28 -76 28zM196.999 611.999c0 20 7.00098 36.167 21.001 48.5
s31 18.5 51 18.5c17.333 0 32.666 -6.16699 45.999 -18.5s20 -28.5 20 -48.5c0 -22 -6.66699 -39.5 -20 -52.5s-28.666 -19.5 -45.999 -19.5c-20.667 0 -37.834 6.5 -51.501 19.5s-20.5 30.5 -20.5 52.5z" />
    <glyph glyph-name="Eogonek" unicode="&#x118;" horiz-adv-x="575" 
d="M97 0l0.00195312 700h405v-115h-282v-174h252v-115h-252v-181h292v-115h-5c-28 -0.666992 -52.333 -8 -73 -22s-31 -29.333 -31 -46c0 -14 4.5 -24.167 13.5 -30.5s19.5 -9.5 31.5 -9.5c14 0 28 3.33301 42 10l35 -70c-8.66699 -8.66699 -22.834 -16.167 -42.501 -22.5
s-39.834 -9.5 -60.501 -9.5c-38 0 -69.833 7.66699 -95.5 23s-38.5 39 -38.5 71c0 48 33 83.333 99 106h-290z" />
    <glyph glyph-name="eogonek" unicode="&#x119;" horiz-adv-x="516" 
d="M417 126l33.002 -81.001c-14.667 -13.333 -34 -25 -58 -35c-44 -26.667 -66 -52.667 -66 -78c0 -14 4.5 -24.167 13.5 -30.5s19.5 -9.5 31.5 -9.5c14 0 28 3.33301 42 10l35 -70c-8.66699 -8.66699 -22.834 -16.167 -42.501 -22.5s-39.834 -9.5 -60.501 -9.5
c-38 0 -69.833 7.66699 -95.5 23s-38.5 39 -38.5 71c0 36 25 67.667 75 95h-8c-72.667 0 -131.167 21.667 -175.5 65s-66.5 100.333 -66.5 171c0 67.333 21.667 123.5 65 168.5s101 67.5 173 67.5c59.333 0 109.666 -19.5 150.999 -58.5s62 -89.167 62 -150.5
c0 -25.333 -2.33301 -46 -7 -62h-325c4.66699 -33.333 19.334 -59.166 44.001 -77.499s55 -27.5 91 -27.5c50.667 0 93 13.667 127 41zM269.002 364.999c-65.333 0 -104.667 -32.667 -118 -98h221c0.666992 28 -8.33301 51.333 -27 70s-44 28 -76 28z" />
    <glyph glyph-name="Ecaron" unicode="&#x11a;" horiz-adv-x="575" 
d="M97 0v700h405v-115h-282v-174h252v-115h-252v-181h292v-115h-415zM307 735l-179 111l45 65l136 -79l135 79l41 -64l-174 -112h-4z" />
    <glyph glyph-name="ecaron" unicode="&#x11b;" horiz-adv-x="516" 
d="M417 126l33 -81.001c-44 -37.333 -101.333 -56 -172 -56c-72.667 0 -131.167 21.667 -175.5 65s-66.5 100.333 -66.5 171c0 67.333 21.667 123.5 65 168.5s101 67.5 173 67.5c59.333 0 109.666 -19.5 150.999 -58.5s62 -89.167 62 -150.5c0 -25.333 -2.33301 -46 -7 -62
h-325c4.66699 -33.333 19.334 -59.166 44.001 -77.499s55 -27.5 91 -27.5c50.667 0 93 13.667 127 41zM269 364.999c-65.333 0 -104.667 -32.667 -118 -98h221c0.666992 28 -8.33301 51.333 -27 70s-44 28 -76 28zM270.999 508.999l-152 134l54 68l101 -92l102 90l52 -67
l-153 -133h-4z" />
    <glyph glyph-name="Gcircumflex" unicode="&#x11c;" horiz-adv-x="727" 
d="M388 262l0.00195312 114.999h284v-290c-30 -30 -69.833 -53.833 -119.5 -71.5s-97.167 -26.5 -142.5 -26.5c-113.333 0 -202.5 32.667 -267.5 98s-97.5 153 -97.5 263c0 102.667 32 188.5 96 257.5s148.333 103.5 253 103.5c90 0 165 -23.667 225 -71l-52 -98
c-17.333 16.667 -40.333 29.834 -69 39.501s-58.334 14.5 -89.001 14.5c-69.333 0 -125.666 -21.833 -168.999 -65.5s-65 -103.834 -65 -180.501c0 -74 21.667 -133.5 65 -178.5s100.666 -67.5 171.999 -67.5c26.667 0 54.167 4.83301 82.5 14.5
s49.166 20.834 62.499 33.501v110h-169zM208.002 791.999l175 112h4l179 -111l-45 -65l-136 71l-136 -71z" />
    <glyph glyph-name="gcircumflex" unicode="&#x11d;" horiz-adv-x="499" 
d="M5 -61c0 36 13.1689 65.8369 39.502 89.5039s61.833 40.167 106.5 49.5c-5.33301 9.33301 -8 19.666 -8 30.999c0 12.667 3.33301 23.334 10 32.001c-33.333 13.333 -59.5 33.5 -78.5 60.5s-28.5 57.167 -28.5 90.5c0 46.667 17.667 86.5 53 119.5
s81.666 49.5 138.999 49.5c43.333 0 81.666 -10.667 114.999 -32l136 30l4 -92l-75 -17c7.33301 -18.667 11 -38 11 -58c0 -46 -17.667 -85.167 -53 -117.5s-81.333 -48.5 -138 -48.5h-8c-1.33301 -4 -2 -9.66699 -2 -17c0 -8.66699 2 -16.334 6 -23.001h5
c69.333 0 125.666 -12.333 168.999 -37s65 -61.334 65 -110.001s-21.667 -85.334 -65 -110.001s-99.666 -37 -168.999 -37c-70 0 -126.5 12.167 -169.5 36.5s-64.5 61.166 -64.5 110.499zM112.002 -60.9961c0 -17.333 11.334 -30.833 34.001 -40.5s53.667 -14.5 93 -14.5
c84 0 126 18.333 126 55c0 16.667 -10.833 30 -32.5 40s-52.834 15 -93.501 15c-40 0 -71.167 -5 -93.5 -15s-33.5 -23.333 -33.5 -40zM154.003 292.004c0 -21.333 7.66602 -38.833 22.999 -52.5s35.666 -20.5 60.999 -20.5c24.667 0 44.834 6.66699 60.501 20
s23.5 31 23.5 53s-7.5 40.167 -22.5 54.5s-35.5 21.5 -61.5 21.5c-25.333 0 -45.666 -7.33301 -60.999 -22s-23 -32.667 -23 -54zM246.002 706.004l152 -134l-54 -68l-101 81l-102 -79l-52 67l153 133h4z" />
    <glyph glyph-name="Gbreve" unicode="&#x11e;" horiz-adv-x="727" 
d="M388 262l0.00195312 114.999h284v-290c-30 -30 -69.833 -53.833 -119.5 -71.5s-97.167 -26.5 -142.5 -26.5c-113.333 0 -202.5 32.667 -267.5 98s-97.5 153 -97.5 263c0 102.667 32 188.5 96 257.5s148.333 103.5 253 103.5c90 0 165 -23.667 225 -71l-52 -98
c-17.333 16.667 -40.333 29.834 -69 39.501s-58.334 14.5 -89.001 14.5c-69.333 0 -125.666 -21.833 -168.999 -65.5s-65 -103.834 -65 -180.501c0 -74 21.667 -133.5 65 -178.5s100.666 -67.5 171.999 -67.5c26.667 0 54.167 4.83301 82.5 14.5
s49.166 20.834 62.499 33.501v110h-169zM214.002 840.999l50.001 59c37.333 -42 85 -63 143 -63c56.667 0 103.334 21 140.001 63l43 -60c-18 -28.667 -43.5 -53 -76.5 -73s-68.5 -30 -106.5 -30c-42.667 0 -81.334 10.5 -116.001 31.5s-60.334 45.167 -77.001 72.5z" />
    <glyph glyph-name="gbreve" unicode="&#x11f;" horiz-adv-x="499" 
d="M5 -61c0 36 13.1689 65.8369 39.502 89.5039s61.833 40.167 106.5 49.5c-5.33301 9.33301 -8 19.666 -8 30.999c0 12.667 3.33301 23.334 10 32.001c-33.333 13.333 -59.5 33.5 -78.5 60.5s-28.5 57.167 -28.5 90.5c0 46.667 17.667 86.5 53 119.5
s81.666 49.5 138.999 49.5c43.333 0 81.666 -10.667 114.999 -32l136 30l4 -92l-75 -17c7.33301 -18.667 11 -38 11 -58c0 -46 -17.667 -85.167 -53 -117.5s-81.333 -48.5 -138 -48.5h-8c-1.33301 -4 -2 -9.66699 -2 -17c0 -8.66699 2 -16.334 6 -23.001h5
c69.333 0 125.666 -12.333 168.999 -37s65 -61.334 65 -110.001s-21.667 -85.334 -65 -110.001s-99.666 -37 -168.999 -37c-70 0 -126.5 12.167 -169.5 36.5s-64.5 61.166 -64.5 110.499zM112.002 -60.9961c0 -17.333 11.334 -30.833 34.001 -40.5s53.667 -14.5 93 -14.5
c84 0 126 18.333 126 55c0 16.667 -10.833 30 -32.5 40s-52.834 15 -93.501 15c-40 0 -71.167 -5 -93.5 -15s-33.5 -23.333 -33.5 -40zM154.003 292.004c0 -21.333 7.66602 -38.833 22.999 -52.5s35.666 -20.5 60.999 -20.5c24.667 0 44.834 6.66699 60.501 20
s23.5 31 23.5 53s-7.5 40.167 -22.5 54.5s-35.5 21.5 -61.5 21.5c-25.333 0 -45.666 -7.33301 -60.999 -22s-23 -32.667 -23 -54zM82.002 624.004l51 57c34 -37.333 70.667 -56 110 -56c46 0 83.333 18.333 112 55l40 -56c-41.333 -61.333 -93.666 -92 -156.999 -92
c-38 0 -70.333 9.83301 -97 29.5s-46.334 40.5 -59.001 62.5z" />
    <glyph glyph-name="Gdotaccent" unicode="&#x120;" horiz-adv-x="727" 
d="M388 262l0.00195312 114.999h284v-290c-30 -30 -69.833 -53.833 -119.5 -71.5s-97.167 -26.5 -142.5 -26.5c-113.333 0 -202.5 32.667 -267.5 98s-97.5 153 -97.5 263c0 102.667 32 188.5 96 257.5s148.333 103.5 253 103.5c90 0 165 -23.667 225 -71l-52 -98
c-17.333 16.667 -40.333 29.834 -69 39.501s-58.334 14.5 -89.001 14.5c-69.333 0 -125.666 -21.833 -168.999 -65.5s-65 -103.834 -65 -180.501c0 -74 21.667 -133.5 65 -178.5s100.666 -67.5 171.999 -67.5c26.667 0 54.167 4.83301 82.5 14.5
s49.166 20.834 62.499 33.501v110h-169zM299.002 830.999c0 21.333 7.66699 38.502 23 51.502s34 19.5 56 19.5c20 0 37.5 -6.5 52.5 -19.5s22.5 -30.167 22.5 -51.5c0 -22.667 -7.5 -40.834 -22.5 -54.501s-32.5 -20.5 -52.5 -20.5c-22 0 -40.667 6.66699 -56 20
s-23 31.666 -23 54.999z" />
    <glyph glyph-name="gdotaccent" unicode="&#x121;" horiz-adv-x="499" 
d="M5 -61c0 36 13.1689 65.8369 39.502 89.5039s61.833 40.167 106.5 49.5c-5.33301 9.33301 -8 19.666 -8 30.999c0 12.667 3.33301 23.334 10 32.001c-33.333 13.333 -59.5 33.5 -78.5 60.5s-28.5 57.167 -28.5 90.5c0 46.667 17.667 86.5 53 119.5
s81.666 49.5 138.999 49.5c43.333 0 81.666 -10.667 114.999 -32l136 30l4 -92l-75 -17c7.33301 -18.667 11 -38 11 -58c0 -46 -17.667 -85.167 -53 -117.5s-81.333 -48.5 -138 -48.5h-8c-1.33301 -4 -2 -9.66699 -2 -17c0 -8.66699 2 -16.334 6 -23.001h5
c69.333 0 125.666 -12.333 168.999 -37s65 -61.334 65 -110.001s-21.667 -85.334 -65 -110.001s-99.666 -37 -168.999 -37c-70 0 -126.5 12.167 -169.5 36.5s-64.5 61.166 -64.5 110.499zM112.002 -60.9961c0 -17.333 11.334 -30.833 34.001 -40.5s53.667 -14.5 93 -14.5
c84 0 126 18.333 126 55c0 16.667 -10.833 30 -32.5 40s-52.834 15 -93.501 15c-40 0 -71.167 -5 -93.5 -15s-33.5 -23.333 -33.5 -40zM154.003 292.004c0 -21.333 7.66602 -38.833 22.999 -52.5s35.666 -20.5 60.999 -20.5c24.667 0 44.834 6.66699 60.501 20
s23.5 31 23.5 53s-7.5 40.167 -22.5 54.5s-35.5 21.5 -61.5 21.5c-25.333 0 -45.666 -7.33301 -60.999 -22s-23 -32.667 -23 -54zM169.002 612.004c0 20 7.00098 36.167 21.001 48.5s31 18.5 51 18.5c17.333 0 32.666 -6.16699 45.999 -18.5s20 -28.5 20 -48.5
c0 -22 -6.66699 -39.5 -20 -52.5s-28.666 -19.5 -45.999 -19.5c-20.667 0 -37.834 6.5 -51.501 19.5s-20.5 30.5 -20.5 52.5z" />
    <glyph glyph-name="Gcommaaccent" unicode="&#x122;" horiz-adv-x="727" 
d="M388 262l0.00195312 114.999h284v-290c-30 -30 -69.833 -53.833 -119.5 -71.5s-97.167 -26.5 -142.5 -26.5c-113.333 0 -202.5 32.667 -267.5 98s-97.5 153 -97.5 263c0 102.667 32 188.5 96 257.5s148.333 103.5 253 103.5c90 0 165 -23.667 225 -71l-52 -98
c-17.333 16.667 -40.333 29.834 -69 39.501s-58.334 14.5 -89.001 14.5c-69.333 0 -125.666 -21.833 -168.999 -65.5s-65 -103.834 -65 -180.501c0 -74 21.667 -133.5 65 -178.5s100.666 -67.5 171.999 -67.5c26.667 0 54.167 4.83301 82.5 14.5
s49.166 20.834 62.499 33.501v110h-169zM339.002 -58.001l112 25c13.333 -8 20 -24.333 20 -49c0 -33.333 -12.667 -61 -38 -83s-54 -35.667 -86 -41l-34 50c28.667 12 43 32 43 60c0 17.333 -5.66699 30 -17 38z" />
    <glyph glyph-name="gcommaaccent" unicode="&#x123;" horiz-adv-x="499" 
d="M5 -61c0 36 13.1689 65.8369 39.502 89.5039s61.833 40.167 106.5 49.5c-5.33301 9.33301 -8 19.666 -8 30.999c0 12.667 3.33301 23.334 10 32.001c-33.333 13.333 -59.5 33.5 -78.5 60.5s-28.5 57.167 -28.5 90.5c0 46.667 17.667 86.5 53 119.5
s81.666 49.5 138.999 49.5c43.333 0 81.666 -10.667 114.999 -32l136 30l4 -92l-75 -17c7.33301 -18.667 11 -38 11 -58c0 -46 -17.667 -85.167 -53 -117.5s-81.333 -48.5 -138 -48.5h-8c-1.33301 -4 -2 -9.66699 -2 -17c0 -8.66699 2 -16.334 6 -23.001h5
c69.333 0 125.666 -12.333 168.999 -37s65 -61.334 65 -110.001s-21.667 -85.334 -65 -110.001s-99.666 -37 -168.999 -37c-70 0 -126.5 12.167 -169.5 36.5s-64.5 61.166 -64.5 110.499zM112.002 -60.9961c0 -17.333 11.334 -30.833 34.001 -40.5s53.667 -14.5 93 -14.5
c84 0 126 18.333 126 55c0 16.667 -10.833 30 -32.5 40s-52.834 15 -93.501 15c-40 0 -71.167 -5 -93.5 -15s-33.5 -23.333 -33.5 -40zM154.003 292.004c0 -21.333 7.66602 -38.833 22.999 -52.5s35.666 -20.5 60.999 -20.5c24.667 0 44.834 6.66699 60.501 20
s23.5 31 23.5 53s-7.5 40.167 -22.5 54.5s-35.5 21.5 -61.5 21.5c-25.333 0 -45.666 -7.33301 -60.999 -22s-23 -32.667 -23 -54zM303.002 555.004l-112 -25c-13.333 8 -20 24.333 -20 49c0 33.333 12.667 61 38 83s54 35.667 86 41l34 -50c-28.667 -12 -43 -32 -43 -60
c0 -17.333 5.66699 -30 17 -38z" />
    <glyph glyph-name="Hcircumflex" unicode="&#x124;" horiz-adv-x="760" 
d="M540 0v299h-320v-299h-123v700h123v-286h320v286h122v-700h-122zM202 792l175 112h4l179 -111l-45 -65l-136 71l-136 -71z" />
    <glyph glyph-name="hcircumflex" unicode="&#x125;" horiz-adv-x="546" 
d="M64 0v700h115v-291c34 32.667 77 49 129 49c58 0 103.333 -15.833 136 -47.5s49 -81.5 49 -149.5v-261h-115v246c0 33.333 -8.66699 59 -26 77s-42 27 -74 27c-38.667 0 -71.667 -13.667 -99 -41v-309h-115zM-25 792l175 112h4l179 -111l-45 -65l-136 71l-136 -71z" />
    <glyph glyph-name="Hbar" unicode="&#x126;" horiz-adv-x="770" 
d="M22 506v107h80v87h123v-87h320v87h122v-87h80v-107h-80v-506h-122v299h-320v-299h-123v506h-80zM225 414h320v92h-320v-92z" />
    <glyph glyph-name="hbar" unicode="&#x127;" horiz-adv-x="583" 
d="M-5 505v107h106v88h115v-88h148v-107h-148v-96c34 32.667 77 49 129 49c58 0 103.333 -15.833 136 -47.5s49 -81.5 49 -149.5v-261h-115v246c0 33.333 -8.66699 59 -26 77s-42 27 -74 27c-38.667 0 -71.667 -13.667 -99 -41v-309h-115v505h-106z" />
    <glyph glyph-name="Imacron" unicode="&#x12a;" horiz-adv-x="347" 
d="M112 0v700h123v-700h-123zM23 760v92h309v-92h-309z" />
    <glyph glyph-name="imacron" unicode="&#x12b;" horiz-adv-x="277" 
d="M81 0v450h115v-450h-115zM-1 550v92h279v-92h-279z" />
    <glyph glyph-name="Iogonek" unicode="&#x12e;" horiz-adv-x="347" 
d="M213 -98l35.002 -70c-8.66699 -8.66699 -22.834 -16.167 -42.501 -22.5s-39.834 -9.5 -60.501 -9.5c-38 0 -69.833 7.66699 -95.5 23s-38.5 39 -38.5 71c0 48 33.667 83.333 101 106v700h123v-700c-29.333 0 -54.833 -7 -76.5 -21s-32.5 -29.667 -32.5 -47
c0 -14 4.5 -24.167 13.5 -30.5s19.5 -9.5 31.5 -9.5c14 0 28 3.33301 42 10z" />
    <glyph glyph-name="iogonek" unicode="&#x12f;" horiz-adv-x="277" 
d="M174 -98l35.002 -70c-8.66699 -8.66699 -22.834 -16.167 -42.501 -22.5s-39.834 -9.5 -60.501 -9.5c-38 0 -69.833 7.66699 -95.5 23s-38.5 39 -38.5 71c0 26 10 48.333 30 67s46.333 32.667 79 42v447h115v-450h-5c-28 -0.666992 -52.333 -8 -73 -22
s-31 -29.333 -31 -46c0 -14 4.5 -24.167 13.5 -30.5s19.5 -9.5 31.5 -9.5c14 0 28 3.33301 42 10zM66.002 612c0 20 7.00098 36.167 21.001 48.5s31 18.5 51 18.5c17.333 0 32.666 -6.16699 45.999 -18.5s20 -28.5 20 -48.5c0 -22 -6.66699 -39.5 -20 -52.5
s-28.666 -19.5 -45.999 -19.5c-20.667 0 -37.834 6.5 -51.501 19.5s-20.5 30.5 -20.5 52.5z" />
    <glyph glyph-name="Idotaccent" unicode="&#x130;" horiz-adv-x="347" 
d="M112 0v700h123v-700h-123zM97 831c0 21.333 7.66699 38.502 23 51.502s34 19.5 56 19.5c20 0 37.5 -6.5 52.5 -19.5s22.5 -30.167 22.5 -51.5c0 -22.667 -7.5 -40.834 -22.5 -54.501s-32.5 -20.5 -52.5 -20.5c-22 0 -40.667 6.66699 -56 20s-23 31.666 -23 54.999z" />
    <glyph glyph-name="dotlessi" unicode="&#x131;" horiz-adv-x="277" 
d="M81 0v450h115v-450h-115z" />
    <glyph glyph-name="Jcircumflex" unicode="&#x134;" horiz-adv-x="390" 
d="M293 700v-535c0 -56.667 -14.167 -100.167 -42.5 -130.5s-70.5 -45.5 -126.5 -45.5c-25.333 0 -49 4.33301 -71 13s-38 18.667 -48 30l40 94c19.333 -14.667 40 -22 62 -22c42 0 63 27.333 63 82v514h123zM51 792l175 112h4l179 -111l-45 -65l-136 71l-136 -71z" />
    <glyph glyph-name="jcircumflex" unicode="&#x135;" horiz-adv-x="284" 
d="M202 450v-483c0 -116.667 -47 -175 -141 -175c-49.333 0 -86 10.667 -110 32l31 91c17.333 -10.667 34.333 -16 51 -16c36 0 54 26 54 78v473h115zM147 706l152 -134l-54 -68l-101 81l-102 -79l-52 67l153 133h4z" />
    <glyph glyph-name="Kcommaaccent" unicode="&#x136;" horiz-adv-x="672" 
d="M97 0v700h123v-332l276 332h148l-288 -326l306 -374h-156l-286 361v-361h-123zM269 -58l112 25c13.333 -8 20 -24.333 20 -49c0 -33.333 -12.667 -61 -38 -83s-54 -35.667 -86 -41l-34 50c28.667 12 43 32 43 60c0 17.333 -5.66699 30 -17 38z" />
    <glyph glyph-name="kcommaaccent" unicode="&#x137;" horiz-adv-x="514" 
d="M487 450l-169 -206l189 -244h-148l-178 235l161 215h145zM64 0v700h115v-700h-115zM180 -58l112 25c13.333 -8 20 -24.333 20 -49c0 -33.333 -12.667 -61 -38 -83s-54 -35.667 -86 -41l-34 50c28.667 12 43 32 43 60c0 17.333 -5.66699 30 -17 38z" />
    <glyph glyph-name="Lacute" unicode="&#x139;" horiz-adv-x="547" 
d="M97 0v700h123v-585h315v-115h-438zM452 812l-225 -81l-32 69l214 111z" />
    <glyph glyph-name="lacute" unicode="&#x13a;" horiz-adv-x="299" 
d="M64 124l-0.000976562 576h115v-529c0 -48.667 13 -73 39 -73c14.667 0 30.334 6 47.001 18l24 -88c-31.333 -25.333 -71 -38 -119 -38c-70.667 0 -106 44.667 -106 134zM327.999 812l-225 -81l-32 69l214 111z" />
    <glyph glyph-name="Lcommaaccent" unicode="&#x13b;" horiz-adv-x="547" 
d="M97 0v700h123v-585h315v-115h-438zM244 -58l112 25c13.333 -8 20 -24.333 20 -49c0 -33.333 -12.667 -61 -38 -83s-54 -35.667 -86 -41l-34 50c28.667 12 43 32 43 60c0 17.333 -5.66699 30 -17 38z" />
    <glyph glyph-name="lcommaaccent" unicode="&#x13c;" horiz-adv-x="299" 
d="M64 124l-0.000976562 576h115v-529c0 -48.667 13 -73 39 -73c14.667 0 30.334 6 47.001 18l24 -88c-31.333 -25.333 -71 -38 -119 -38c-70.667 0 -106 44.667 -106 134zM109.999 -58l112 25c13.333 -8 20 -24.333 20 -49c0 -33.333 -12.667 -61 -38 -83
s-54 -35.667 -86 -41l-34 50c28.667 12 43 32 43 60c0 17.333 -5.66699 30 -17 38z" />
    <glyph glyph-name="Lcaron" unicode="&#x13d;" horiz-adv-x="547" 
d="M97 0v700h123v-585h315v-115h-438zM356 700l112 -0.000976562c4 -8 6 -19.667 6 -35c0 -79.333 -33 -137.333 -99 -174l-53 50c30 28.667 45 65.334 45 110.001c0 16.667 -3.66699 33 -11 49z" />
    <glyph glyph-name="lcaron" unicode="&#x13e;" horiz-adv-x="299" 
d="M64 124l-0.000976562 576h115v-529c0 -48.667 13 -73 39 -73c14.667 0 30.334 6 47.001 18l24 -88c-31.333 -25.333 -71 -38 -119 -38c-70.667 0 -106 44.667 -106 134zM255.999 700l112 -0.000976562c4 -8 6 -19.667 6 -35c0 -79.333 -33 -137.333 -99 -174l-53 50
c30 28.667 45 65.334 45 110.001c0 16.667 -3.66699 33 -11 49z" />
    <glyph glyph-name="Ldot" unicode="&#x13f;" horiz-adv-x="547" 
d="M97 0v700h123v-585h315v-115h-438zM356 375c0 18.667 7.33301 35.667 22 51s34 23 58 23c20.667 0 38 -7.66699 52 -23s21 -32.333 21 -51c0 -21.333 -7 -40 -21 -56s-31.333 -24 -52 -24c-24 0 -43.333 8 -58 24s-22 34.667 -22 56z" />
    <glyph glyph-name="ldot" unicode="&#x140;" horiz-adv-x="350" 
d="M64 124l-0.000976562 576h115v-529c0 -48.667 13 -73 39 -73c14.667 0 30.334 6 47.001 18l24 -88c-31.333 -25.333 -71 -38 -119 -38c-70.667 0 -106 44.667 -106 134zM227.999 338c0 20 7.00098 36.167 21.001 48.5s31 18.5 51 18.5
c17.333 0 32.666 -6.16699 45.999 -18.5s20 -28.5 20 -48.5c0 -22 -6.66699 -39.5 -20 -52.5s-28.666 -19.5 -45.999 -19.5c-20.667 0 -37.834 6.5 -51.501 19.5s-20.5 30.5 -20.5 52.5z" />
    <glyph glyph-name="Lslash" unicode="&#x141;" horiz-adv-x="557" 
d="M22 204v118l85 39v339h123v-282l163 75v-117l-163 -76v-185h315v-115h-438v243z" />
    <glyph glyph-name="lslash" unicode="&#x142;" horiz-adv-x="329" 
d="M12 202l-0.000976562 118l72 33v347h115v-294l94 43v-118l-94 -43v-117c0 -48.667 13 -73 39 -73c14.667 0 30.334 6 47.001 18l24 -88c-31.333 -25.333 -71 -38 -119 -38c-70.667 0 -106 44.667 -106 134v111z" />
    <glyph glyph-name="Nacute" unicode="&#x143;" horiz-adv-x="792" 
d="M695 0h-98l-385 485v-485h-115v700h98l385 -487v487h115v-700zM579 812l-225 -81l-32 69l214 111z" />
    <glyph glyph-name="nacute" unicode="&#x144;" horiz-adv-x="546" 
d="M64 0l0.000976562 450h115v-45c32.667 35.333 75.667 53 129 53c123.333 0 185 -64.667 185 -194v-264h-115v244c0 70.667 -33.667 106 -101 106c-36.667 0 -69.334 -14.333 -98.001 -43v-307h-115zM405.001 662l-126 -145l-69 48l105 165z" />
    <glyph glyph-name="Ncommaaccent" unicode="&#x145;" horiz-adv-x="792" 
d="M695 0h-98l-385 485v-485h-115v700h98l385 -487v487h115v-700zM331 -58l112 25c13.333 -8 20 -24.333 20 -49c0 -33.333 -12.667 -61 -38 -83s-54 -35.667 -86 -41l-34 50c28.667 12 43 32 43 60c0 17.333 -5.66699 30 -17 38z" />
    <glyph glyph-name="ncommaaccent" unicode="&#x146;" horiz-adv-x="546" 
d="M64 0l0.000976562 450h115v-45c32.667 35.333 75.667 53 129 53c123.333 0 185 -64.667 185 -194v-264h-115v244c0 70.667 -33.667 106 -101 106c-36.667 0 -69.334 -14.333 -98.001 -43v-307h-115zM206.001 -58l112 25c13.333 -8 20 -24.333 20 -49
c0 -33.333 -12.667 -61 -38 -83s-54 -35.667 -86 -41l-34 50c28.667 12 43 32 43 60c0 17.333 -5.66699 30 -17 38z" />
    <glyph glyph-name="Ncaron" unicode="&#x147;" horiz-adv-x="792" 
d="M695 0h-98l-385 485v-485h-115v700h98l385 -487v487h115v-700zM397 735l-179 111l45 65l136 -79l135 79l41 -64l-174 -112h-4z" />
    <glyph glyph-name="ncaron" unicode="&#x148;" horiz-adv-x="546" 
d="M64 0l0.000976562 450h115v-45c32.667 35.333 75.667 53 129 53c123.333 0 185 -64.667 185 -194v-264h-115v244c0 70.667 -33.667 106 -101 106c-36.667 0 -69.334 -14.333 -98.001 -43v-307h-115zM270.001 509l-152 134l54 68l101 -92l102 90l52 -67l-153 -133h-4z" />
    <glyph glyph-name="Omacron" unicode="&#x14c;" horiz-adv-x="819" 
d="M45 350c0 102.667 34.167 188.5 102.5 257.5s155.5 103.5 261.5 103.5c105.333 0 192.5 -33.333 261.5 -100s103.5 -153.667 103.5 -261c0 -104.667 -34.667 -191 -104 -259s-156.333 -102 -261 -102c-105.333 0 -192.333 33.333 -261 100s-103 153.667 -103 261z
M175 350c0 -70 22.499 -128.501 67.499 -175.501s100.5 -70.5 166.5 -70.5c72 0 129.167 23.333 171.5 70s63.5 105.334 63.5 176.001c0 72 -22.5 131 -67.5 177s-100.833 69 -167.5 69c-67.333 0 -123.166 -23 -167.499 -69s-66.5 -105 -66.5 -177zM261.999 759.999v92h309
v-92h-309z" />
    <glyph glyph-name="omacron" unicode="&#x14d;" horiz-adv-x="562" 
d="M36 225c0 68.667 22.5 125.167 67.5 169.5s104.167 66.5 177.5 66.5s132.5 -22.167 177.5 -66.5s67.5 -100.833 67.5 -169.5s-22.5 -125.167 -67.5 -169.5s-104.167 -66.5 -177.5 -66.5s-132.5 22.167 -177.5 66.5s-67.5 100.833 -67.5 169.5zM159 225
c0 -37.333 11.499 -68.168 34.499 -92.501s52.167 -36.5 87.5 -36.5c36 0 65.5 11.833 88.5 35.5s34.5 54.834 34.5 93.501c0 37.333 -11.667 68 -35 92s-52.666 36 -87.999 36c-34.667 0 -63.667 -11.833 -87 -35.5s-35 -54.5 -35 -92.5zM148.999 549.998v92h279v-92h-279z
" />
    <glyph glyph-name="Ohungarumlaut" unicode="&#x150;" horiz-adv-x="819" 
d="M45 350c0 102.667 34.167 188.5 102.5 257.5s155.5 103.5 261.5 103.5c105.333 0 192.5 -33.333 261.5 -100s103.5 -153.667 103.5 -261c0 -104.667 -34.667 -191 -104 -259s-156.333 -102 -261 -102c-105.333 0 -192.333 33.333 -261 100s-103 153.667 -103 261z
M175 350c0 -70 22.499 -128.501 67.499 -175.501s100.5 -70.5 166.5 -70.5c72 0 129.167 23.333 171.5 70s63.5 105.334 63.5 176.001c0 72 -22.5 131 -67.5 177s-100.833 69 -167.5 69c-67.333 0 -123.166 -23 -167.499 -69s-66.5 -105 -66.5 -177zM677.999 838.999
l-191 -108l-47 49l158 131zM470.999 859.999l-164 -129l-49 46l114 134z" />
    <glyph glyph-name="ohungarumlaut" unicode="&#x151;" horiz-adv-x="562" 
d="M36 225c0 68.667 22.5 125.167 67.5 169.5s104.167 66.5 177.5 66.5s132.5 -22.167 177.5 -66.5s67.5 -100.833 67.5 -169.5s-22.5 -125.167 -67.5 -169.5s-104.167 -66.5 -177.5 -66.5s-132.5 22.167 -177.5 66.5s-67.5 100.833 -67.5 169.5zM159 225
c0 -37.333 11.499 -68.168 34.499 -92.501s52.167 -36.5 87.5 -36.5c36 0 65.5 11.833 88.5 35.5s34.5 54.834 34.5 93.501c0 37.333 -11.667 68 -35 92s-52.666 36 -87.999 36c-34.667 0 -63.667 -11.833 -87 -35.5s-35 -54.5 -35 -92.5zM498.999 655.998l-132 -139l-69 48
l116 156zM317.999 669.998l-114 -153l-69 48l101 166z" />
    <glyph glyph-name="OE" unicode="&#x152;" horiz-adv-x="1038" 
d="M560 0v20c-48 -20.667 -99.333 -31 -154 -31c-107.333 0 -194.333 33 -261 99s-100 153.333 -100 262c0 104.667 31.667 191 95 259s151 102 263 102c58 0 110.333 -11.333 157 -34v23h405v-115h-282v-174h252v-115h-252v-181h292v-115h-415zM417 104
c52.667 0 100.332 13.335 142.999 40.002v405c-47.333 31.333 -99.666 47 -156.999 47c-66 0 -120.5 -22.333 -163.5 -67s-64.5 -104.334 -64.5 -179.001c0 -72.667 22.5 -131.834 67.5 -177.501s103.167 -68.5 174.5 -68.5z" />
    <glyph glyph-name="oe" unicode="&#x153;" horiz-adv-x="833" 
d="M734 126l32 -81.001c-43.333 -37.333 -100.666 -56 -171.999 -56c-62.667 0 -114.667 16 -156 48c-42 -32 -94.333 -48 -157 -48c-73.333 0 -132.5 22.167 -177.5 66.5s-67.5 100.833 -67.5 169.5s22.5 125.167 67.5 169.5s104.167 66.5 177.5 66.5
c62 0 114.333 -16.667 157 -50c42 33.333 93 50 153 50c59.333 0 109.666 -19.5 150.999 -58.5s62 -89.167 62 -150.5c0 -25.333 -2.33301 -46 -7 -62h-325c4.66699 -33.333 19.167 -59.166 43.5 -77.499s54.5 -27.5 90.5 -27.5c51.333 0 94 13.667 128 41zM281 95.999
c36 0 65.6689 10.667 89.002 32c-11.333 30 -17 62.333 -17 97c0 35.333 6 67.666 18 96.999c-25.333 20.667 -55.333 31 -90 31s-63.834 -11.833 -87.501 -35.5s-35.5 -54.5 -35.5 -92.5c0 -37.333 11.667 -68.166 35 -92.499s52.666 -36.5 87.999 -36.5zM586.002 364.999
c-65.333 0 -104.667 -32.667 -118 -98h221c0.666992 28 -8.33301 51.333 -27 70s-44 28 -76 28z" />
    <glyph glyph-name="Racute" unicode="&#x154;" horiz-adv-x="658" 
d="M220 0h-123.001v700c14.667 0 52.5 0.333008 113.5 1s94.167 1 99.5 1c169.333 0 254 -72 254 -216c0 -54 -13.667 -97.833 -41 -131.5s-58.666 -56.5 -93.999 -68.5l219 -286h-149l-193 262h-86v-262zM303.999 587c-12 0 -40 -0.666992 -84 -2v-208h80
c38 0 69.833 9.5 95.5 28.5s38.5 45.5 38.5 79.5c0 68 -43.333 102 -130 102zM463.999 812l-225 -81l-32 69l214 111z" />
    <glyph glyph-name="racute" unicode="&#x155;" horiz-adv-x="354" 
d="M64 0l0.000976562 450h115v-44c25.333 34.667 59.666 52 102.999 52c31.333 0 54.666 -5.66699 69.999 -17l-41 -108c-19.333 11.333 -38.666 17 -57.999 17c-33.333 0 -58 -16 -74 -48v-302h-115zM317.001 662l-126 -145l-69 48l105 165z" />
    <glyph glyph-name="Rcommaaccent" unicode="&#x156;" horiz-adv-x="658" 
d="M220 0h-123.001v700c14.667 0 52.5 0.333008 113.5 1s94.167 1 99.5 1c169.333 0 254 -72 254 -216c0 -54 -13.667 -97.833 -41 -131.5s-58.666 -56.5 -93.999 -68.5l219 -286h-149l-193 262h-86v-262zM303.999 587c-12 0 -40 -0.666992 -84 -2v-208h80
c38 0 69.833 9.5 95.5 28.5s38.5 45.5 38.5 79.5c0 68 -43.333 102 -130 102zM260.999 -58l112 25c13.333 -8 20 -24.333 20 -49c0 -33.333 -12.667 -61 -38 -83s-54 -35.667 -86 -41l-34 50c28.667 12 43 32 43 60c0 17.333 -5.66699 30 -17 38z" />
    <glyph glyph-name="rcommaaccent" unicode="&#x157;" horiz-adv-x="354" 
d="M64 0l0.000976562 450h115v-44c25.333 34.667 59.666 52 102.999 52c31.333 0 54.666 -5.66699 69.999 -17l-41 -108c-19.333 11.333 -38.666 17 -57.999 17c-33.333 0 -58 -16 -74 -48v-302h-115zM104.001 -58l112 25c13.333 -8 20 -24.333 20 -49
c0 -33.333 -12.667 -61 -38 -83s-54 -35.667 -86 -41l-34 50c28.667 12 43 32 43 60c0 17.333 -5.66699 30 -17 38z" />
    <glyph glyph-name="Rcaron" unicode="&#x158;" horiz-adv-x="658" 
d="M220 0h-123.001v700c14.667 0 52.5 0.333008 113.5 1s94.167 1 99.5 1c169.333 0 254 -72 254 -216c0 -54 -13.667 -97.833 -41 -131.5s-58.666 -56.5 -93.999 -68.5l219 -286h-149l-193 262h-86v-262zM303.999 587c-12 0 -40 -0.666992 -84 -2v-208h80
c38 0 69.833 9.5 95.5 28.5s38.5 45.5 38.5 79.5c0 68 -43.333 102 -130 102zM301.999 735l-179 111l45 65l136 -79l135 79l41 -64l-174 -112h-4z" />
    <glyph glyph-name="rcaron" unicode="&#x159;" horiz-adv-x="354" 
d="M64 0l0.000976562 450h115v-44c25.333 34.667 59.666 52 102.999 52c31.333 0 54.666 -5.66699 69.999 -17l-41 -108c-19.333 11.333 -38.666 17 -57.999 17c-33.333 0 -58 -16 -74 -48v-302h-115zM195.001 509l-152 134l54 68l101 -92l102 90l52 -67l-153 -133h-4z" />
    <glyph glyph-name="Sacute" unicode="&#x15a;" horiz-adv-x="553" 
d="M378 186c0 18.667 -5.83008 35.1689 -17.4971 49.502s-26.834 26.666 -45.501 36.999s-39.167 20.333 -61.5 30s-44.833 20.667 -67.5 33s-43.334 26 -62.001 41s-33.834 34.667 -45.501 59s-17.5 51.833 -17.5 82.5c0 54.667 19.833 100.5 59.5 137.5
s92.5 55.5 158.5 55.5c88 0 154.667 -25 200 -75l-66 -92c-36 34.667 -77.333 52 -124 52c-30 0 -53.833 -7 -71.5 -21s-26.5 -32.667 -26.5 -56c0 -22.667 7.83301 -42.334 23.5 -59.001s35.167 -29.834 58.5 -39.501s48.833 -21.167 76.5 -34.5
s53.167 -27.166 76.5 -41.499s42.833 -35 58.5 -62s23.5 -58.833 23.5 -95.5c0 -58 -22.333 -105.5 -67 -142.5s-100.334 -55.5 -167.001 -55.5c-48 0 -94.167 9.83301 -138.5 29.5s-74.5 46.5 -90.5 80.5l70 84c19.333 -25.333 43.833 -44.833 73.5 -58.5
s58.834 -20.5 87.501 -20.5c30 0 54.5 7.16699 73.5 21.5s28.5 34.5 28.5 60.5zM466.003 812.002l-225 -81l-32 69l214 111z" />
    <glyph glyph-name="sacute" unicode="&#x15b;" horiz-adv-x="444" 
d="M292 127c0 13.333 -8.33203 24.1709 -24.999 32.5039s-36.834 15.666 -60.501 21.999s-47.5 14 -71.5 23s-44.333 23.5 -61 43.5s-25 45.333 -25 76c0 42.667 15.5 76.167 46.5 100.5s70.5 36.5 118.5 36.5c73.333 0 130.333 -19 171 -57l-43 -82
c-36.667 28.667 -77.334 43 -122.001 43c-16.667 0 -30.167 -3.83301 -40.5 -11.5s-15.5 -16.834 -15.5 -27.501c0 -13.333 8.33301 -24.333 25 -33s36.834 -16 60.501 -22s47.5 -13.333 71.5 -22s44.333 -22.834 61 -42.501s25 -44.167 25 -73.5
c0 -44 -16.5 -79 -49.5 -105s-77.167 -39 -132.5 -39c-38.667 0 -76.834 8.33301 -114.501 25s-62.167 34 -73.5 52l56 75c13.333 -14.667 34.333 -27.667 63 -39s54.334 -17 77.001 -17c17.333 0 31.5 3.66699 42.5 11s16.5 17.666 16.5 30.999zM340.001 662.005l-126 -145
l-69 48l105 165z" />
    <glyph glyph-name="Scircumflex" unicode="&#x15c;" horiz-adv-x="553" 
d="M378 186c0 18.667 -5.83008 35.1689 -17.4971 49.502s-26.834 26.666 -45.501 36.999s-39.167 20.333 -61.5 30s-44.833 20.667 -67.5 33s-43.334 26 -62.001 41s-33.834 34.667 -45.501 59s-17.5 51.833 -17.5 82.5c0 54.667 19.833 100.5 59.5 137.5
s92.5 55.5 158.5 55.5c88 0 154.667 -25 200 -75l-66 -92c-36 34.667 -77.333 52 -124 52c-30 0 -53.833 -7 -71.5 -21s-26.5 -32.667 -26.5 -56c0 -22.667 7.83301 -42.334 23.5 -59.001s35.167 -29.834 58.5 -39.501s48.833 -21.167 76.5 -34.5
s53.167 -27.166 76.5 -41.499s42.833 -35 58.5 -62s23.5 -58.833 23.5 -95.5c0 -58 -22.333 -105.5 -67 -142.5s-100.334 -55.5 -167.001 -55.5c-48 0 -94.167 9.83301 -138.5 29.5s-74.5 46.5 -90.5 80.5l70 84c19.333 -25.333 43.833 -44.833 73.5 -58.5
s58.834 -20.5 87.501 -20.5c30 0 54.5 7.16699 73.5 21.5s28.5 34.5 28.5 60.5zM97.0029 792.002l175 112h4l179 -111l-45 -65l-136 71l-136 -71z" />
    <glyph glyph-name="scircumflex" unicode="&#x15d;" horiz-adv-x="444" 
d="M292 127c0 13.333 -8.33203 24.1709 -24.999 32.5039s-36.834 15.666 -60.501 21.999s-47.5 14 -71.5 23s-44.333 23.5 -61 43.5s-25 45.333 -25 76c0 42.667 15.5 76.167 46.5 100.5s70.5 36.5 118.5 36.5c73.333 0 130.333 -19 171 -57l-43 -82
c-36.667 28.667 -77.334 43 -122.001 43c-16.667 0 -30.167 -3.83301 -40.5 -11.5s-15.5 -16.834 -15.5 -27.501c0 -13.333 8.33301 -24.333 25 -33s36.834 -16 60.501 -22s47.5 -13.333 71.5 -22s44.333 -22.834 61 -42.501s25 -44.167 25 -73.5
c0 -44 -16.5 -79 -49.5 -105s-77.167 -39 -132.5 -39c-38.667 0 -76.834 8.33301 -114.501 25s-62.167 34 -73.5 52l56 75c13.333 -14.667 34.333 -27.667 63 -39s54.334 -17 77.001 -17c17.333 0 31.5 3.66699 42.5 11s16.5 17.666 16.5 30.999zM225.001 706.005l152 -134
l-54 -68l-101 81l-102 -79l-52 67l153 133h4z" />
    <glyph glyph-name="Scedilla" unicode="&#x15e;" horiz-adv-x="553" 
d="M136 -163l37.001 58.002c26.667 -22 51.334 -33 74.001 -33c26 0 39 8.33301 39 25c0 18.667 -13.667 28 -41 28h-6v76c-43.333 4.66699 -83 16.5 -119 35.5s-61 43.167 -75 72.5l70 84c19.333 -25.333 43.833 -44.833 73.5 -58.5s58.834 -20.5 87.501 -20.5
c30 0 54.5 7.16699 73.5 21.5s28.5 34.5 28.5 60.5c0 18.667 -5.83301 35.167 -17.5 49.5s-26.834 26.666 -45.501 36.999s-39.167 20.333 -61.5 30s-44.833 20.667 -67.5 33s-43.334 26 -62.001 41s-33.834 34.667 -45.501 59s-17.5 51.833 -17.5 82.5
c0 54.667 19.833 100.5 59.5 137.5s92.5 55.5 158.5 55.5c88 0 154.667 -25 200 -75l-66 -92c-36 34.667 -77.333 52 -124 52c-30 0 -53.833 -7 -71.5 -21s-26.5 -32.667 -26.5 -56c0 -22.667 7.83301 -42.334 23.5 -59.001s35.167 -29.834 58.5 -39.501
s48.833 -21.167 76.5 -34.5s53.167 -27.166 76.5 -41.499s42.833 -35 58.5 -62s23.5 -58.833 23.5 -95.5c0 -54.667 -19.833 -100 -59.5 -136s-90.167 -56.333 -151.5 -61v-25c74 -4 111 -32.333 111 -85c0 -26 -11.833 -47.167 -35.5 -63.5s-56.167 -24.5 -97.5 -24.5
c-54 0 -100.333 15 -139 45z" />
    <glyph glyph-name="scedilla" unicode="&#x15f;" horiz-adv-x="444" 
d="M84 -166l34 54.0059c22 -17.333 45.333 -26 70 -26c26 0 39 8.33301 39 25c0 18.667 -13.667 28 -41 28h-6v79c-32 5.33301 -61.5 15.166 -88.5 29.499s-45.167 28.5 -54.5 42.5l56 75c13.333 -14.667 34.333 -27.667 63 -39s54.334 -17 77.001 -17
c17.333 0 31.5 3.66699 42.5 11s16.5 17.666 16.5 30.999s-8.33301 24.166 -25 32.499s-36.834 15.666 -60.501 21.999s-47.5 14 -71.5 23s-44.333 23.5 -61 43.5s-25 45.333 -25 76c0 42.667 15.5 76.167 46.5 100.5s70.5 36.5 118.5 36.5c73.333 0 130.333 -19 171 -57
l-43 -82c-36.667 28.667 -77.334 43 -122.001 43c-16.667 0 -30.167 -3.83301 -40.5 -11.5s-15.5 -16.834 -15.5 -27.501c0 -13.333 8.33301 -24.333 25 -33s36.834 -16 60.501 -22s47.5 -13.333 71.5 -22s44.333 -22.834 61 -42.501s25 -44.167 25 -73.5
c0 -42.667 -15.333 -76.667 -46 -102s-71.667 -39 -123 -41v-25c69.333 -4 104 -32.333 104 -85c0 -26.667 -12 -48 -36 -64s-58 -24 -102 -24c-42 0 -82 14 -120 42z" />
    <glyph glyph-name="Scaron" unicode="&#x160;" horiz-adv-x="553" 
d="M378 186c0 18.667 -5.83008 35.1689 -17.4971 49.502s-26.834 26.666 -45.501 36.999s-39.167 20.333 -61.5 30s-44.833 20.667 -67.5 33s-43.334 26 -62.001 41s-33.834 34.667 -45.501 59s-17.5 51.833 -17.5 82.5c0 54.667 19.833 100.5 59.5 137.5
s92.5 55.5 158.5 55.5c88 0 154.667 -25 200 -75l-66 -92c-36 34.667 -77.333 52 -124 52c-30 0 -53.833 -7 -71.5 -21s-26.5 -32.667 -26.5 -56c0 -22.667 7.83301 -42.334 23.5 -59.001s35.167 -29.834 58.5 -39.501s48.833 -21.167 76.5 -34.5
s53.167 -27.166 76.5 -41.499s42.833 -35 58.5 -62s23.5 -58.833 23.5 -95.5c0 -58 -22.333 -105.5 -67 -142.5s-100.334 -55.5 -167.001 -55.5c-48 0 -94.167 9.83301 -138.5 29.5s-74.5 46.5 -90.5 80.5l70 84c19.333 -25.333 43.833 -44.833 73.5 -58.5
s58.834 -20.5 87.501 -20.5c30 0 54.5 7.16699 73.5 21.5s28.5 34.5 28.5 60.5zM279.003 735.002l-179 111l45 65l136 -79l135 79l41 -64l-174 -112h-4z" />
    <glyph glyph-name="scaron" unicode="&#x161;" horiz-adv-x="444" 
d="M292 127c0 13.333 -8.33203 24.1709 -24.999 32.5039s-36.834 15.666 -60.501 21.999s-47.5 14 -71.5 23s-44.333 23.5 -61 43.5s-25 45.333 -25 76c0 42.667 15.5 76.167 46.5 100.5s70.5 36.5 118.5 36.5c73.333 0 130.333 -19 171 -57l-43 -82
c-36.667 28.667 -77.334 43 -122.001 43c-16.667 0 -30.167 -3.83301 -40.5 -11.5s-15.5 -16.834 -15.5 -27.501c0 -13.333 8.33301 -24.333 25 -33s36.834 -16 60.501 -22s47.5 -13.333 71.5 -22s44.333 -22.834 61 -42.501s25 -44.167 25 -73.5
c0 -44 -16.5 -79 -49.5 -105s-77.167 -39 -132.5 -39c-38.667 0 -76.834 8.33301 -114.501 25s-62.167 34 -73.5 52l56 75c13.333 -14.667 34.333 -27.667 63 -39s54.334 -17 77.001 -17c17.333 0 31.5 3.66699 42.5 11s16.5 17.666 16.5 30.999zM219.001 509.005l-152 134
l54 68l101 -92l102 90l52 -67l-153 -133h-4z" />
    <glyph glyph-name="Tcedilla" unicode="&#x162;" horiz-adv-x="597" 
d="M168 -163l36.999 58c26.667 -22 51.334 -33 74.001 -33c26 0 39 8.33301 39 25c0 18.667 -13.667 28 -41 28h-6v85h-34v585h-227v115h577v-115h-227v-585h-31v-35c74 -4 111 -32.333 111 -85c0 -26 -11.833 -47.167 -35.5 -63.5s-56.167 -24.5 -97.5 -24.5
c-54 0 -100.333 15 -139 45z" />
    <glyph glyph-name="tcedilla" unicode="&#x163;" horiz-adv-x="360" 
d="M54 -166l34 54c22 -17.333 45.333 -26 70 -26c26 0 39 8.33301 39 25c0 18.667 -13.667 28 -41 28h-6v82c-60 17.333 -90 75.333 -90 174v404h115v-125h145v-108h-145v-164c0 -54 18 -81 54 -81c22.667 0 45.667 8.66699 69 26l35 -89c-34 -27.333 -75.667 -42 -125 -44
v-25c69.333 -4 104 -32.333 104 -85c0 -26.667 -12 -48 -36 -64s-58 -24 -102 -24c-42 0 -82 14 -120 42z" />
    <glyph glyph-name="Tcaron" unicode="&#x164;" horiz-adv-x="597" 
d="M10 585v115h577v-115h-227v-585h-123v585h-227zM294 735l-179 111l45 65l136 -79l135 79l41 -64l-174 -112h-4z" />
    <glyph glyph-name="tcaron" unicode="&#x165;" horiz-adv-x="360" 
d="M54 171v404h115v-125h145v-108h-145v-164c0 -54 18 -81 54 -81c22.667 0 45.667 8.66699 69 26l35 -89c-36 -29.333 -80.333 -44 -133 -44c-49.333 0 -85 15.167 -107 45.5s-33 75.5 -33 135.5zM251 700l112 -0.000976562c4 -8 6 -19.667 6 -35
c0 -79.333 -33 -137.333 -99 -174l-53 50c30 28.667 45 65.334 45 110.001c0 16.667 -3.66699 33 -11 49z" />
    <glyph glyph-name="Umacron" unicode="&#x16a;" horiz-adv-x="751" 
d="M663 700v-410c0 -100.667 -26.333 -176 -79 -226s-119 -75 -199 -75c-90 0 -162.167 26.5 -216.5 79.5s-81.5 129.167 -81.5 228.5v403h123v-377c0 -68 14.5 -121.5 43.5 -160.5s72.833 -58.5 131.5 -58.5c104 0 156 70.333 156 211v385h122zM228 760v92h309v-92h-309z
" />
    <glyph glyph-name="umacron" unicode="&#x16b;" horiz-adv-x="535" 
d="M471 450v-449.999h-115v55c-36 -44 -84 -66 -144 -66c-46.667 0 -84.667 15.667 -114 47s-44 77.666 -44 138.999v275h115v-251c0 -68.667 28.667 -103 86 -103c39.333 0 73 18.333 101 55v299h115zM124 550.001v92h279v-92h-279z" />
    <glyph glyph-name="Ubreve" unicode="&#x16c;" horiz-adv-x="751" 
d="M663 700v-410c0 -100.667 -26.333 -176 -79 -226s-119 -75 -199 -75c-90 0 -162.167 26.5 -216.5 79.5s-81.5 129.167 -81.5 228.5v403h123v-377c0 -68 14.5 -121.5 43.5 -160.5s72.833 -58.5 131.5 -58.5c104 0 156 70.333 156 211v385h122zM184 841l50.001 59
c37.333 -42 85 -63 143 -63c56.667 0 103.334 21 140.001 63l43 -60c-18 -28.667 -43.5 -53 -76.5 -73s-68.5 -30 -106.5 -30c-42.667 0 -81.334 10.5 -116.001 31.5s-60.334 45.167 -77.001 72.5z" />
    <glyph glyph-name="ubreve" unicode="&#x16d;" horiz-adv-x="535" 
d="M471 450v-449.999h-115v55c-36 -44 -84 -66 -144 -66c-46.667 0 -84.667 15.667 -114 47s-44 77.666 -44 138.999v275h115v-251c0 -68.667 28.667 -103 86 -103c39.333 0 73 18.333 101 55v299h115zM106 624.001l51 57c34 -37.333 70.667 -56 110 -56
c46 0 83.333 18.333 112 55l40 -56c-41.333 -61.333 -93.666 -92 -156.999 -92c-38 0 -70.333 9.83301 -97 29.5s-46.334 40.5 -59.001 62.5z" />
    <glyph glyph-name="Uring" unicode="&#x16e;" horiz-adv-x="751" 
d="M663 700v-410c0 -100.667 -26.333 -176 -79 -226s-119 -75 -199 -75c-90 0 -162.167 26.5 -216.5 79.5s-81.5 129.167 -81.5 228.5v403h123v-377c0 -68 14.5 -121.5 43.5 -160.5s72.833 -58.5 131.5 -58.5c104 0 156 70.333 156 211v385h122zM236 800c0 36 13 63 39 81
s59.333 27 100 27c42 0 76.333 -9 103 -27s40 -45 40 -81c0 -35.333 -13.5 -62.5 -40.5 -81.5s-61.167 -28.5 -102.5 -28.5c-40.667 0 -74 9.5 -100 28.5s-39 46.167 -39 81.5zM321 800c0 -15.333 5.16602 -27 15.499 -35s23.5 -12 39.5 -12c16.667 0 30.334 4 41.001 12
s16 19.667 16 35c0 30 -19 45 -57 45c-36.667 0 -55 -15 -55 -45z" />
    <glyph glyph-name="uring" unicode="&#x16f;" horiz-adv-x="535" 
d="M471 450v-449.999h-115v55c-36 -44 -84 -66 -144 -66c-46.667 0 -84.667 15.667 -114 47s-44 77.666 -44 138.999v275h115v-251c0 -68.667 28.667 -103 86 -103c39.333 0 73 18.333 101 55v299h115zM137 612.001c0 33.333 12 61.666 36 84.999s54 35 90 35
c36.667 0 67.167 -11.667 91.5 -35s36.5 -51.666 36.5 -84.999c0 -32.667 -12.167 -60.5 -36.5 -83.5s-54.833 -34.5 -91.5 -34.5c-36 0 -66 11.5 -90 34.5s-36 50.833 -36 83.5zM211 613.001c0 -16 5 -29.5 15 -40.5s23 -16.5 39 -16.5c15.333 0 27.833 5.5 37.5 16.5
s14.5 24.5 14.5 40.5s-4.83301 29.333 -14.5 40s-22.167 16 -37.5 16c-16 0 -29 -5.33301 -39 -16s-15 -24 -15 -40z" />
    <glyph glyph-name="Uhungarumlaut" unicode="&#x170;" horiz-adv-x="751" 
d="M663 700v-410c0 -100.667 -26.333 -176 -79 -226s-119 -75 -199 -75c-90 0 -162.167 26.5 -216.5 79.5s-81.5 129.167 -81.5 228.5v403h123v-377c0 -68 14.5 -121.5 43.5 -160.5s72.833 -58.5 131.5 -58.5c104 0 156 70.333 156 211v385h122zM630 839l-191 -108l-47 49
l158 131zM423 860l-164 -129l-49 46l114 134z" />
    <glyph glyph-name="uhungarumlaut" unicode="&#x171;" horiz-adv-x="535" 
d="M471 450v-449.999h-115v55c-36 -44 -84 -66 -144 -66c-46.667 0 -84.667 15.667 -114 47s-44 77.666 -44 138.999v275h115v-251c0 -68.667 28.667 -103 86 -103c39.333 0 73 18.333 101 55v299h115zM481 656.001l-132 -139l-69 48l116 156zM300 670.001l-114 -153l-69 48
l101 166z" />
    <glyph glyph-name="Uogonek" unicode="&#x172;" horiz-adv-x="751" 
d="M663 700l0.00195312 -410.003c0 -81.333 -17.333 -146.166 -52 -194.499s-81 -80.166 -139 -95.499c-45.333 -21.333 -68 -44 -68 -68c0 -14 4.5 -24.167 13.5 -30.5s19.5 -9.5 31.5 -9.5c14 0 28 3.33301 42 10l35 -70c-8.66699 -8.66699 -22.834 -16.167 -42.501 -22.5
s-39.834 -9.5 -60.501 -9.5c-38 0 -69.833 7.66699 -95.5 23s-38.5 39 -38.5 71c0 39.333 26.333 71 79 95c-85.333 3.33301 -153.5 31.333 -204.5 84s-76.5 127.334 -76.5 224.001v403h123v-377c0 -68 14.5 -121.5 43.5 -160.5s72.833 -58.5 131.5 -58.5
c104 0 156 70.333 156 211v385h122z" />
    <glyph glyph-name="uogonek" unicode="&#x173;" horiz-adv-x="535" 
d="M449 -98l35.002 -69.999c-8.66699 -8.66699 -22.834 -16.167 -42.501 -22.5s-39.834 -9.5 -60.501 -9.5c-38 0 -69.833 7.66699 -95.5 23s-38.5 39 -38.5 71c0 26 10 48.333 30 67s46.333 32.667 79 42v52c-36 -44 -84 -66 -144 -66c-46.667 0 -84.667 15.667 -114 47
s-44 77.666 -44 138.999v275h115v-251c0 -68.667 28.667 -103 86 -103c39.333 0 73 18.333 101 55v299h115v-450h-5c-28 -0.666992 -52.333 -8 -73 -22s-31 -29.333 -31 -46c0 -14 4.5 -24.167 13.5 -30.5s19.5 -9.5 31.5 -9.5c14 0 28 3.33301 42 10z" />
    <glyph glyph-name="Ydieresis" unicode="&#x178;" horiz-adv-x="629" 
d="M624 700l-249 -408v-292h-123v292l-247 408h140l174 -293l172 293h133zM124 825c0 18.667 7.33301 33.667 22 45s33 17 55 17c19.333 0 36 -5.66699 50 -17s21 -26.333 21 -45c0 -20.667 -7 -36.834 -21 -48.501s-30.667 -17.5 -50 -17.5c-22 0 -40.333 5.83301 -55 17.5
s-22 27.834 -22 48.501zM356 825c0 18.667 7.33301 33.667 22 45s33 17 55 17c19.333 0 36 -5.66699 50 -17s21 -26.333 21 -45c0 -20.667 -7 -36.834 -21 -48.501s-30.667 -17.5 -50 -17.5c-22 0 -40.333 5.83301 -55 17.5s-22 27.834 -22 48.501z" />
    <glyph glyph-name="Zacute" unicode="&#x179;" horiz-adv-x="642" 
d="M60 585v115h532v-85l-388 -500h398v-115h-562v84l387 501h-367zM502 812l-225 -81l-32 69l214 111z" />
    <glyph glyph-name="zacute" unicode="&#x17a;" horiz-adv-x="490" 
d="M57 342v108h390v-83l-244 -260h239v-107h-400v83l244 259h-229zM371 662l-126 -145l-69 48l105 165z" />
    <glyph glyph-name="Zdotaccent" unicode="&#x17b;" horiz-adv-x="642" 
d="M60 585v115h532v-85l-388 -500h398v-115h-562v84l387 501h-367zM247 831c0 21.333 7.66699 38.502 23 51.502s34 19.5 56 19.5c20 0 37.5 -6.5 52.5 -19.5s22.5 -30.167 22.5 -51.5c0 -22.667 -7.5 -40.834 -22.5 -54.501s-32.5 -20.5 -52.5 -20.5
c-22 0 -40.667 6.66699 -56 20s-23 31.666 -23 54.999z" />
    <glyph glyph-name="zdotaccent" unicode="&#x17c;" horiz-adv-x="490" 
d="M57 342v108h390v-83l-244 -260h239v-107h-400v83l244 259h-229zM173 612c0 20 7.00098 36.167 21.001 48.5s31 18.5 51 18.5c17.333 0 32.666 -6.16699 45.999 -18.5s20 -28.5 20 -48.5c0 -22 -6.66699 -39.5 -20 -52.5s-28.666 -19.5 -45.999 -19.5
c-20.667 0 -37.834 6.5 -51.501 19.5s-20.5 30.5 -20.5 52.5z" />
    <glyph glyph-name="Zcaron" unicode="&#x17d;" horiz-adv-x="642" 
d="M60 585v115h532v-85l-388 -500h398v-115h-562v84l387 501h-367zM327 735l-179 111l45 65l136 -79l135 79l41 -64l-174 -112h-4z" />
    <glyph glyph-name="zcaron" unicode="&#x17e;" horiz-adv-x="490" 
d="M57 342v108h390v-83l-244 -260h239v-107h-400v83l244 259h-229zM250 509l-152 134l54 68l101 -92l102 90l52 -67l-153 -133h-4z" />
    <glyph glyph-name="longs" unicode="&#x17f;" horiz-adv-x="258" 
d="M69 0v523c0 61.333 14 108 42 140s67.333 48 118 48c57.333 0 99.333 -14 126 -42l-39 -88c-14.667 14.667 -36.667 22 -66 22c-44 0 -66 -29.667 -66 -89v-514h-115z" />
    <glyph glyph-name="uni018F" unicode="&#x18f;" horiz-adv-x="781" 
d="M47 414h555.999c-12 57.333 -40 102 -84 134s-98.667 48 -164 48c-61.333 0 -116.333 -18 -165 -54l-47 92c60 51.333 140.333 77 241 77c104 0 188.667 -33 254 -99s98 -153 98 -261c0 -109.333 -32.167 -197 -96.5 -263s-150.166 -99 -257.499 -99
c-109.333 0 -196 38.667 -260 116s-89 180.333 -75 309zM379.999 104c62 0 112.832 16.833 152.499 50.5s64.834 81.834 75.501 144.501h-434c4 -54.667 24.5 -100.834 61.5 -138.501s85.167 -56.5 144.5 -56.5z" />
    <glyph glyph-name="florin" unicode="&#x192;" 
d="M403 514l-11 -64h115v-108h-134l-66 -375c-11.333 -59.333 -28.333 -103.333 -51 -132s-57.667 -43 -105 -43c-49.333 0 -86 10.667 -110 32l31 91c17.333 -10.667 34.666 -16 51.999 -16c35.333 0 58 26.333 68 79l64 364h-117v108h136l13 73
c12.667 66 31.667 113.833 57 143.5s62.333 44.5 111 44.5c56.667 0 98.334 -14 125.001 -42l-39 -88c-14.667 14.667 -36.667 22 -66 22c-38 0 -62.333 -29.667 -73 -89z" />
    <glyph glyph-name="uni01DD" unicode="&#x1dd;" horiz-adv-x="516" 
d="M103 324l-32.001 81c44 37.333 102 56 174 56s129.167 -21.5 171.5 -64.5s63.5 -100.167 63.5 -171.5c0 -68.667 -20 -125.167 -60 -169.5s-96 -66.5 -168 -66.5c-64 0 -117.167 19.333 -159.5 58s-63.5 89 -63.5 151c0 26.667 2.33301 48 7 64h330
c-5.33301 31.333 -20 56.333 -44 75s-53.667 28 -89 28c-51.333 0 -94.666 -13.667 -129.999 -41zM252.999 85c33.333 0 59.668 8.83301 79.001 26.5s31.666 42.167 36.999 73.5h-221c-0.666992 -29.333 8.5 -53.333 27.5 -72s44.833 -28 77.5 -28z" />
    <glyph glyph-name="Scommaaccent" unicode="&#x218;" horiz-adv-x="553" 
d="M378 186c0 18.667 -5.83008 35.1689 -17.4971 49.502s-26.834 26.666 -45.501 36.999s-39.167 20.333 -61.5 30s-44.833 20.667 -67.5 33s-43.334 26 -62.001 41s-33.834 34.667 -45.501 59s-17.5 51.833 -17.5 82.5c0 54.667 19.833 100.5 59.5 137.5
s92.5 55.5 158.5 55.5c88 0 154.667 -25 200 -75l-66 -92c-36 34.667 -77.333 52 -124 52c-30 0 -53.833 -7 -71.5 -21s-26.5 -32.667 -26.5 -56c0 -22.667 7.83301 -42.334 23.5 -59.001s35.167 -29.834 58.5 -39.501s48.833 -21.167 76.5 -34.5
s53.167 -27.166 76.5 -41.499s42.833 -35 58.5 -62s23.5 -58.833 23.5 -95.5c0 -58 -22.333 -105.5 -67 -142.5s-100.334 -55.5 -167.001 -55.5c-48 0 -94.167 9.83301 -138.5 29.5s-74.5 46.5 -90.5 80.5l70 84c19.333 -25.333 43.833 -44.833 73.5 -58.5
s58.834 -20.5 87.501 -20.5c30 0 54.5 7.16699 73.5 21.5s28.5 34.5 28.5 60.5zM221.003 -57.998l112 25c13.333 -8 20 -24.333 20 -49c0 -33.333 -12.667 -61 -38 -83s-54 -35.667 -86 -41l-34 50c28.667 12 43 32 43 60c0 17.333 -5.66699 30 -17 38z" />
    <glyph glyph-name="scommaaccent" unicode="&#x219;" horiz-adv-x="444" 
d="M292 127c0 13.333 -8.33203 24.1709 -24.999 32.5039s-36.834 15.666 -60.501 21.999s-47.5 14 -71.5 23s-44.333 23.5 -61 43.5s-25 45.333 -25 76c0 42.667 15.5 76.167 46.5 100.5s70.5 36.5 118.5 36.5c73.333 0 130.333 -19 171 -57l-43 -82
c-36.667 28.667 -77.334 43 -122.001 43c-16.667 0 -30.167 -3.83301 -40.5 -11.5s-15.5 -16.834 -15.5 -27.501c0 -13.333 8.33301 -24.333 25 -33s36.834 -16 60.501 -22s47.5 -13.333 71.5 -22s44.333 -22.834 61 -42.501s25 -44.167 25 -73.5
c0 -44 -16.5 -79 -49.5 -105s-77.167 -39 -132.5 -39c-38.667 0 -76.834 8.33301 -114.501 25s-62.167 34 -73.5 52l56 75c13.333 -14.667 34.333 -27.667 63 -39s54.334 -17 77.001 -17c17.333 0 31.5 3.66699 42.5 11s16.5 17.666 16.5 30.999zM162.001 -57.9951l112 25
c13.333 -8 20 -24.333 20 -49c0 -33.333 -12.667 -61 -38 -83s-54 -35.667 -86 -41l-34 50c28.667 12 43 32 43 60c0 17.333 -5.66699 30 -17 38z" />
    <glyph glyph-name="Tcommaaccent" unicode="&#x21a;" horiz-adv-x="597" 
d="M10 585v115h577v-115h-227v-585h-123v585h-227zM229 -58l112 25c13.333 -8 20 -24.333 20 -49c0 -33.333 -12.667 -61 -38 -83s-54 -35.667 -86 -41l-34 50c28.667 12 43 32 43 60c0 17.333 -5.66699 30 -17 38z" />
    <glyph glyph-name="tcommaaccent" unicode="&#x21b;" horiz-adv-x="360" 
d="M54 171v404h115v-125h145v-108h-145v-164c0 -54 18 -81 54 -81c22.667 0 45.667 8.66699 69 26l35 -89c-36 -29.333 -80.333 -44 -133 -44c-49.333 0 -85 15.167 -107 45.5s-33 75.5 -33 135.5zM110 -58l112 25c13.333 -8 20 -24.333 20 -49
c0 -33.333 -12.667 -61 -38 -83s-54 -35.667 -86 -41l-34 50c28.667 12 43 32 43 60c0 17.333 -5.66699 30 -17 38z" />
    <glyph glyph-name="uni0237" unicode="&#x237;" horiz-adv-x="284" 
d="M202 450v-483c0 -116.667 -47 -175 -141 -175c-49.333 0 -86 10.667 -110 32l31 91c17.333 -10.667 34.333 -16 51 -16c36 0 54 26 54 78v473h115z" />
    <glyph glyph-name="uni0259" unicode="&#x259;" horiz-adv-x="516" 
d="M103 324l-32.001 81c44 37.333 102 56 174 56s129.167 -21.5 171.5 -64.5s63.5 -100.167 63.5 -171.5c0 -68.667 -20 -125.167 -60 -169.5s-96 -66.5 -168 -66.5c-64 0 -117.167 19.333 -159.5 58s-63.5 89 -63.5 151c0 26.667 2.33301 48 7 64h330
c-5.33301 31.333 -20 56.333 -44 75s-53.667 28 -89 28c-51.333 0 -94.666 -13.667 -129.999 -41zM252.999 85c33.333 0 59.668 8.83301 79.001 26.5s31.666 42.167 36.999 73.5h-221c-0.666992 -29.333 8.5 -53.333 27.5 -72s44.833 -28 77.5 -28z" />
    <glyph glyph-name="afii57929" unicode="&#x2bc;" horiz-adv-x="273" 
d="M82 628l97 57c22.667 -24 34 -55 34 -93c0 -42 -10 -77.5 -30 -106.5s-43.333 -50.833 -70 -65.5l-53 49c30 24.667 45 57 45 97c0 26 -7.66699 46.667 -23 62z" />
    <glyph glyph-name="circumflex" unicode="&#x2c6;" horiz-adv-x="429" 
d="M217 706l152 -134l-54 -68l-101 81l-102 -79l-52 67l153 133h4z" />
    <glyph glyph-name="caron" unicode="&#x2c7;" horiz-adv-x="429" 
d="M212 509l-152 134l54 68l101 -92l102 90l52 -67l-153 -133h-4z" />
    <glyph glyph-name="breve" unicode="&#x2d8;" horiz-adv-x="433" 
d="M60 624l51 57c34 -37.333 70.667 -56 110 -56c46 0 83.333 18.333 112 55l40 -56c-41.333 -61.333 -93.666 -92 -156.999 -92c-38 0 -70.333 9.83301 -97 29.5s-46.334 40.5 -59.001 62.5z" />
    <glyph glyph-name="dotaccent" unicode="&#x2d9;" horiz-adv-x="258" 
d="M60 612c0 20 7.00098 36.167 21.001 48.5s31 18.5 51 18.5c17.333 0 32.666 -6.16699 45.999 -18.5s20 -28.5 20 -48.5c0 -22 -6.66699 -39.5 -20 -52.5s-28.666 -19.5 -45.999 -19.5c-20.667 0 -37.834 6.5 -51.501 19.5s-20.5 30.5 -20.5 52.5z" />
    <glyph glyph-name="ring" unicode="&#x2da;" horiz-adv-x="374" 
d="M60 612c0 33.333 12 61.666 36 84.999s54 35 90 35c36.667 0 67.167 -11.667 91.5 -35s36.5 -51.666 36.5 -84.999c0 -32.667 -12.167 -60.5 -36.5 -83.5s-54.833 -34.5 -91.5 -34.5c-36 0 -66 11.5 -90 34.5s-36 50.833 -36 83.5zM134 613c0 -16 5 -29.5 15 -40.5
s23 -16.5 39 -16.5c15.333 0 27.833 5.5 37.5 16.5s14.5 24.5 14.5 40.5s-4.83301 29.333 -14.5 40s-22.167 16 -37.5 16c-16 0 -29 -5.33301 -39 -16s-15 -24 -15 -40z" />
    <glyph glyph-name="ogonek" unicode="&#x2db;" horiz-adv-x="357" 
d="M262 -98l35.002 -70c-8.66699 -8.66699 -22.834 -16.167 -42.501 -22.5s-39.834 -9.5 -60.501 -9.5c-38 0 -69.833 7.66699 -95.5 23s-38.5 39 -38.5 71c0 40 22.833 71 68.5 93s97.5 33 155.5 33v-20c-29.333 0 -54.833 -7 -76.5 -21s-32.5 -29.667 -32.5 -47
c0 -14 4.5 -24.167 13.5 -30.5s19.5 -9.5 31.5 -9.5c14 0 28 3.33301 42 10z" />
    <glyph glyph-name="tilde" unicode="&#x2dc;" horiz-adv-x="464" 
d="M107 538l-47 52c36.667 46 77 69 121 69c16 0 35.833 -7 59.5 -21s42.167 -21 55.5 -21c9.33301 0 18 1.5 26 4.5s14.333 6 19 9s12.667 8.83301 24 17.5l39 -58c-39.333 -43.333 -78.333 -65 -117 -65c-14.667 0 -34 6.83301 -58 20.5s-43.667 20.5 -59 20.5
s-36.333 -9.33301 -63 -28z" />
    <glyph glyph-name="hungarumlaut" unicode="&#x2dd;" horiz-adv-x="484" 
d="M424 656l-132 -139l-69 48l116 156zM243 670l-114 -153l-69 48l101 166z" />
    <glyph glyph-name="gravecomb" unicode="&#x300;" horiz-adv-x="0" 
d="M-267 517l-127 143l91 68l104 -163z" />
    <glyph glyph-name="acutecomb" unicode="&#x301;" horiz-adv-x="0" 
d="M-115 662l-126 -145l-69 48l105 165z" />
    <glyph glyph-name="uni0394" unicode="&#x394;" horiz-adv-x="741" 
d="M25 0l303 708h78l310 -708h-691zM364 502l-161 -387h330z" />
    <glyph glyph-name="uni0394" unicode="&#x2206;" horiz-adv-x="741" 
d="M25 0l303 708h78l310 -708h-691zM364 502l-161 -387h330z" />
    <glyph glyph-name="uni03A9" unicode="&#x3a9;" horiz-adv-x="823" 
d="M54 0l0.000976562 114.998h157c-39.333 12.667 -75.166 43.834 -107.499 93.501s-48.5 106.834 -48.5 171.501c0 99.333 34 179.333 102 240s153 91 255 91c103.333 0 188.666 -30.167 255.999 -90.5s101 -140.5 101 -240.5c0 -67.333 -16.333 -124.833 -49 -172.5
s-68.667 -78.5 -108 -92.5h156v-115h-313v115c55.333 15.333 99.833 46.166 133.5 92.499s50.5 97.166 50.5 152.499c0 64.667 -20.833 120.167 -62.5 166.5s-96.5 69.5 -164.5 69.5c-71.333 0 -127 -23.167 -167 -69.5s-60 -102.833 -60 -169.5
c0 -51.333 16.667 -101.166 50 -149.499s77.666 -79.166 132.999 -92.499v-115h-314z" />
    <glyph glyph-name="uni03A9" unicode="&#x2126;" horiz-adv-x="823" 
d="M54 0l0.000976562 114.998h157c-39.333 12.667 -75.166 43.834 -107.499 93.501s-48.5 106.834 -48.5 171.501c0 99.333 34 179.333 102 240s153 91 255 91c103.333 0 188.666 -30.167 255.999 -90.5s101 -140.5 101 -240.5c0 -67.333 -16.333 -124.833 -49 -172.5
s-68.667 -78.5 -108 -92.5h156v-115h-313v115c55.333 15.333 99.833 46.166 133.5 92.499s50.5 97.166 50.5 152.499c0 64.667 -20.833 120.167 -62.5 166.5s-96.5 69.5 -164.5 69.5c-71.333 0 -127 -23.167 -167 -69.5s-60 -102.833 -60 -169.5
c0 -51.333 16.667 -101.166 50 -149.499s77.666 -79.166 132.999 -92.499v-115h-314z" />
    <glyph glyph-name="pi" unicode="&#x3c0;" horiz-adv-x="627" 
d="M42 342l-0.00195312 107.998h534v-108h-77v-176c0 -45.333 11 -68 33 -68c12.667 0 28 6 46 18l24 -88c-31.333 -25.333 -70.666 -38 -117.999 -38c-66.667 0 -100 43 -100 129v223h-145v-45c0 -80.667 -8.16699 -143.667 -24.5 -189s-38.5 -76.166 -66.5 -92.499
s-65.667 -24.5 -113 -24.5l-10 112c28.667 -2 51.834 9.83301 69.501 35.5s27.5 72.834 29.5 141.501l1 62h-83z" />
    <glyph glyph-name="afii10023" unicode="&#x401;" horiz-adv-x="575" 
d="M97 0v700h405v-115h-282v-174h252v-115h-252v-181h292v-115h-415zM119 825c0 18.667 7.33301 33.667 22 45s33 17 55 17c19.333 0 36 -5.66699 50 -17s21 -26.333 21 -45c0 -20.667 -7 -36.834 -21 -48.501s-30.667 -17.5 -50 -17.5c-22 0 -40.333 5.83301 -55 17.5
s-22 27.834 -22 48.501zM351 825c0 18.667 7.33301 33.667 22 45s33 17 55 17c19.333 0 36 -5.66699 50 -17s21 -26.333 21 -45c0 -20.667 -7 -36.834 -21 -48.501s-30.667 -17.5 -50 -17.5c-22 0 -40.333 5.83301 -55 17.5s-22 27.834 -22 48.501z" />
    <glyph glyph-name="afii10051" unicode="&#x402;" horiz-adv-x="764" 
d="M719 203c0 -71.333 -15.832 -124.833 -47.499 -160.5s-75.5 -53.5 -131.5 -53.5c-25.333 0 -49.333 4.5 -72 13.5s-38.334 18.833 -47.001 29.5l41 94c19.333 -14.667 40 -22 62 -22c48.667 0 73 32.333 73 97c0 71.333 -37 107 -111 107
c-42.667 0 -84.667 -12.333 -126 -37v-271h-123v585h-227v115h577v-115h-227v-202c44 26.667 93.667 40 149 40c140 0 210 -73.333 210 -220z" />
    <glyph glyph-name="afii10052" unicode="&#x403;" horiz-adv-x="507" 
d="M97 0v700h395v-115h-272v-585h-123zM509 812l-225 -81l-32 69l214 111z" />
    <glyph glyph-name="afii10053" unicode="&#x404;" horiz-adv-x="673" 
d="M486 414l0.000976562 -115.001h-315c10.667 -63.333 39.5 -111.666 86.5 -144.999s102.5 -50 166.5 -50c65.333 0 124.333 20.333 177 61l45 -103c-25.333 -22 -58.5 -39.667 -99.5 -53s-85.167 -20 -132.5 -20c-112.667 0 -202.334 32.333 -269.001 97
s-100 152.667 -100 264c0 106.667 32.833 193.5 98.5 260.5s150.167 100.5 253.5 100.5c100.667 0 181 -25.667 241 -77l-55 -92c-48 36 -102.667 54 -164 54c-66 0 -120.5 -16 -163.5 -48s-70.5 -76.667 -82.5 -134h313z" />
    <glyph glyph-name="afii10054" unicode="&#x405;" horiz-adv-x="553" 
d="M378 186c0 18.667 -5.83008 35.1689 -17.4971 49.502s-26.834 26.666 -45.501 36.999s-39.167 20.333 -61.5 30s-44.833 20.667 -67.5 33s-43.334 26 -62.001 41s-33.834 34.667 -45.501 59s-17.5 51.833 -17.5 82.5c0 54.667 19.833 100.5 59.5 137.5
s92.5 55.5 158.5 55.5c88 0 154.667 -25 200 -75l-66 -92c-36 34.667 -77.333 52 -124 52c-30 0 -53.833 -7 -71.5 -21s-26.5 -32.667 -26.5 -56c0 -22.667 7.83301 -42.334 23.5 -59.001s35.167 -29.834 58.5 -39.501s48.833 -21.167 76.5 -34.5
s53.167 -27.166 76.5 -41.499s42.833 -35 58.5 -62s23.5 -58.833 23.5 -95.5c0 -58 -22.333 -105.5 -67 -142.5s-100.334 -55.5 -167.001 -55.5c-48 0 -94.167 9.83301 -138.5 29.5s-74.5 46.5 -90.5 80.5l70 84c19.333 -25.333 43.833 -44.833 73.5 -58.5
s58.834 -20.5 87.501 -20.5c30 0 54.5 7.16699 73.5 21.5s28.5 34.5 28.5 60.5z" />
    <glyph glyph-name="afii10055" unicode="&#x406;" horiz-adv-x="347" 
d="M112 0v700h123v-700h-123z" />
    <glyph glyph-name="afii10056" unicode="&#x407;" horiz-adv-x="347" 
d="M26 825c0 18.667 6.33301 33.667 19 45s28.334 17 47.001 17c17.333 0 32.166 -5.66699 44.499 -17s18.5 -26.333 18.5 -45c0 -20.667 -6.16699 -36.834 -18.5 -48.501s-27.166 -17.5 -44.499 -17.5c-18.667 0 -34.334 5.83301 -47.001 17.5s-19 27.834 -19 48.501z
M193 825c0 18.667 6.5 33.667 19.5 45s28.833 17 47.5 17c16.667 0 31.167 -5.83301 43.5 -17.5s18.5 -26.5 18.5 -44.5c0 -20.667 -6 -36.834 -18 -48.501s-26.667 -17.5 -44 -17.5c-19.333 0 -35.333 5.83301 -48 17.5s-19 27.834 -19 48.501zM112 0v700h123v-700h-123z
" />
    <glyph glyph-name="afii10057" unicode="&#x408;" horiz-adv-x="390" 
d="M293 700v-535c0 -56.667 -14.167 -100.167 -42.5 -130.5s-70.5 -45.5 -126.5 -45.5c-25.333 0 -49 4.33301 -71 13s-38 18.667 -48 30l40 94c19.333 -14.667 40 -22 62 -22c42 0 63 27.333 63 82v514h123z" />
    <glyph glyph-name="afii10058" unicode="&#x409;" horiz-adv-x="1011" 
d="M510 0l-0.000976562 584.999h-204l-14 -132c-8 -80 -18.333 -148.333 -31 -205s-26.667 -102 -42 -136s-33.5 -60 -54.5 -78s-42.667 -29.167 -65 -33.5s-48.166 -4.5 -77.499 -0.5l3 122c13.333 -2 24.833 -1.5 34.5 1.5s21.167 12.5 34.5 28.5s24.833 39 34.5 69
s19.334 73.833 29.001 131.5s17.5 126.834 23.5 207.501l10 140h441v-240c26 3.33301 51.667 5 77 5c84.667 0 148.667 -20 192 -60s65 -95.333 65 -166c0 -75.333 -24.833 -134.333 -74.5 -177s-119.167 -64 -208.5 -64c-24.667 0 -56.834 0.333008 -96.501 1
s-65.167 1 -76.5 1zM698.999 349.999c-14.667 0 -37.001 -1.66602 -67.001 -4.99902v-229c0.666992 0 9.33398 -0.5 26.001 -1.5s29.667 -1.5 39 -1.5c92.667 0 139 41 139 123c0 37.333 -12 65.666 -36 84.999s-57.667 29 -101 29z" />
    <glyph glyph-name="afii10059" unicode="&#x40a;" horiz-adv-x="1032" 
d="M97 0l0.000976562 700h123v-262h310v262h122v-257c28.667 2.66699 54.667 4 78 4c84.667 0 148.667 -19.333 192 -58s65 -91.667 65 -159c0 -71.333 -25 -127.833 -75 -169.5s-119.333 -62.5 -208 -62.5c-24.667 0 -56.834 0.333008 -96.501 1s-65.167 1 -76.5 1h-1v323
h-310v-323h-123zM652.001 327l0.000976562 -211c2 0 11.167 -0.5 27.5 -1.5s29.166 -1.5 38.499 -1.5c92.667 0 139 38 139 114c0 34 -12 60 -36 78s-57.667 27 -101 27c-22 0 -44.667 -1.66699 -68 -5z" />
    <glyph glyph-name="afii10060" unicode="&#x40b;" horiz-adv-x="765" 
d="M10 585v115.001h577v-115h-227v-202c42 26.667 92 40 150 40c28 0 54 -4 78 -12s46.167 -20.333 66.5 -37s36.333 -39.834 48 -69.501s17.5 -64.5 17.5 -104.5v-200h-122v164c0 96 -40 144 -120 144c-40 0 -79.333 -12.667 -118 -38v-270h-123v585h-227z" />
    <glyph glyph-name="afii10061" unicode="&#x40c;" horiz-adv-x="672" 
d="M97 0v700h123v-332l276 332h148l-288 -326l306 -374h-156l-286 361v-361h-123zM554 812l-225 -81l-32 69l214 111z" />
    <glyph glyph-name="afii10062" unicode="&#x40e;" horiz-adv-x="683" 
d="M671 700l-238 -537c-24.667 -55.333 -52 -96.333 -82 -123s-66 -40 -108 -40c-40.667 -0 -72.667 9.33301 -96 28l43 104c16.667 -11.333 34 -17 52 -17c30.667 0 53.667 16.333 69 49l10 24l-309 512h139l229 -391l167 391h124zM156 870h114.998
c8 -38.667 36.333 -58 85 -58c50 0 76.667 19.333 80 58h115c-1.33301 -42.667 -20.333 -77.167 -57 -103.5s-82.667 -39.5 -138 -39.5c-59.333 0 -106.666 13 -141.999 39s-54.666 60.667 -57.999 104z" />
    <glyph glyph-name="afii10145" unicode="&#x40f;" horiz-adv-x="742" 
d="M97 0v700h123v-585h302v585h123v-700h-217v-153h-115v153h-216z" />
    <glyph glyph-name="afii10017" unicode="&#x410;" horiz-adv-x="715" 
d="M7 0l296 702h108l296 -702h-131l-73 179h-299l-73 -179h-124zM354 543l-103 -249h205z" />
    <glyph glyph-name="afii10018" unicode="&#x411;" horiz-adv-x="614" 
d="M97 0l0.000976562 700.001h409v-115h-286v-156c27.333 4 58.666 6 93.999 6c72.667 0 130 -19 172 -57s63 -89.333 63 -154c0 -72.667 -23.5 -128.834 -70.5 -168.501s-113.5 -59.5 -199.5 -59.5c-30 0 -65.167 0.666992 -105.5 2s-65.833 2 -76.5 2zM304.001 320.001
c-24.667 0 -52.668 -2 -84.001 -6v-199c37.333 -2.66699 63.333 -4 78 -4c86 0 129 34.667 129 104c0 32 -10.167 57.5 -30.5 76.5s-51.166 28.5 -92.499 28.5z" />
    <glyph glyph-name="afii10019" unicode="&#x412;" horiz-adv-x="617" 
d="M97 1v696.998c65.333 3.33301 132.666 5 201.999 5c79.333 0 137.5 -15.833 174.5 -47.5s55.5 -73.5 55.5 -125.5c0 -74.667 -33.333 -127.667 -100 -159v-2c36.667 -9.33301 66.334 -27.666 89.001 -54.999s34 -63.333 34 -108
c0 -69.333 -23.833 -121.666 -71.5 -156.999s-110.5 -53 -188.5 -53c-84.667 0 -149.667 1.66699 -195 5zM307 300.998h-87v-185c28 -3.33301 55 -5 81 -5c85.333 0 128 33.667 128 101c0 29.333 -10.667 51.5 -32 66.5s-51.333 22.5 -90 22.5zM297 587.998
c-29.333 0 -55 -1.00098 -77 -3.00098v-177h83c30.667 0 55.667 7.83301 75 23.5s29 38.834 29 69.501c0 28 -9.83301 49.5 -29.5 64.5s-46.5 22.5 -80.5 22.5z" />
    <glyph glyph-name="afii10020" unicode="&#x413;" horiz-adv-x="507" 
d="M97 0v700h395v-115h-272v-585h-123z" />
    <glyph glyph-name="afii10021" unicode="&#x414;" horiz-adv-x="756" 
d="M12 -125v240.001h75c20.667 25.333 42.5 77.166 65.5 155.499s37.167 174.833 42.5 289.5l7 140h434v-585h95v-240h-115v125h-489v-125h-115zM310 463.001c-6 -82 -18.333 -155.668 -37 -221.001s-35.667 -107.666 -51 -126.999h292v470h-193z" />
    <glyph glyph-name="afii10022" unicode="&#x415;" horiz-adv-x="575" 
d="M97 0v700h405v-115h-282v-174h252v-115h-252v-181h292v-115h-415z" />
    <glyph glyph-name="afii10024" unicode="&#x416;" horiz-adv-x="954" 
d="M284 365l-263 335h141l254 -334v334h122v-334l253 334h142l-263 -334l274 -366h-142l-264 363v-363h-122v363l-265 -363h-141z" />
    <glyph glyph-name="afii10025" unicode="&#x417;" horiz-adv-x="585" 
d="M275 -11c-56.667 0 -105.5 11.501 -146.5 34.501s-72.167 50.833 -93.5 83.5l67 83c22 -25.333 48.333 -46 79 -62s60 -24 88 -24c36.667 0 67.334 8.83301 92.001 26.5s37 43.5 37 77.5c0 28 -10.667 50.333 -32 67s-52 25 -92 25h-72v115h68c27.333 0 51 8.33301 71 25
s30 39 30 67c0 28.667 -9.33301 50.667 -28 66s-43.334 23 -74.001 23c-56.667 0 -104 -25.333 -142 -76l-71 82c23.333 32.667 55.333 59 96 79s84.334 30 131.001 30c63.333 0 114.166 -16.833 152.499 -50.5s57.5 -80.834 57.5 -141.501c0 -28.667 -8 -57 -24 -85
s-39.333 -51 -70 -69v-3c40.667 -10 71 -29.667 91 -59s30 -65 30 -107c0 -62 -24.167 -112 -72.5 -150s-105.833 -57 -172.5 -57z" />
    <glyph glyph-name="afii10026" unicode="&#x418;" horiz-adv-x="792" 
d="M205 0h-108v700h123v-498l367 498h108v-700h-123v497z" />
    <glyph glyph-name="afii10027" unicode="&#x419;" horiz-adv-x="792" 
d="M205 0h-108v700h123v-498l367 498h108v-700h-123v497zM208 870h114.998c8 -38.667 36.333 -58 85 -58c50 0 76.667 19.333 80 58h115c-1.33301 -42.667 -20.333 -77.167 -57 -103.5s-82.667 -39.5 -138 -39.5c-59.333 0 -106.666 13 -141.999 39
s-54.666 60.667 -57.999 104z" />
    <glyph glyph-name="afii10028" unicode="&#x41a;" horiz-adv-x="672" 
d="M97 0v700h123v-332l276 332h148l-288 -326l306 -374h-156l-286 361v-361h-123z" />
    <glyph glyph-name="afii10029" unicode="&#x41b;" horiz-adv-x="729" 
d="M510 0l-0.00195312 584.999h-204l-14 -132c-8 -80 -18.333 -148.333 -31 -205s-26.667 -102 -42 -136s-33.5 -60 -54.5 -78s-42.667 -29.167 -65 -33.5s-48.166 -4.5 -77.499 -0.5l3 122c13.333 -2 24.833 -1.5 34.5 1.5s21.167 12.5 34.5 28.5s24.833 39 34.5 69
s19.334 73.833 29.001 131.5s17.5 126.834 23.5 207.501l10 140h441v-700h-122z" />
    <glyph glyph-name="afii10030" unicode="&#x41c;" horiz-adv-x="901" 
d="M97 0v700h124l239 -327l228 327h116v-700h-122v506l-221 -311h-18l-223 308v-503h-123z" />
    <glyph glyph-name="afii10031" unicode="&#x41d;" horiz-adv-x="759" 
d="M540 0v299h-320v-299h-123v700h123v-286h320v286h122v-700h-122z" />
    <glyph glyph-name="afii10032" unicode="&#x41e;" horiz-adv-x="819" 
d="M45 350c0 102.667 34.167 188.5 102.5 257.5s155.5 103.5 261.5 103.5c105.333 0 192.5 -33.333 261.5 -100s103.5 -153.667 103.5 -261c0 -104.667 -34.667 -191 -104 -259s-156.333 -102 -261 -102c-105.333 0 -192.333 33.333 -261 100s-103 153.667 -103 261z
M175 350c0 -70 22.499 -128.501 67.499 -175.501s100.5 -70.5 166.5 -70.5c72 0 129.167 23.333 171.5 70s63.5 105.334 63.5 176.001c0 72 -22.5 131 -67.5 177s-100.833 69 -167.5 69c-67.333 0 -123.166 -23 -167.499 -69s-66.5 -105 -66.5 -177z" />
    <glyph glyph-name="afii10033" unicode="&#x41f;" horiz-adv-x="752" 
d="M532 0v585h-312v-585h-123v700h558v-700h-123z" />
    <glyph glyph-name="afii10034" unicode="&#x420;" horiz-adv-x="612" 
d="M220 0l-122.999 0.00195312v700c12 0 43.833 0.333008 95.5 1s86.167 1 103.5 1c49.333 0 92.166 -6.16699 128.499 -18.5s64.5 -29.333 84.5 -51s34.667 -45.334 44 -71.001s14 -53.834 14 -84.501c0 -63.333 -22.667 -117 -68 -161s-108 -66 -188 -66
c-40.667 0 -71 1 -91 3v-253zM308.001 587.002c-14.667 0 -44 -0.666992 -88 -2v-215c32 -3.33301 61 -5 87 -5c38.667 0 70 9.5 94 28.5s36 47.167 36 84.5c0 72.667 -43 109 -129 109z" />
    <glyph glyph-name="afii10035" unicode="&#x421;" horiz-adv-x="655" 
d="M583 160l47 -91.998c-22 -23.333 -53.5 -42.333 -94.5 -57s-84.167 -22 -129.5 -22c-107.333 0 -194.333 33 -261 99s-100 153.333 -100 262c0 104.667 31.667 191 95 259s151 102 263 102c90 0 161 -23.667 213 -71l-55 -91c-47.333 31.333 -100 47 -158 47
c-66 0 -120.5 -22.333 -163.5 -67s-64.5 -104.334 -64.5 -179.001c0 -72.667 22.5 -131.834 67.5 -177.501s103.167 -68.5 174.5 -68.5c62 0 117.333 18.667 166 56z" />
    <glyph glyph-name="afii10036" unicode="&#x422;" horiz-adv-x="597" 
d="M10 585v115h577v-115h-227v-585h-123v585h-227z" />
    <glyph glyph-name="afii10037" unicode="&#x423;" horiz-adv-x="683" 
d="M671 700l-238 -537c-24.667 -55.333 -52 -96.333 -82 -123s-66 -40 -108 -40c-40.667 -0 -72.667 9.33301 -96 28l43 104c16.667 -11.333 34 -17 52 -17c30.667 0 53.667 16.333 69 49l10 24l-309 512h139l229 -391l167 391h124z" />
    <glyph glyph-name="afii10038" unicode="&#x424;" horiz-adv-x="839" 
d="M358 -8v93.001c-98 0 -176.333 24.167 -235 72.5s-88 115.833 -88 202.5c0 86 29.333 153 88 201s137 72.667 235 74v73h123v-73c97.333 -1.33301 175.5 -26.333 234.5 -75s88.5 -115.334 88.5 -200.001c0 -86 -29.5 -153.167 -88.5 -201.5
s-137.167 -72.833 -234.5 -73.5v-93h-123zM674 360.001c0 48.667 -16.333 87.667 -49 117s-80.667 44.333 -144 45v-324c128.667 1.33301 193 55.333 193 162zM165 360.001c0 -52 16.667 -91.832 50 -119.499s81 -41.834 143 -42.501v324
c-62.667 -0.666992 -110.5 -15.667 -143.5 -45s-49.5 -68.333 -49.5 -117z" />
    <glyph glyph-name="afii10039" unicode="&#x425;" horiz-adv-x="669" 
d="M650 700l-236 -343l245 -357h-144l-181 263l-180 -263h-144l245 357l-234 343h144l172 -253l169 253h144z" />
    <glyph glyph-name="afii10040" unicode="&#x426;" horiz-adv-x="770" 
d="M97 0v700h123v-585h307v585h123v-585h95v-240h-115v125h-533z" />
    <glyph glyph-name="afii10041" unicode="&#x427;" horiz-adv-x="667" 
d="M570 700v-700h-123v287c-44 -32 -99.667 -48 -167 -48c-60 0 -110.5 18 -151.5 54s-61.5 92.667 -61.5 170v237h123v-202c0 -96 41 -144 123 -144c45.333 0 90 15 134 45v301h123z" />
    <glyph glyph-name="afii10042" unicode="&#x428;" horiz-adv-x="997" 
d="M97 0v700h123v-585h217v585h123v-585h217v585h123v-700h-803z" />
    <glyph glyph-name="afii10043" unicode="&#x429;" horiz-adv-x="1020" 
d="M97 0v700h123v-585h217v585h123v-585h217v585h123v-585h95v-240h-115v125h-783z" />
    <glyph glyph-name="afii10044" unicode="&#x42a;" horiz-adv-x="673" 
d="M7 585l0.000976562 115h276v-240c26.667 3.33301 53.667 5 81 5c88 0 154 -20 198 -60s66 -95.333 66 -166c0 -74.667 -25.333 -133.5 -76 -176.5s-122.334 -64.5 -215.001 -64.5c-24 0 -56.5 0.333008 -97.5 1s-67.167 1 -78.5 1v585h-154zM354.001 350
c-16 0 -39.666 -1.66699 -70.999 -5v-229c5.33301 0 12.5 -0.333008 21.5 -1s17.333 -1.16699 25 -1.5s15.167 -0.5 22.5 -0.5c97.333 0 146 41 146 123c0 38 -12.833 66.5 -38.5 85.5s-60.834 28.5 -105.501 28.5z" />
    <glyph glyph-name="afii10045" unicode="&#x42b;" horiz-adv-x="864" 
d="M645 0v700h122v-700h-122zM288 350c-14 0 -36.667 -1.66602 -68 -4.99902v-229c4.66699 0 11.334 -0.333008 20.001 -1s16.667 -1.16699 24 -1.5s14.666 -0.5 21.999 -0.5c92 0 138 41 138 123c0 37.333 -11.833 65.666 -35.5 84.999s-57.167 29 -100.5 29zM220 700.001
l-0.000976562 -240c26 3.33301 52 5 78 5c84.667 0 148.5 -20 191.5 -60s64.5 -95.333 64.5 -166c0 -74.667 -25 -133.5 -75 -176.5s-119.333 -64.5 -208 -64.5c-24 0 -56.167 0.333008 -96.5 1s-66.166 1 -77.499 1v700h123z" />
    <glyph glyph-name="afii10046" unicode="&#x42c;" horiz-adv-x="609" 
d="M290 350c-15.333 0 -38.666 -1.66699 -69.999 -5v-229c44 -2 66.667 -3 68 -3c97.333 0 146 41 146 123c0 38 -12.833 66.5 -38.5 85.5s-60.834 28.5 -105.501 28.5zM220 700v-240c26 3.33301 52.667 5 80 5c88 0 154 -20 198 -60s66 -95.333 66 -166
c0 -74.667 -25.333 -133.5 -76 -176.5s-122 -64.5 -214 -64.5c-24.667 0 -57.5 0.333008 -98.5 1s-67.167 1 -78.5 1v700h123z" />
    <glyph glyph-name="afii10047" unicode="&#x42d;" horiz-adv-x="673" 
d="M187 299l0.000976562 114.999h312c-12 58 -40.333 102.833 -85 134.5s-100.334 47.5 -167.001 47.5c-61.333 0 -116 -18 -164 -54l-48 92c60 51.333 140.333 77 241 77c104 0 188.667 -33 254 -99s98 -153 98 -261c0 -110 -33 -197.833 -99 -263.5s-155 -98.5 -267 -98.5
c-47.333 0 -92 6.83301 -134 20.5s-75.667 31.167 -101 52.5l53 103c52.667 -40.667 112.667 -61 180 -61c62.667 0 116.167 16.833 160.5 50.5s71.5 81.834 81.5 144.501h-315z" />
    <glyph glyph-name="afii10048" unicode="&#x42e;" horiz-adv-x="1081" 
d="M97 0v700.001h123v-286h119c13.333 87.333 50.833 158.666 112.5 213.999s138.167 83 229.5 83c104.667 0 190 -33.167 256 -99.5s99 -153.5 99 -261.5c0 -105.333 -33.167 -191.833 -99.5 -259.5s-151.5 -101.5 -255.5 -101.5c-90 0 -167.167 28.333 -231.5 85
s-101.833 131.667 -112.5 225h-117v-299h-123zM464 350.001c0 -69.333 21.333 -127.668 64 -175.001s95 -71 157 -71c70.667 0 125.167 23 163.5 69s57.5 105 57.5 177c0 72.667 -20.333 131.834 -61 177.501s-94 68.5 -160 68.5c-63.333 0 -116 -23 -158 -69
s-63 -105 -63 -177z" />
    <glyph glyph-name="afii10049" unicode="&#x42f;" horiz-adv-x="632" 
d="M413 0v242h-101l-157 -242h-138l179 267c-36 18 -65.5 43.5 -88.5 76.5s-34.5 72.167 -34.5 117.5c0 70 24 127.833 72 173.5s120 68.5 216 68.5c15.333 0 44.833 -0.5 88.5 -1.5s72.167 -1.5 85.5 -1.5v-700h-122zM301 357h112v228c-34 2 -59.667 3 -77 3
c-40 0 -72.167 -11 -96.5 -33s-36.5 -50.667 -36.5 -86c0 -30 9.5 -54.833 28.5 -74.5s42.167 -32.167 69.5 -37.5z" />
    <glyph glyph-name="afii10065" unicode="&#x430;" horiz-adv-x="463" 
d="M99 334l-29.001 83.999c48.667 28.667 101.667 43 159 43c64 0 110 -15.667 138 -47s42 -78 42 -140v-274h-100v52c-27.333 -38.667 -71.666 -58 -132.999 -58c-42 0 -76 12.333 -102 37s-39 58.334 -39 101.001c0 47.333 15.333 83.5 46 108.5s70 37.5 118 37.5
c41.333 0 75.333 -9.66699 102 -29c1.33301 39.333 -4.33398 68.5 -17.001 87.5s-35 28.5 -67 28.5c-33.333 0 -72.666 -10.333 -117.999 -31zM213.999 90.999c38.667 0 67.667 13.667 87 41v46c-19.333 14.667 -45.666 22 -78.999 22
c-20.667 0 -37.834 -4.83301 -51.501 -14.5s-20.5 -23.5 -20.5 -41.5c0 -16.667 6 -29.667 18 -39s27.333 -14 46 -14z" />
    <glyph glyph-name="afii10066" unicode="&#x431;" horiz-adv-x="548" 
d="M402 711l60.001 -94.0029c-17.333 -20.667 -37.333 -35.167 -60 -43.5s-49.167 -15.666 -79.5 -21.999s-56.5 -14.833 -78.5 -25.5c-56 -26 -88.333 -82 -97 -168h2c14 24.667 35.667 44.834 65 60.501s60.333 23.5 93 23.5c62 0 111.667 -20 149 -60s56 -93.667 56 -161
c0 -64.667 -22 -119.5 -66 -164.5s-100.667 -67.5 -170 -67.5c-75.333 0 -134.833 25.667 -178.5 77s-65.5 120.666 -65.5 207.999c0 192.667 56.667 313.334 170 362.001c25.333 10.667 52.666 18.834 81.999 24.501s52.833 11.5 70.5 17.5s33.5 17 47.5 33z
M155.001 249.997c0.666992 -44.667 11.668 -81.5 33.001 -110.5s49.666 -43.5 84.999 -43.5s63.5 11.5 84.5 34.5s31.5 51.5 31.5 85.5c0 34.667 -9.66699 63.167 -29 85.5s-46.666 33.5 -81.999 33.5c-30.667 0 -56.834 -8 -78.501 -24s-36.5 -36.333 -44.5 -61z" />
    <glyph glyph-name="afii10067" unicode="&#x432;" horiz-adv-x="502" 
d="M64 0l-0.000976562 450c8 0 22.833 0.5 44.5 1.5s44 1.83301 67 2.5s44.833 1 65.5 1c136 0 204 -39.333 204 -118c0 -26 -8.16699 -48.333 -24.5 -67s-36.166 -29.667 -59.499 -33v-2c64 -15.333 96 -50 96 -104c0 -90.667 -71.333 -136 -214 -136
c-20 0 -51.667 0.833008 -95 2.5s-71.333 2.5 -84 2.5zM250.999 191h-71.998v-100c45.333 -2.66699 70.666 -4 75.999 -4c25.333 0 45.166 4.66699 59.499 14s21.5 22 21.5 38c0 34.667 -28.333 52 -85 52zM251.001 362c-32 0 -56 -0.666992 -72 -2v-99h75
c20 0 36.5 4.5 49.5 13.5s19.5 21.833 19.5 38.5c0 32.667 -24 49 -72 49z" />
    <glyph glyph-name="afii10068" unicode="&#x433;" horiz-adv-x="374" 
d="M64 0v450h302v-108h-187v-342h-115z" />
    <glyph glyph-name="afii10069" unicode="&#x434;" horiz-adv-x="556" 
d="M10 -105v212h57c35.333 46.667 56.333 125 63 235l7 108h332v-343h75v-212h-108v105h-319v-105h-107zM241 296c-8 -87.333 -26 -150.333 -54 -189h167v235h-110z" />
    <glyph glyph-name="afii10070" unicode="&#x435;" horiz-adv-x="516" 
d="M417 126l33 -81.001c-44 -37.333 -101.333 -56 -172 -56c-72.667 0 -131.167 21.667 -175.5 65s-66.5 100.333 -66.5 171c0 67.333 21.667 123.5 65 168.5s101 67.5 173 67.5c59.333 0 109.666 -19.5 150.999 -58.5s62 -89.167 62 -150.5c0 -25.333 -2.33301 -46 -7 -62
h-325c4.66699 -33.333 19.334 -59.166 44.001 -77.499s55 -27.5 91 -27.5c50.667 0 93 13.667 127 41zM269 364.999c-65.333 0 -104.667 -32.667 -118 -98h221c0.666992 28 -8.33301 51.333 -27 70s-44 28 -76 28z" />
    <glyph glyph-name="afii10072" unicode="&#x436;" horiz-adv-x="709" 
d="M689 450l-149 -218l161 -232h-136l-150 232l138 218h136zM295 0v450h115v-450h-115zM166 232l-150 218h140l134 -218l-146 -232h-137z" />
    <glyph glyph-name="afii10073" unicode="&#x437;" horiz-adv-x="472" 
d="M223 -11c-39.333 0 -77.668 7.16895 -115.001 21.502s-64.333 32.166 -81 53.499l59 72c13.333 -15.333 32.5 -28.333 57.5 -39s48.167 -16 69.5 -16c29.333 0 52 5 68 15s24 23.333 24 40c0 15.333 -6 27.666 -18 36.999s-28.667 14 -50 14h-84v77h79
c18 0 32.5 5.33301 43.5 16s16.5 23.667 16.5 39c0 32.667 -26.333 49 -79 49c-41.333 0 -82.333 -17.333 -123 -52l-48 69c43.333 50.667 107.666 76 192.999 76c58.667 0 103.334 -11.333 134.001 -34s46 -54 46 -94c0 -22 -7.33301 -42 -22 -60s-35 -31.333 -61 -40v-2
c30.667 -6 54.167 -18.5 70.5 -37.5s24.5 -41.833 24.5 -68.5c0 -42 -18.667 -75.167 -56 -99.5s-86.666 -36.5 -147.999 -36.5z" />
    <glyph glyph-name="afii10074" unicode="&#x438;" horiz-adv-x="568" 
d="M179 0h-115v450h115v-285l210 285h115v-450h-115v285z" />
    <glyph glyph-name="afii10075" unicode="&#x439;" horiz-adv-x="568" 
d="M179 0h-115v450h115v-285l210 285h115v-450h-115v285zM131 675h105.001c0 -20.667 4.16699 -38 12.5 -52s21.5 -21 39.5 -21c16 0 28 7 36 21s12 31.333 12 52h105c0 -45.333 -13.333 -82.5 -40 -111.5s-64.334 -43.5 -113.001 -43.5
c-53.333 0 -92.833 14.167 -118.5 42.5s-38.5 65.833 -38.5 112.5z" />
    <glyph glyph-name="afii10076" unicode="&#x43a;" horiz-adv-x="515" 
d="M490 450l-173 -214l194 -236h-150l-178 227l162 223h145zM64 0v450h115v-450h-115z" />
    <glyph glyph-name="afii10077" unicode="&#x43b;" horiz-adv-x="539" 
d="M360 0l0.000976562 334.999h-119l-3 -48c-7.33301 -80.667 -19.5 -142.667 -36.5 -186s-38.333 -72.5 -64 -87.5s-59.834 -22.5 -102.501 -22.5l-10 112c14.667 -1.33301 28.5 2.83398 41.5 12.501s25.5 31 37.5 64s19.667 76.5 23 130.5l7 140h341v-450h-115z" />
    <glyph glyph-name="afii10078" unicode="&#x43c;" horiz-adv-x="631" 
d="M64 0v450h104l153 -188l145 188h101v-450h-115v275l-133 -168h-3l-137 168v-275h-115z" />
    <glyph glyph-name="afii10079" unicode="&#x43d;" horiz-adv-x="555" 
d="M376 0v172h-197v-172h-115v450h115v-170h197v170h115v-450h-115z" />
    <glyph glyph-name="afii10080" unicode="&#x43e;" horiz-adv-x="562" 
d="M36 225c0 68.667 22.5 125.167 67.5 169.5s104.167 66.5 177.5 66.5s132.5 -22.167 177.5 -66.5s67.5 -100.833 67.5 -169.5s-22.5 -125.167 -67.5 -169.5s-104.167 -66.5 -177.5 -66.5s-132.5 22.167 -177.5 66.5s-67.5 100.833 -67.5 169.5zM159 225
c0 -37.333 11.499 -68.168 34.499 -92.501s52.167 -36.5 87.5 -36.5c36 0 65.5 11.833 88.5 35.5s34.5 54.834 34.5 93.501c0 37.333 -11.667 68 -35 92s-52.666 36 -87.999 36c-34.667 0 -63.667 -11.833 -87 -35.5s-35 -54.5 -35 -92.5z" />
    <glyph glyph-name="afii10081" unicode="&#x43f;" horiz-adv-x="550" 
d="M371 0v342h-192v-342h-115v450h422v-450h-115z" />
    <glyph glyph-name="afii10082" unicode="&#x440;" horiz-adv-x="558" 
d="M64 -200l0.000976562 650.001h115v-43c14.667 15.333 34.5 28.166 59.5 38.499s51.5 15.5 79.5 15.5c61.333 0 110.666 -21.333 147.999 -64s56 -97.667 56 -165c0 -70 -22 -128 -66 -174s-101.333 -69 -172 -69c-44.667 0 -79.667 7.33301 -105 22v-211h-115z
M282.001 353.001c-39.333 0 -73.6689 -16.333 -103.002 -49v-182c26.667 -17.333 58.334 -26 95.001 -26c38.667 0 69.334 12.5 92.001 37.5s34 56.833 34 95.5c0 36.667 -10.333 66.5 -31 89.5s-49.667 34.5 -87 34.5z" />
    <glyph glyph-name="afii10083" unicode="&#x441;" horiz-adv-x="487" 
d="M405 151l54.001 -84c-18.667 -25.333 -43.834 -44.666 -75.501 -57.999s-66.167 -20 -103.5 -20c-73.333 0 -132.333 21.667 -177 65s-67 100.333 -67 171c0 66.667 22 122.667 66 168s99.667 68 167 68c80 0 140.333 -20.333 181 -61l-54 -91
c-30 29.333 -67.333 44 -112 44c-33.333 0 -62.5 -11.833 -87.5 -35.5s-37.5 -54.5 -37.5 -92.5c0 -38.667 12.833 -69.834 38.5 -93.501s56.167 -35.5 91.5 -35.5c44 0 82.667 18.333 116 55z" />
    <glyph glyph-name="afii10084" unicode="&#x442;" horiz-adv-x="445" 
d="M17 335v115h410v-115h-147v-335h-115v335h-148z" />
    <glyph glyph-name="afii10085" unicode="&#x443;" horiz-adv-x="503" 
d="M498 450l-176.999 -450c-32 -78 -60.5 -130.833 -85.5 -158.5s-54.5 -41.5 -88.5 -41.5c-32.667 0 -65 11.667 -97 35l37 87c18 -10.667 33.667 -16 47 -16c27.333 0 50.333 23.333 69 70l10 24l-208 450h138l105 -246c4 -10 11.333 -31.667 22 -65
c5.33301 29.333 10.666 51.333 15.999 66l81 245h131z" />
    <glyph glyph-name="afii10086" unicode="&#x444;" horiz-adv-x="687" 
d="M286 -200l-0.000976562 189h-6c-76.667 0 -136.5 22 -179.5 66s-64.5 100.667 -64.5 170c0 64.667 21.833 120.167 65.5 166.5s102.834 69.5 177.501 69.5h7v239h115v-239h8c75.333 0 134.5 -22.167 177.5 -66.5s64.5 -100.833 64.5 -169.5
c0 -70 -20.667 -126.833 -62 -170.5s-101.333 -65.5 -180 -65.5h-8v-189h-115zM408.999 353l-8 0.000976562v-257h4c40 0 70.5 11.667 91.5 35s31.5 54.666 31.5 93.999c0 36 -10.167 66.333 -30.5 91s-49.833 37 -88.5 37zM158.999 225.001
c0 -38.667 10.667 -69.833 32 -93.5s52 -35.5 92 -35.5h3v257h-8c-40 0 -69.833 -12 -89.5 -36s-29.5 -54.667 -29.5 -92z" />
    <glyph glyph-name="afii10087" unicode="&#x445;" horiz-adv-x="522" 
d="M494 450l-150 -215l160 -235h-140l-105 162l-109 -162h-133l160 229l-150 221h141l95 -149l98 149h133z" />
    <glyph glyph-name="afii10088" unicode="&#x446;" horiz-adv-x="566" 
d="M64 0v450h115v-343h185v343h115v-343h75v-212h-108v105h-382z" />
    <glyph glyph-name="afii10089" unicode="&#x447;" horiz-adv-x="491" 
d="M427 450v-450.001h-115v155c-32.667 -17.333 -70 -26 -112 -26c-56.667 0 -98 14.833 -124 44.5s-39 73.834 -39 132.501v144h123v-130c0 -55.333 24.333 -83 73 -83c32 0 58.333 6 79 18v195h115z" />
    <glyph glyph-name="afii10090" unicode="&#x448;" horiz-adv-x="728" 
d="M64 0v450h115v-343h127v343h115v-343h128v343h115v-450h-600z" />
    <glyph glyph-name="afii10091" unicode="&#x449;" horiz-adv-x="751" 
d="M64 0v450h115v-343h127v343h115v-343h128v343h115v-343h75v-212h-108v105h-567z" />
    <glyph glyph-name="afii10092" unicode="&#x44a;" horiz-adv-x="536" 
d="M15 342l-0.00195312 108h232v-123h63c70.667 0 121.334 -14.667 152.001 -44s46 -66.666 46 -111.999c0 -48.667 -16.667 -89.334 -50 -122.001s-85.666 -49 -156.999 -49h-169v342h-117zM299.998 235h-53v-135h52c57.333 0 86 22.333 86 67c0 45.333 -28.333 68 -85 68z
" />
    <glyph glyph-name="afii10093" unicode="&#x44b;" horiz-adv-x="676" 
d="M64 0l-0.00195312 450h115v-123h56c70.667 0 121.334 -14.667 152.001 -44s46 -66.666 46 -111.999c0 -48.667 -16.667 -89.334 -50 -122.001s-85.666 -49 -156.999 -49h-162zM496.998 0v450h115v-450h-115zM224.998 235h-46v-135h45c58 0 87 22.333 87 67
c0 45.333 -28.667 68 -86 68z" />
    <glyph glyph-name="afii10094" unicode="&#x44c;" horiz-adv-x="467" 
d="M64 0l-0.00195312 450h115v-123h62c70.667 0 121.334 -14.667 152.001 -44s46 -66.666 46 -111.999c0 -48.667 -16.667 -89.334 -50 -122.001s-85.666 -49 -156.999 -49h-168zM230.998 235h-52v-135h51c58 0 87 22.333 87 67c0 45.333 -28.667 68 -86 68z" />
    <glyph glyph-name="afii10095" unicode="&#x44d;" horiz-adv-x="496" 
d="M140 189l-0.00292969 77h200c-7.33301 31.333 -22.666 55 -45.999 71s-51 24 -83 24c-43.333 0 -86.333 -15.667 -129 -47l-47 80c20 22 46.333 38.667 79 50s64.334 17 95.001 17c76.667 0 137.667 -21.333 183 -64s68 -100 68 -172c0 -68 -21.5 -124.333 -64.5 -169
s-101.5 -67 -175.5 -67c-81.333 0 -143.666 22.333 -186.999 67l54 76c32.667 -28.667 74.667 -43 126 -43c34.667 0 63.167 8.5 85.5 25.5s36.5 41.833 42.5 74.5h-201z" />
    <glyph glyph-name="afii10096" unicode="&#x44e;" horiz-adv-x="772" 
d="M64 0l0.00195312 450h122v-163h80c12 52.667 38.167 94.834 78.5 126.501s90.166 47.5 149.499 47.5c72 0 130.333 -22.167 175 -66.5s67 -100.833 67 -169.5c0 -68 -22.5 -124.333 -67.5 -169s-103.167 -67 -174.5 -67c-61.333 0 -112.333 16.667 -153 50
s-66.334 77.666 -77.001 132.999h-78v-172h-122zM389.002 225c0 -37.333 10 -66.833 30 -88.5s46 -32.5 78 -32.5c32.667 0 59 10.833 79 32.5s30 51.167 30 88.5s-9.83301 66.833 -29.5 88.5s-46.167 32.5 -79.5 32.5c-32 0 -58 -11 -78 -33s-30 -51.333 -30 -88z" />
    <glyph glyph-name="afii10097" unicode="&#x44f;" horiz-adv-x="495" 
d="M284 450h147.001v-450h-115v135h-64l-93 -135h-132l120 160c-22.667 8 -42.834 23.167 -60.501 45.5s-26.5 50.5 -26.5 84.5c0 47.333 18.167 85.833 54.5 115.5s92.833 44.5 169.5 44.5zM183.001 282c0 -18 7.5 -32.833 22.5 -44.5s31.833 -17.5 50.5 -17.5h60v130h-51
c-26 0 -46.167 -6.66699 -60.5 -20s-21.5 -29.333 -21.5 -48z" />
    <glyph glyph-name="afii10071" unicode="&#x451;" horiz-adv-x="516" 
d="M417 126l33 -81.001c-44 -37.333 -101.333 -56 -172 -56c-72.667 0 -131.167 21.667 -175.5 65s-66.5 100.333 -66.5 171c0 67.333 21.667 123.5 65 168.5s101 67.5 173 67.5c59.333 0 109.666 -19.5 150.999 -58.5s62 -89.167 62 -150.5c0 -25.333 -2.33301 -46 -7 -62
h-325c4.66699 -33.333 19.334 -59.166 44.001 -77.499s55 -27.5 91 -27.5c50.667 0 93 13.667 127 41zM269 364.999c-65.333 0 -104.667 -32.667 -118 -98h221c0.666992 28 -8.33301 51.333 -27 70s-44 28 -76 28zM108.999 598.999c0 19.333 6.33301 34.833 19 46.5
s28 17.5 46 17.5c16 0 30 -5.83301 42 -17.5s18 -27.167 18 -46.5c0 -20.667 -6 -37 -18 -49s-26 -18 -42 -18c-18 0 -33.333 6 -46 18s-19 28.333 -19 49zM307.999 598.999c0 19.333 6.16797 34.833 18.501 46.5s27.5 17.5 45.5 17.5c16 0 30 -5.83301 42 -17.5
s18 -27.167 18 -46.5c0 -20.667 -5.83301 -37 -17.5 -49s-25.834 -18 -42.501 -18c-18 0 -33.167 6 -45.5 18s-18.5 28.333 -18.5 49z" />
    <glyph glyph-name="afii10099" unicode="&#x452;" horiz-adv-x="590" 
d="M7 432v93h118v175h115v-175h158v-93h-158v-118c34 32.667 77 49 129 49c58 0 103.333 -15.667 136 -47s49 -80 49 -146c0 -84 -15.333 -158.167 -46 -222.5s-70.334 -113.5 -119.001 -147.5h-123c55.333 44.667 97.833 97 127.5 157s44.5 121.667 44.5 185
c0 75.333 -32.667 113 -98 113c-39.333 0 -72.666 -13.667 -99.999 -41v-214h-115v432h-118z" />
    <glyph glyph-name="afii10100" unicode="&#x453;" horiz-adv-x="374" 
d="M64 0v450h302v-108h-187v-342h-115zM361 662l-126 -145l-69 48l105 165z" />
    <glyph glyph-name="afii10101" unicode="&#x454;" horiz-adv-x="495" 
d="M356 266l-0.00292969 -77h-202c6.66699 -32 22.334 -56.667 47.001 -74s54.667 -26 90 -26c46.667 0 86.334 14.333 119.001 43l54 -76c-44.667 -44.667 -104.667 -67 -180 -67c-76 0 -136.333 22.333 -181 67s-67 101 -67 169c0 72 22.667 129.333 68 172
s106.333 64 183 64c30.667 0 62.334 -5.66699 95.001 -17s59 -28 79 -50l-47 -80c-36 31.333 -79 47 -129 47c-32 0 -59.667 -8 -83 -24s-39 -39.667 -47 -71h201z" />
    <glyph glyph-name="afii10102" unicode="&#x455;" horiz-adv-x="444" 
d="M292 127c0 13.333 -8.33203 24.1709 -24.999 32.5039s-36.834 15.666 -60.501 21.999s-47.5 14 -71.5 23s-44.333 23.5 -61 43.5s-25 45.333 -25 76c0 42.667 15.5 76.167 46.5 100.5s70.5 36.5 118.5 36.5c73.333 0 130.333 -19 171 -57l-43 -82
c-36.667 28.667 -77.334 43 -122.001 43c-16.667 0 -30.167 -3.83301 -40.5 -11.5s-15.5 -16.834 -15.5 -27.501c0 -13.333 8.33301 -24.333 25 -33s36.834 -16 60.501 -22s47.5 -13.333 71.5 -22s44.333 -22.834 61 -42.501s25 -44.167 25 -73.5
c0 -44 -16.5 -79 -49.5 -105s-77.167 -39 -132.5 -39c-38.667 0 -76.834 8.33301 -114.501 25s-62.167 34 -73.5 52l56 75c13.333 -14.667 34.333 -27.667 63 -39s54.334 -17 77.001 -17c17.333 0 31.5 3.66699 42.5 11s16.5 17.666 16.5 30.999z" />
    <glyph glyph-name="afii10103" unicode="&#x456;" horiz-adv-x="277" 
d="M81 0v450h115v-450h-115zM69 612c0 20 7.00098 36.167 21.001 48.5s31 18.5 51 18.5c17.333 0 32.666 -6.16699 45.999 -18.5s20 -28.5 20 -48.5c0 -22 -6.66699 -39.5 -20 -52.5s-28.666 -19.5 -45.999 -19.5c-20.667 0 -37.834 6.5 -51.501 19.5s-20.5 30.5 -20.5 52.5
z" />
    <glyph glyph-name="afii10104" unicode="&#x457;" horiz-adv-x="315" 
d="M25 597c0 17.333 5.66797 31 17.001 41s25.333 15 42 15c14 0 26.5 -5.16699 37.5 -15.5s16.5 -23.833 16.5 -40.5c0 -18 -5.33301 -32.333 -16 -43s-23.334 -16 -38.001 -16c-17.333 0 -31.5 5.16699 -42.5 15.5s-16.5 24.833 -16.5 43.5zM177.001 597
c0 16.667 5.66699 30.167 17 40.5s25.333 15.5 42 15.5c14.667 0 27.334 -5.16699 38.001 -15.5s16 -23.833 16 -40.5c0 -18 -5.33301 -32.333 -16 -43s-23.334 -16 -38.001 -16c-16.667 0 -30.667 5.33301 -42 16s-17 25 -17 43zM113.001 0v450h115v-450h-115z" />
    <glyph glyph-name="afii10105" unicode="&#x458;" horiz-adv-x="284" 
d="M202 450v-483c0 -116.667 -47 -175 -141 -175c-49.333 0 -86 10.667 -110 32l31 91c17.333 -10.667 34.333 -16 51 -16c36 0 54 26 54 78v473h115zM76 612c0 20 7.00098 36.167 21.001 48.5s31 18.5 51 18.5c17.333 0 32.666 -6.16699 45.999 -18.5s20 -28.5 20 -48.5
c0 -22 -6.66699 -39.5 -20 -52.5s-28.666 -19.5 -45.999 -19.5c-20.667 0 -37.834 6.5 -51.501 19.5s-20.5 30.5 -20.5 52.5z" />
    <glyph glyph-name="afii10106" unicode="&#x459;" horiz-adv-x="742" 
d="M360 0l-0.000976562 334.999h-119l-3 -48c-7.33301 -80.667 -19.5 -142.667 -36.5 -186s-38.333 -72.5 -64 -87.5s-59.834 -22.5 -102.501 -22.5l-10 112c14.667 -1.33301 28.5 2.83398 41.5 12.501s25.5 31 37.5 64s19.667 76.5 23 130.5l7 140h341v-123h42
c70.667 0 121.334 -14.667 152.001 -44s46 -66.666 46 -111.999c0 -48.667 -16.667 -89.334 -50 -122.001s-85.666 -49 -156.999 -49h-148zM506.999 234.999h-32v-135h31c57.333 0 86 22.333 86 67c0 45.333 -28.333 68 -85 68z" />
    <glyph glyph-name="afii10107" unicode="&#x45a;" horiz-adv-x="759" 
d="M376 0l-0.00195312 176.999h-197v-177h-115v450h115v-165h197v165h115v-128h42c70.667 0 121.334 -14.167 152.001 -42.5s46 -65.166 46 -110.499c0 -48.667 -16.667 -89 -50 -121s-85.666 -48 -156.999 -48h-148zM522.998 229.999h-32v-130h31c58 0 87 21.667 87 65
s-28.667 65 -86 65z" />
    <glyph glyph-name="afii10108" unicode="&#x45b;" horiz-adv-x="590" 
d="M7 432l-0.00195312 93h118v175h115v-175h158v-93h-158v-118c34 32.667 77 49 129 49c58 0 103.333 -15.833 136 -47.5s49 -81.5 49 -149.5v-166h-115v151c0 33.333 -8.66699 59 -26 77s-41.666 27 -72.999 27c-39.333 0 -72.666 -13.667 -99.999 -41v-214h-115v432h-118z
" />
    <glyph glyph-name="afii10109" unicode="&#x45c;" horiz-adv-x="515" 
d="M490 450l-173 -214l194 -236h-150l-178 227l162 223h145zM64 0v450h115v-450h-115zM384 662l-126 -145l-69 48l105 165z" />
    <glyph glyph-name="afii10110" unicode="&#x45e;" horiz-adv-x="503" 
d="M498 450l-176.999 -450c-32 -78 -60.5 -130.833 -85.5 -158.5s-54.5 -41.5 -88.5 -41.5c-32.667 0 -65 11.667 -97 35l37 87c18 -10.667 33.667 -16 47 -16c27.333 0 50.333 23.333 69 70l10 24l-208 450h138l105 -246c4 -10 11.333 -31.667 22 -65
c5.33301 29.333 10.666 51.333 15.999 66l81 245h131zM103.001 675h105.001c0 -20.667 4.16699 -38 12.5 -52s21.5 -21 39.5 -21c16 0 28 7 36 21s12 31.333 12 52h105c0 -45.333 -13.333 -82.5 -40 -111.5s-64.334 -43.5 -113.001 -43.5
c-53.333 0 -92.833 14.167 -118.5 42.5s-38.5 65.833 -38.5 112.5z" />
    <glyph glyph-name="afii10193" unicode="&#x45f;" horiz-adv-x="540" 
d="M64 0v450h115v-343h182v343h115v-450h-152v-118h-108v118h-152z" />
    <glyph glyph-name="afii10146" unicode="&#x462;" horiz-adv-x="648" 
d="M258 700v-80h148v-115h-148v-75c26.667 3.33301 53.667 5 81 5c176 0 264 -70.333 264 -211c0 -73.333 -25 -129.333 -75 -168s-122 -58 -216 -58c-24 0 -56.5 0.333008 -97.5 1s-67.167 1 -78.5 1v505h-121v115h121v80h122zM329 320c-16 0 -39.668 -1.66699 -71.001 -5
v-199c5.33301 0 12.5 -0.333008 21.5 -1s17.333 -1.16699 25 -1.5s15.167 -0.5 22.5 -0.5c48.667 0 85.167 7.83301 109.5 23.5s36.5 43.834 36.5 84.501c0 37.333 -12.167 63.166 -36.5 77.499s-60.166 21.5 -107.499 21.5z" />
    <glyph glyph-name="afii10194" unicode="&#x463;" horiz-adv-x="517" 
d="M7 357v93.001h118v250h115v-250h136v-93h-136v-60h51c132 0 198 -47 198 -141c0 -46.667 -16.5 -84.334 -49.5 -113.001s-85.5 -43 -157.5 -43h-157v357h-118zM281 212.001l-41.001 -0.00195312v-120h40c30.667 0 52.834 4.83301 66.501 14.5s20.5 24.834 20.5 45.501
s-6.66699 35.834 -20 45.501s-35.333 14.5 -66 14.5z" />
    <glyph glyph-name="afii10147" unicode="&#x472;" horiz-adv-x="819" 
d="M45 350c0 102.667 34.167 188.5 102.5 257.5s155.5 103.5 261.5 103.5c105.333 0 192.5 -33.333 261.5 -100s103.5 -153.667 103.5 -261c0 -104.667 -34.667 -191 -104 -259s-156.333 -102 -261 -102c-105.333 0 -192.333 33.333 -261 100s-103 153.667 -103 261z
M304 339c-39.333 0 -80.0029 -18 -122.003 -54c13.333 -54 40.833 -97.667 82.5 -131s89.834 -50 144.501 -50c62.667 0 114.334 18.167 155.001 54.5s66 83.833 76 142.5c-42 -24 -80.667 -36 -116 -36c-31.333 0 -69.166 12.333 -113.499 37s-79.833 37 -106.5 37z
M532.997 373c35.333 0 70 13.667 104 41c-12.667 54.667 -40 98.667 -82 132s-90.667 50 -146 50c-58 0 -107.833 -17.5 -149.5 -52.5s-68.167 -81.167 -79.5 -138.5c42.667 27.333 84 41 124 41c32 0 70.833 -12.167 116.5 -36.5s83.167 -36.5 112.5 -36.5z" />
    <glyph glyph-name="afii10195" unicode="&#x473;" horiz-adv-x="577" 
d="M36 225c0 68.667 22.833 125.167 68.5 169.5s107.167 66.5 184.5 66.5c76.667 0 137.834 -22.167 183.501 -66.5s68.5 -100.833 68.5 -169.5s-22.833 -125.167 -68.5 -169.5s-106.834 -66.5 -183.501 -66.5c-77.333 0 -138.833 22.167 -184.5 66.5
s-68.5 100.833 -68.5 169.5zM217 211c-21.333 0 -41.6689 -9.66602 -61.002 -28.999c7.33301 -32.667 23.333 -57.667 48 -75s53 -26 85 -26c32.667 0 61.334 9.16699 86.001 27.5s40.334 45.166 47.001 80.499c-21.333 -18.667 -45 -28 -71 -28
c-21.333 0 -45.5 8.33301 -72.5 25s-47.5 25 -61.5 25zM365.997 239.001c22 0 40.666 7.99902 55.999 23.999c-7.33301 34 -23.5 60 -48.5 78s-53.167 27 -84.5 27c-32.667 0 -61.667 -9.16699 -87 -27.5s-41.333 -45.166 -48 -80.499c23.333 18.667 46 28 68 28
c22.667 0 49.334 -8.16699 80.001 -24.5s52 -24.5 64 -24.5z" />
    <glyph glyph-name="afii10148" unicode="&#x474;" horiz-adv-x="661" 
d="M563 499l-184.998 -501h-93l-288 702h131l207 -518l130 378c22 64.667 48.167 108 78.5 130s76.166 25 137.499 9l-16 -107c-26.667 8.66699 -46.334 6.16699 -59.001 -7.5s-27 -42.167 -43 -85.5z" />
    <glyph glyph-name="afii10196" unicode="&#x475;" horiz-adv-x="492" 
d="M402 268l-110.001 -269.997h-86l-209 452h137l85 -193c14 -28.667 25.333 -62.334 34 -101.001c8.66699 37.333 19 71.666 31 102.999l30 79c8 21.333 15.5 38.833 22.5 52.5s15.833 26.167 26.5 37.5s22.667 19.166 36 23.499s29.333 6.33301 48 6
s40.334 -3.5 65.001 -9.5l-17 -108c-23.333 9.33301 -41 8.33301 -53 -3s-25.333 -34.333 -40 -69z" />
    <glyph glyph-name="afii10050" unicode="&#x490;" horiz-adv-x="507" 
d="M97 0v700h280v117h115v-232h-272v-585h-123z" />
    <glyph glyph-name="afii10098" unicode="&#x491;" horiz-adv-x="374" 
d="M64 0v450h195v97h107v-205h-187v-342h-115z" />
    <glyph glyph-name="uni1E9E" unicode="&#x1e9e;" horiz-adv-x="674" 
d="M491 184c0 17.333 -4.99902 34.166 -14.999 50.499s-27.167 33.833 -51.5 52.5s-44.5 33 -60.5 43l-79 48l132 181c-7.33301 10.667 -19.333 19.5 -36 26.5s-34.667 10.5 -54 10.5c-32.667 0 -58.667 -10 -78 -30s-29 -50.333 -29 -91v-476h-123v468
c0 82.667 21.167 144 63.5 184s99.5 60 171.5 60c42.667 0 85 -10.667 127 -32s77.333 -52 106 -92l-135 -172c54.667 -29.333 100.167 -65.166 136.5 -107.499s54.5 -89.833 54.5 -142.5c0 -51.333 -18.5 -93.5 -55.5 -126.5s-78.167 -49.5 -123.5 -49.5
c-68.667 0 -126.334 21.333 -173.001 64l53 96c18.667 -16 34.5 -27.5 47.5 -34.5s28.167 -10.5 45.5 -10.5c21.333 0 39.333 7.33301 54 22s22 34 22 58z" />
    <glyph glyph-name="uni2010" unicode="&#x2010;" horiz-adv-x="376" 
d="M62 220v107h252v-107h-252z" />
    <glyph glyph-name="uni2011" unicode="&#x2011;" horiz-adv-x="376" 
d="M62 220v107h252v-107h-252z" />
    <glyph glyph-name="figuredash" unicode="&#x2012;" horiz-adv-x="599" 
d="M85 304v100h429v-100h-429z" />
    <glyph glyph-name="endash" unicode="&#x2013;" horiz-adv-x="599" 
d="M85 220v100h429v-100h-429z" />
    <glyph glyph-name="emdash" unicode="&#x2014;" horiz-adv-x="814" 
d="M85 220v100h644v-100h-644z" />
    <glyph glyph-name="afii00208" unicode="&#x2015;" horiz-adv-x="814" 
d="M85 220v100h644v-100h-644z" />
    <glyph glyph-name="quoteleft" unicode="&#x2018;" horiz-adv-x="241" 
d="M178 550l-97 -55.999c-22.667 24 -34 55 -34 93c0 42 10 77.167 30 105.5s43.333 50.5 70 66.5l53 -49c-30 -24.667 -45 -57.334 -45 -98.001c0 -26 7.66699 -46.667 23 -62z" />
    <glyph glyph-name="quoteright" unicode="&#x2019;" horiz-adv-x="241" 
d="M63 698l97 57c22.667 -24 34 -55 34 -93c0 -42 -10 -77.5 -30 -106.5s-43.333 -50.833 -70 -65.5l-53 49c30 24.667 45 57 45 97c0 26 -7.66699 46.667 -23 62z" />
    <glyph glyph-name="quotesinglbase" unicode="&#x201a;" horiz-adv-x="241" 
d="M63 33l97 57c22.667 -24 34 -55 34 -93c0 -42 -10 -77.5 -30 -106.5s-43.333 -50.833 -70 -65.5l-53 49c30 24.667 45 57 45 97c0 26 -7.66699 46.667 -23 62z" />
    <glyph glyph-name="quotedblleft" unicode="&#x201c;" horiz-adv-x="404" 
d="M340 550l-97 -55.999c-22.667 24 -34 55 -34 93c0 42 10 77.167 30 105.5s43.333 50.5 70 66.5l53 -49c-30 -24.667 -45 -57.334 -45 -98.001c0 -26 7.66699 -46.667 23 -62zM178 550.001l-97 -55.999c-22.667 24 -34 55 -34 93c0 42 10 77.167 30 105.5
s43.333 50.5 70 66.5l53 -49c-30 -24.667 -45 -57.334 -45 -98.001c0 -26 7.66699 -46.667 23 -62z" />
    <glyph glyph-name="quotedblright" unicode="&#x201d;" horiz-adv-x="404" 
d="M225 698l97 57c22.667 -24 34 -55 34 -93c0 -42 -10 -77.5 -30 -106.5s-43.333 -50.833 -70 -65.5l-53 49c30 24.667 45 57 45 97c0 26 -7.66699 46.667 -23 62zM63 698l97 57c22.667 -24 34 -55 34 -93c0 -42 -10 -77.5 -30 -106.5s-43.333 -50.833 -70 -65.5l-53 49
c30 24.667 45 57 45 97c0 26 -7.66699 46.667 -23 62z" />
    <glyph glyph-name="quotedblbase" unicode="&#x201e;" horiz-adv-x="404" 
d="M225 33l97 57c22.667 -24 34 -55 34 -93c0 -42 -10 -77.5 -30 -106.5s-43.333 -50.833 -70 -65.5l-53 49c30 24.667 45 57 45 97c0 26 -7.66699 46.667 -23 62zM63 33l97 57c22.667 -24 34 -55 34 -93c0 -42 -10 -77.5 -30 -106.5s-43.333 -50.833 -70 -65.5l-53 49
c30 24.667 45 57 45 97c0 26 -7.66699 46.667 -23 62z" />
    <glyph glyph-name="dagger" unicode="&#x2020;" horiz-adv-x="491" 
d="M40 395v100h152v205h107v-205h152v-100h-152v-495h-107v495h-152z" />
    <glyph glyph-name="daggerdbl" unicode="&#x2021;" horiz-adv-x="491" 
d="M40 395v100h152v205h107v-205h152v-100h-152v-160h152v-100h-152v-235h-107v235h-152v100h152v160h-152z" />
    <glyph glyph-name="bullet" unicode="&#x2022;" horiz-adv-x="285" 
d="M25 264c0 32.667 11.5 60.5 34.5 83.5s50.5 34.5 82.5 34.5s59.667 -11.5 83 -34.5s35 -50.833 35 -83.5c0 -31.333 -11.667 -58.666 -35 -81.999s-51 -35 -83 -35s-59.5 11.667 -82.5 35s-34.5 50.666 -34.5 81.999z" />
    </font>
</defs>
</svg>
